<svg width="283" height="109" viewBox="0 0 283 109" fill="none" xmlns="http://www.w3.org/2000/svg">
<path d="M20.5078 56.3103H9.55078L9.49219 50.2751H18.6914C20.3125 50.2751 21.6406 50.0701 22.6758 49.6599C23.7109 49.2302 24.4824 48.615 24.9902 47.8142C25.5176 46.9939 25.7812 45.9978 25.7812 44.8259C25.7812 43.4978 25.5273 42.4236 25.0195 41.6033C24.5312 40.783 23.7598 40.1873 22.7051 39.8162C21.6699 39.4451 20.332 39.2595 18.6914 39.2595H12.5977V75.031H3.80859V32.3748H18.6914C21.1719 32.3748 23.3887 32.6091 25.3418 33.0779C27.3145 33.5466 28.9844 34.2595 30.3516 35.2166C31.7188 36.1736 32.7637 37.3845 33.4863 38.8494C34.209 40.2947 34.5703 42.0134 34.5703 44.0056C34.5703 45.7634 34.1699 47.3845 33.3691 48.8689C32.5879 50.3533 31.3477 51.5642 29.6484 52.5017C27.9688 53.4392 25.7715 53.9568 23.0566 54.0544L20.5078 56.3103ZM20.127 75.031H7.14844L10.5762 68.1755H20.127C21.6699 68.1755 22.9297 67.9314 23.9062 67.4431C24.8828 66.9353 25.6055 66.2517 26.0742 65.3923C26.543 64.533 26.7773 63.5466 26.7773 62.4333C26.7773 61.1833 26.5625 60.0994 26.1328 59.1814C25.7227 58.2634 25.0586 57.5603 24.1406 57.072C23.2227 56.5642 22.0117 56.3103 20.5078 56.3103H12.041L12.0996 50.2751H22.6465L24.668 52.6482C27.2656 52.6091 29.3555 53.0681 30.9375 54.0251C32.5391 54.9626 33.7012 56.1833 34.4238 57.6873C35.166 59.1912 35.5371 60.8025 35.5371 62.5212C35.5371 65.2556 34.9414 67.5603 33.75 69.4353C32.5586 71.2908 30.8105 72.6873 28.5059 73.6248C26.2207 74.5623 23.4277 75.031 20.127 75.031ZM50.5078 43.3318V75.031H42.041V43.3318H50.5078ZM41.5137 35.0701C41.5137 33.8396 41.9434 32.824 42.8027 32.0232C43.6621 31.2224 44.8145 30.822 46.2598 30.822C47.6855 30.822 48.8281 31.2224 49.6875 32.0232C50.5664 32.824 51.0059 33.8396 51.0059 35.0701C51.0059 36.3005 50.5664 37.3162 49.6875 38.1169C48.8281 38.9177 47.6855 39.3181 46.2598 39.3181C44.8145 39.3181 43.6621 38.9177 42.8027 38.1169C41.9434 37.3162 41.5137 36.3005 41.5137 35.0701ZM65.918 30.0017V75.031H57.4805V30.0017H65.918ZM85.8984 43.3318L72.1289 59.0349L64.7461 66.5056L61.6699 60.4119L67.5293 52.9705L75.7617 43.3318H85.8984ZM77.1387 75.031L67.7637 60.3826L73.5938 55.2849L86.8652 75.031H77.1387ZM103.535 75.6169C101.074 75.6169 98.8672 75.2263 96.9141 74.4451C94.9609 73.6443 93.3008 72.5408 91.9336 71.1345C90.5859 69.7283 89.5508 68.0974 88.8281 66.2419C88.1055 64.3669 87.7441 62.3748 87.7441 60.2654V59.0935C87.7441 56.6912 88.0859 54.4939 88.7695 52.5017C89.4531 50.5095 90.4297 48.781 91.6992 47.3162C92.9883 45.8513 94.5508 44.7283 96.3867 43.947C98.2227 43.1462 100.293 42.7458 102.598 42.7458C104.844 42.7458 106.836 43.1169 108.574 43.8591C110.312 44.6013 111.768 45.656 112.939 47.0232C114.131 48.3904 115.029 50.031 115.635 51.9451C116.24 53.8396 116.543 55.949 116.543 58.2732V61.7888H91.3477V56.1638H108.252V55.5193C108.252 54.3474 108.037 53.3025 107.607 52.3845C107.197 51.447 106.572 50.7048 105.732 50.158C104.893 49.6111 103.818 49.3376 102.51 49.3376C101.396 49.3376 100.439 49.5818 99.6387 50.0701C98.8379 50.5583 98.1836 51.2419 97.6758 52.1208C97.1875 52.9998 96.8164 54.0349 96.5625 55.2263C96.3281 56.3982 96.2109 57.6873 96.2109 59.0935V60.2654C96.2109 61.5349 96.3867 62.7068 96.7383 63.781C97.1094 64.8552 97.627 65.783 98.291 66.5642C98.9746 67.3455 99.7949 67.9509 100.752 68.3806C101.729 68.8103 102.832 69.0251 104.062 69.0251C105.586 69.0251 107.002 68.7322 108.311 68.1462C109.639 67.5408 110.781 66.6326 111.738 65.4216L115.84 69.8748C115.176 70.8318 114.268 71.7498 113.115 72.6287C111.982 73.5076 110.615 74.2302 109.014 74.7966C107.412 75.3435 105.586 75.6169 103.535 75.6169ZM152.49 57.2771H139.834V55.1091H152.49C155.225 55.1091 157.451 54.6599 159.17 53.7615C160.889 52.8435 162.139 51.6228 162.92 50.0994C163.721 48.5564 164.121 46.8572 164.121 45.0017C164.121 43.0876 163.721 41.3396 162.92 39.7576C162.139 38.1755 160.889 36.9158 159.17 35.9783C157.451 35.0212 155.225 34.5427 152.49 34.5427H141.064V75.031H138.691V32.3748H152.49C155.557 32.3748 158.125 32.9021 160.195 33.9568C162.285 35.0115 163.857 36.4861 164.912 38.3806C165.967 40.2556 166.494 42.4431 166.494 44.9431C166.494 47.4822 165.967 49.6794 164.912 51.5349C163.857 53.3708 162.295 54.7869 160.225 55.783C158.154 56.7791 155.576 57.2771 152.49 57.2771ZM205.928 43.3318V75.031H203.584V43.3318H205.928ZM202.852 33.7224C202.852 33.1951 203.027 32.7458 203.379 32.3748C203.75 31.9841 204.219 31.7888 204.785 31.7888C205.332 31.7888 205.791 31.9841 206.162 32.3748C206.533 32.7458 206.719 33.1951 206.719 33.7224C206.719 34.2498 206.533 34.699 206.162 35.0701C205.791 35.4216 205.332 35.5974 204.785 35.5974C204.219 35.5974 203.75 35.4216 203.379 35.0701C203.027 34.699 202.852 34.2498 202.852 33.7224ZM218.35 50.0994V75.031H216.035V43.3318H218.32L218.35 50.0994ZM217.91 56.7498L216.768 55.4021C216.943 53.7224 217.354 52.1208 217.998 50.5974C218.662 49.074 219.531 47.7263 220.605 46.5544C221.699 45.3826 222.969 44.4548 224.414 43.7712C225.879 43.0876 227.49 42.7458 229.248 42.7458C230.83 42.7458 232.246 42.9705 233.496 43.4197C234.746 43.8494 235.801 44.533 236.66 45.4705C237.539 46.408 238.203 47.6189 238.652 49.1033C239.102 50.5681 239.326 52.3552 239.326 54.4646V75.031H237.012V54.4646C237.012 51.9646 236.67 50.031 235.986 48.6638C235.303 47.2771 234.346 46.3005 233.115 45.7341C231.904 45.1677 230.488 44.8845 228.867 44.8845C226.992 44.8845 225.371 45.3044 224.004 46.1443C222.656 46.9646 221.543 48.0095 220.664 49.2791C219.785 50.5291 219.111 51.8279 218.643 53.1755C218.193 54.5232 217.949 55.7146 217.91 56.7498ZM260.215 43.3318V45.4412H245.039V43.3318H260.215ZM250.898 34.9529H253.242V67.3845C253.242 69.0837 253.447 70.3728 253.857 71.2517C254.287 72.1111 254.844 72.697 255.527 73.0095C256.23 73.3025 256.982 73.449 257.783 73.449C258.35 73.449 258.867 73.4197 259.336 73.3611C259.824 73.3025 260.312 73.2341 260.801 73.156L261.006 75.2068C260.576 75.3435 260.02 75.4412 259.336 75.4998C258.652 75.5779 258.047 75.6169 257.52 75.6169C256.191 75.6169 255.029 75.3728 254.033 74.8845C253.037 74.3962 252.266 73.5564 251.719 72.365C251.172 71.1541 250.898 69.4939 250.898 67.3845V34.9529Z" fill="white"/>
<path d="M183.5 44.0061C190.404 44.0061 196 50.1342 196 57.6936C196 63.3591 192.056 69.2971 184.333 75.6394C183.84 76.045 183.16 76.045 182.667 75.6394C174.944 69.2971 171 63.3591 171 57.6936C171 50.1342 176.596 44.0061 183.5 44.0061ZM183.5 53.1311C181.199 53.1311 179.333 55.1738 179.333 57.6936C179.333 60.2134 181.199 62.2561 183.5 62.2561C185.801 62.2561 187.667 60.2134 187.667 57.6936C187.667 55.1738 185.801 53.1311 183.5 53.1311Z" fill="white"/>
</svg>
