<svg width="97" height="77" viewBox="0 0 97 77" fill="none" xmlns="http://www.w3.org/2000/svg">
<path d="M51.966 0C50.0527 0 48.5017 1.55103 48.5017 3.46429C48.5017 5.37754 50.0527 6.92857 51.966 6.92857H59.6973L63.3923 20.7857H34.6429V10.3929C34.6429 8.4796 33.0918 6.92857 31.1786 6.92857H17.3214C15.4082 6.92857 13.8571 8.4796 13.8571 10.3929C13.8571 12.3061 15.4082 13.8571 17.3214 13.8571H27.7143V22.1713C27.7143 22.5337 27.7699 22.8831 27.8732 23.2113L23.9812 34.8869C22.9396 34.7263 21.8724 34.6429 20.7857 34.6429C9.30611 34.6429 0 43.949 0 55.4286C0 66.9085 9.30611 76.2143 20.7857 76.2143C31.806 76.2143 40.8233 67.6381 41.5272 56.7956L65.7327 29.5642L67.5854 36.5129C60.4128 39.7902 55.4286 47.0273 55.4286 55.4286C55.4286 66.9085 64.7343 76.2143 76.2143 76.2143C87.6942 76.2143 97 66.9085 97 55.4286C97 43.949 87.6942 34.6429 76.2143 34.6429C75.5623 34.6429 74.9179 34.6729 74.2812 34.7315L65.7064 2.57175C65.3018 1.05522 63.9285 0 62.3585 0H51.966ZM20.7857 41.5714C21.1073 41.5714 21.4263 41.5824 21.7423 41.6039L17.4992 54.3332C17.1471 55.3896 17.3243 56.551 17.9753 57.4545C18.6265 58.358 19.6722 58.8929 20.7857 58.8929H34.2063C32.6679 64.8694 27.2426 69.2857 20.7857 69.2857C13.1326 69.2857 6.92857 63.0819 6.92857 55.4286C6.92857 47.7755 13.1326 41.5714 20.7857 41.5714ZM25.5922 51.9643L28.3157 43.7939C31.1897 45.6578 33.3295 48.5575 34.2063 51.9643H25.5922ZM30.5547 37.0769L33.6755 27.7143H58.107L40.1656 47.8985C38.3563 43.2455 34.9197 39.4053 30.5547 37.0769ZM69.4097 43.3544L72.8671 56.321C73.3604 58.1695 75.2581 59.2691 77.1074 58.7758C78.9559 58.2831 80.0548 56.3847 79.5622 54.536L76.1055 41.5718L76.2143 41.5714C83.8676 41.5714 90.0714 47.7755 90.0714 55.4286C90.0714 63.0819 83.8676 69.2857 76.2143 69.2857C68.561 69.2857 62.3571 63.0819 62.3571 55.4286C62.3571 50.2484 65.1992 45.7321 69.4097 43.3544Z" fill="#4EABA7"/>
</svg>
