<svg width="91" height="65" viewBox="0 0 91 65" fill="none" xmlns="http://www.w3.org/2000/svg">
<path d="M0 8.125C0 3.63766 3.63766 0 8.125 0H69.875C74.3626 0 78 3.63766 78 8.125V43.875C78 48.3626 74.3626 52 69.875 52H8.125C3.63766 52 0 48.3626 0 43.875V8.125ZM19.5 9.75V6.5H13V9.75C13 11.5449 11.5449 13 9.75 13H6.5V19.5H9.75C15.1348 19.5 19.5 15.1348 19.5 9.75ZM52 26C52 18.8203 46.1797 13 39 13C31.8203 13 26 18.8203 26 26C26 33.1797 31.8203 39 39 39C46.1797 39 52 33.1797 52 26ZM65 6.5H58.5V9.75C58.5 15.1348 62.8654 19.5 68.25 19.5H71.5V13H68.25C66.4554 13 65 11.5449 65 9.75V6.5ZM19.5 42.25C19.5 36.8652 15.1348 32.5 9.75 32.5H6.5V39H9.75C11.5449 39 13 40.4551 13 42.25V45.5H19.5V42.25ZM65 45.5V42.25C65 40.4551 66.4554 39 68.25 39H71.5V32.5H68.25C62.8654 32.5 58.5 36.8652 58.5 42.25V45.5H65Z" fill="#4EABA7"/>
<path d="M22.7501 64.857C18.4172 64.857 14.7444 62.0308 13.4749 58.121C14.3767 58.2764 15.304 58.357 16.2501 58.357H69.8751C77.952 58.357 84.5001 51.8089 84.5001 43.732V13.4117C88.287 14.7502 91.0001 18.3618 91.0001 22.607V43.732C91.0001 55.3988 81.5419 64.857 69.8751 64.857H22.7501Z" fill="#4EABA7"/>
<path d="M39.7837 18.6294V20.8193H38.6558V18.6294H39.7837ZM39.6445 30.5898V32.5527H38.5239V30.5898H39.6445ZM40.7505 28.2241C40.7505 27.9409 40.6919 27.6943 40.5747 27.4844C40.4624 27.2695 40.2769 27.0767 40.0181 26.9058C39.7593 26.73 39.4126 26.5664 38.978 26.415C38.353 26.1953 37.8062 25.9487 37.3374 25.6753C36.8735 25.397 36.5122 25.0552 36.2534 24.6499C35.9995 24.2397 35.8726 23.7295 35.8726 23.1191C35.8726 22.5186 36.0093 21.9985 36.2827 21.5591C36.561 21.1196 36.9468 20.7803 37.4399 20.541C37.9331 20.3018 38.5093 20.1821 39.1685 20.1821C39.6763 20.1821 40.1328 20.2578 40.5381 20.4092C40.9482 20.5605 41.2974 20.7827 41.5854 21.0757C41.8735 21.3687 42.0933 21.73 42.2446 22.1597C42.4009 22.5845 42.479 23.0728 42.479 23.6245H40.7212C40.7212 23.312 40.6846 23.0337 40.6113 22.7896C40.543 22.5405 40.4404 22.3306 40.3037 22.1597C40.167 21.9839 40.001 21.8496 39.8057 21.7568C39.6152 21.6641 39.3979 21.6177 39.1538 21.6177C38.8071 21.6177 38.5215 21.6836 38.2969 21.8154C38.0723 21.9424 37.9062 22.1182 37.7988 22.3428C37.6963 22.5674 37.645 22.8237 37.645 23.1118C37.645 23.3901 37.6987 23.6343 37.8062 23.8442C37.9136 24.0542 38.0967 24.2446 38.3555 24.4155C38.6191 24.5815 38.9805 24.75 39.4395 24.9209C40.0693 25.1455 40.6138 25.397 41.0728 25.6753C41.5366 25.9487 41.8931 26.2881 42.1421 26.6934C42.396 27.0938 42.5229 27.5991 42.5229 28.2095C42.5229 28.8394 42.3765 29.374 42.0835 29.8135C41.7954 30.2529 41.3901 30.5874 40.8677 30.8169C40.3501 31.0415 39.7471 31.1538 39.0586 31.1538C38.624 31.1538 38.1919 31.0977 37.7622 30.9854C37.3374 30.8682 36.9517 30.6777 36.605 30.4141C36.2583 30.1504 35.9824 29.8013 35.7773 29.3667C35.5723 28.9272 35.4697 28.3901 35.4697 27.7554H37.2422C37.2422 28.1362 37.2935 28.4536 37.396 28.7075C37.4985 28.9614 37.6377 29.1616 37.8135 29.3081C37.9893 29.4546 38.1846 29.5596 38.3994 29.623C38.6191 29.6865 38.8389 29.7183 39.0586 29.7183C39.4248 29.7183 39.7324 29.6572 39.9814 29.5352C40.2354 29.4082 40.4258 29.2324 40.5527 29.0078C40.6846 28.7783 40.7505 28.5171 40.7505 28.2241Z" fill="#4EABA7"/>
</svg>
