<svg width="72" height="73" viewBox="0 0 72 73" fill="none" xmlns="http://www.w3.org/2000/svg">
<path fill-rule="evenodd" clip-rule="evenodd" d="M61.9736 36.5003L61.9775 36.7436L61.9892 36.9872L62.0087 37.2313L62.0359 37.4762L62.0709 37.7222L62.1137 37.9695L62.1641 38.2184L62.2223 38.4692L62.2881 38.7222L62.3615 38.9775L62.4426 39.2355L62.5311 39.4965L62.6271 39.7606L62.7306 40.0283L62.8414 40.2996L62.9594 40.575L63.0847 40.8546L63.217 41.1388L63.3563 41.4277L63.5025 41.7217L63.6554 42.0209L63.8149 42.3257L63.9809 42.6362L64.1532 42.9528L64.3316 43.2756L64.5159 43.6049L64.7059 43.9409L64.9014 44.2838L65.1022 44.6338L65.3079 44.9911L65.5184 45.356L65.7332 45.7285L65.9521 46.1088L66.1748 46.4971L66.4008 46.8935L66.6299 47.298L66.8615 47.7109L67.0952 48.1322L67.3306 48.5618L67.5671 48.9999L67.8044 49.4465L68.0417 49.9015L68.2787 50.3648L68.5146 50.8364L68.7488 51.3161L68.9808 51.8039L69.2098 52.2995L69.4352 52.8027L69.6563 53.3132L69.8723 53.8308L70.0824 54.3551L70.286 54.8857L70.4822 55.4222L70.6702 55.9641L70.8492 56.511L71.0184 57.0622L71.177 57.6172L71.3242 58.1753L71.459 58.7358L71.5808 59.2981L71.6886 59.8612L71.7817 60.4245L71.8594 60.9871L71.9207 61.5481L71.9651 62.1065L71.9917 62.6614L72 63.2119L71.9892 63.757L71.9589 64.2956L71.9084 64.8266L71.8372 65.3491L71.745 65.862L71.6312 66.3643L71.4957 66.8548L71.3382 67.3326L71.1584 67.7966L70.9564 68.2458L70.7319 68.6794L70.4852 69.0962L70.2162 69.4954L69.9252 69.8762L69.6125 70.2378L69.2783 70.5793L68.9232 70.9001L68.5476 71.1996L68.152 71.4772L67.7371 71.7324L67.3037 71.9648L66.8524 72.174L66.384 72.3597L65.8995 72.5219L65.3997 72.6603L64.8857 72.775L64.3584 72.866L63.8188 72.9335L63.268 72.9776L62.707 72.9987L62.1371 72.9972L61.5591 72.9734L60.9744 72.9279L60.3839 72.8613L59.7887 72.7741L59.19 72.6672L58.5887 72.5412L57.9859 72.3969L57.3826 72.2352L56.7798 72.057L56.1785 71.863L55.5794 71.6544L54.9835 71.4319L54.3916 71.1967L53.8044 70.9497L53.2226 70.6918L52.647 70.4241L52.0781 70.1475L51.5165 69.8631L50.9627 69.5718L50.4172 69.2745L49.8804 68.9724L49.3526 68.6662L48.8341 68.3569L48.3253 68.0454L47.8263 67.7325L47.3373 67.4192L46.8584 67.1061L46.3897 66.7941L45.9313 66.484L45.4831 66.1765L45.0452 65.8723L44.6175 65.572L44.1998 65.2763L43.7921 64.9859L43.3941 64.7013L43.0058 64.423L42.6269 64.1517L42.2572 63.8878L41.8964 63.6318L41.5442 63.3842L41.2005 63.1455L40.8647 62.9161L40.5367 62.6964L40.2161 62.4868L39.9025 62.2877L39.5956 62.0996L39.295 61.9228L39.0003 61.7577L38.711 61.6046L38.4268 61.464L38.1472 61.3363L37.8718 61.2217L37.6002 61.1208L37.3318 61.0339L37.0661 60.9615L36.8027 60.9041L36.541 60.862L36.2805 60.8358L36.0207 60.8261L35.7608 60.8332L35.5005 60.8568L35.239 60.8963L34.9759 60.9514L34.7107 61.0214L34.4427 61.106L34.1716 61.2047L33.8968 61.3171L33.618 61.4428L33.3345 61.5814L33.0461 61.7325L32.7523 61.8957L32.4526 62.0707L32.1467 62.257L31.8342 62.4544L31.5148 62.6623L31.188 62.8804L30.8535 63.1083L30.511 63.3456L30.1602 63.5918L29.8008 63.8465L29.4325 64.1091L29.0551 64.3793L28.6683 64.6565L28.2719 64.9402L27.8657 65.2297L27.4497 65.5246L27.0235 65.8242L26.5872 66.1278L26.1407 66.4349L25.6839 66.7446L25.2169 67.0563L24.7396 67.3693L24.2522 67.6826L23.7548 67.9956L23.2475 68.3074L22.7306 68.6171L22.2042 68.9239L21.6688 69.2267L21.1247 69.5248L20.5722 69.8171L20.0118 70.1027L19.444 70.3806L18.8694 70.6498L18.2886 70.9093L17.7022 71.1581L17.111 71.3953L16.5157 71.6198L15.9171 71.8308L15.316 72.0271L14.7134 72.2079L14.1101 72.3723L13.5072 72.5194L12.9056 72.6484L12.3064 72.7584L11.7106 72.8487L11.1192 72.9187L10.5335 72.9676L9.95441 72.9949L9.3831 73L8.82065 72.9825L8.26817 72.9421L7.72671 72.8784L7.19736 72.7911L6.68113 72.6802L6.17903 72.5455L5.69203 72.3872L5.22105 72.2051L4.76697 71.9997L4.3306 71.771L3.91273 71.5194L3.51405 71.2453L3.13521 70.9493L2.77678 70.6318L2.43926 70.2935L2.12309 69.9351L1.82862 69.5573L1.55613 69.161L1.30582 68.7469L1.07783 68.316L0.872187 67.8692L0.688885 67.4074L0.527819 66.9318L0.38882 66.4432L0.271649 65.9427L0.176 65.4315L0.101504 64.9104L0.0477312 64.3807L0.0141967 63.8432L0.00036309 63.2991L0.00564489 62.7494L0.029413 62.1951L0.0709991 61.6372L0.1297 61.0766L0.204782 60.5142L0.295486 59.9509L0.401031 59.3877L0.52062 58.8253L0.653441 58.2644L0.798674 57.7059L0.955494 57.1504L1.12307 56.5985L1.30059 56.0509L1.48723 55.5082L1.68216 54.9708L1.88461 54.4392L2.09377 53.9139L2.30888 53.3952L2.52918 52.8835L2.75394 52.3791L2.98245 51.8823L3.214 51.3933L3.44795 50.9122L3.68363 50.4393L3.92044 49.9747L4.15777 49.5184L4.39506 49.0705L4.63177 48.631L4.86738 48.2L5.10139 47.7774L5.33335 47.3632L5.5628 46.9573L5.78934 46.5597L6.01257 46.1701L6.23212 45.7885L6.44764 45.4148L6.65881 45.0487L6.86532 44.6902L7.06689 44.3391L7.26326 43.995L7.45417 43.658L7.63941 43.3276L7.81876 43.0038L7.99202 42.6862L8.15901 42.3747L8.31958 42.0691L8.47356 41.769L8.62082 41.4742L8.76123 41.1845L8.89468 40.8996L9.02105 40.6192L9.14025 40.3432L9.2522 40.0712L9.35682 39.803L9.45403 39.5383L9.54378 39.2769L9.626 39.0184L9.70065 38.7627L9.76769 38.5094L9.82707 38.2583L9.87876 38.009L9.92274 37.7615L9.95897 37.5153L9.98746 37.2703L10.0082 37.026L10.0211 36.7824L10.0262 36.5391L10.0236 36.2958L10.0131 36.0523L9.9949 35.8083L9.96889 35.5635L9.93512 35.3177L9.89361 35.0707L9.84437 34.822L9.78743 34.5715L9.72283 34.319L9.65061 34.064L9.57079 33.8064L9.48343 33.546L9.38859 33.2823L9.28633 33.0153L9.17671 32.7445L9.0598 32.4698L8.9357 32.1909L8.8045 31.9075L8.6663 31.6193L8.52121 31.3262L8.36935 31.0278L8.21087 30.7239L8.0459 30.4143L7.87462 30.0987L7.69719 29.7769L7.5138 29.4487L7.32467 29.1138L7.13002 28.772L6.93008 28.4231L6.72511 28.067L6.51539 27.7033L6.30122 27.3321L6.08292 26.953L5.86083 26.566L5.6353 26.1709L5.40673 25.7676L5.17552 25.3561L4.94212 24.9362L4.70696 24.5079L4.47055 24.0711L4.23339 23.6259L3.99601 23.1723L3.75897 22.7103L3.52286 22.24L3.28829 21.7615L3.05591 21.275L2.82635 20.7806L2.60033 20.2786L2.37853 19.7692L2.16168 19.2528L1.95054 18.7295L1.74587 18.1999L1.54846 17.6643L1.35909 17.1232L1.17858 16.5771L1.00775 16.0265L0.847407 15.4721L0.698394 14.9145L0.56153 14.3543L0.437638 13.7923L0.327533 13.2292L0.232015 12.6659L0.151874 12.1031L0.087874 11.5418L0.0407585 10.9829L0.0112405 10.4274L0 9.87609L0.00767906 9.33011L0.0348775 8.79044L0.0821485 8.25811L0.149994 7.73417L0.238863 7.21967L0.349142 6.71567L0.481158 6.2232L0.635173 5.74331L0.811379 5.27703L1.0099 4.82536L1.23077 4.38928L1.47399 3.96973L1.73943 3.56763L2.02692 3.18384L2.33622 2.81917L2.66698 2.4744L3.0188 2.15023L3.3912 1.8473L3.78362 1.56619L4.19546 1.3074L4.62601 1.07138L5.07454 0.858465L5.54023 0.668946L6.02222 0.50302L6.51961 0.360802L7.03145 0.242328L7.55673 0.147555L8.09445 0.0763542L8.64354 0.0285221L9.20293 0.00377535L9.77154 0.00175603L10.3483 0.0220336L10.932 0.0641084L11.5217 0.127415L12.1162 0.211327L12.7144 0.315159L13.3154 0.438176L13.918 0.57959L14.5212 0.738576L15.1242 0.914265L15.7258 1.10576L16.3253 1.31213L16.9218 1.53243L17.5144 1.76569L18.1024 2.01093L18.6851 2.26716L19.2617 2.53338L19.8317 2.8086L20.3945 3.09184L20.9495 3.38211L21.4964 3.67845L22.0347 3.97989L22.5639 4.2855L23.0839 4.59436L23.5943 4.90558L24.0949 5.21829L24.5855 5.53163L25.066 5.84479L25.5363 6.15698L25.9963 6.46743L26.4461 6.77541L26.8857 7.08021L27.315 7.38116L27.7343 7.6776L28.1436 7.96891L28.5431 8.25451L28.9329 8.53381L29.3133 8.80629L29.6845 9.07141L30.0467 9.32868L30.4002 9.57762L30.7453 9.81778L31.0823 10.0487L31.4115 10.27L31.7333 10.4812L32.0479 10.682L32.3559 10.8719L32.6575 11.0505L32.9531 11.2175L33.2432 11.3725L33.5282 11.5151L33.8085 11.645L34.0845 11.7616L34.3567 11.8647L34.6256 11.9539L34.8917 12.0286L35.1554 12.0885L35.4174 12.133L35.678 12.1618L35.9379 12.1742L36.1977 12.1698L36.4579 12.1488L36.7192 12.1117L36.982 12.0591L37.2469 11.9914L37.5143 11.9091L37.7849 11.8126L38.0591 11.7024L38.3373 11.5788L38.6199 11.4422L38.9075 11.2931L39.2005 11.1318L39.4992 10.9586L39.8041 10.7741L40.1155 10.5785L40.4338 10.3722L40.7594 10.1557L41.0927 9.9293L41.4338 9.6935L41.7833 9.44869L42.1413 9.19534L42.5082 8.93391L42.8841 8.66489L43.2694 8.38878L43.6643 8.10612L44.0689 7.81746L44.4833 7.5234L44.9079 7.22452L45.3425 6.92148L45.7874 6.61493L46.2426 6.30557L46.708 5.99412L47.1836 5.68133L47.6694 5.36797L48.1653 5.05486L48.671 4.74282L49.1864 4.43272L49.7113 4.12544L50.2453 3.82189L50.788 3.523L51.3392 3.22972L51.8984 2.943L52.465 2.66382L53.0386 2.39317L53.6184 2.13204L54.204 1.88143L54.7945 1.64233L55.3892 1.41571L55.9873 1.20257L56.5881 1.00385L57.1905 0.82049L57.7937 0.653413L58.3968 0.503498L58.9987 0.37159L59.5983 0.258497L60.1947 0.164978L60.7869 0.0917445L61.3736 0.0394508L61.9538 0.0086921L62.5264 0L63.0903 0.0138385L63.6445 0.0506005L64.1878 0.110605L64.7191 0.194095L65.2375 0.301234L65.7419 0.432107L66.2314 0.586715L66.705 0.764981L67.1618 0.966746L67.6011 1.19177L68.0219 1.43973L68.4237 1.71023L68.8057 2.0028L69.1675 2.3169L69.5083 2.65192L69.8279 3.00717L70.1259 3.38192L70.4019 3.77538L70.6557 4.1867L70.8873 4.615L71.0965 5.05934L71.2834 5.51877L71.448 5.99228L71.5904 6.47886L71.7111 6.97749L71.8101 7.4871L71.888 8.00666L71.945 8.53511L71.9817 9.0714L71.9987 9.6145L71.9964 10.1634L71.9755 10.717L71.9367 11.2744L71.8807 11.8347L71.8082 12.3968L71.7199 12.96L71.6167 13.5233L71.4993 14.0859L71.3685 14.6471L71.2252 15.206L71.0702 15.7621L70.9042 16.3146L70.7282 16.8629L70.543 17.4064L70.3493 17.9447L70.148 18.4772L69.9399 19.0036L69.7257 19.5233L69.5062 20.0361L69.2821 20.5417L69.0541 21.0397L68.823 21.53L68.5894 22.0124L68.3539 22.4866L68.1173 22.9526L67.88 23.4102L67.6426 23.8594L67.4058 24.3002L67.17 24.7326L66.9357 25.1565L66.7034 25.572L66.4735 25.9793L66.2465 26.3782L66.0227 26.7691L65.8025 27.1519L65.5863 27.5269L65.3745 27.8942L65.1672 28.2539L64.9648 28.6062L64.7676 28.9513L64.5758 29.2895L64.3896 29.6209L64.2093 29.9458L64.0351 30.2643L63.8671 30.5767L63.7055 30.8833L63.5505 31.1843L63.4021 31.4799L63.2606 31.7704L63.126 32.056L62.9985 32.3371L62.8782 32.6138L62.7651 32.8864L62.6593 33.1552L62.5609 33.4204L62.4699 33.6824L62.3865 33.9413L62.3107 34.1975L62.2424 34.4511L62.1818 34.7026L62.1289 34.9521L62.0837 35.1999L62.0462 35.4462L62.0165 35.6915L61.9946 35.9358L61.9804 36.1795L61.974 36.4229L61.9736 36.5003Z" fill="#4EABA7"/>
</svg>
