<svg width="787" height="386" viewBox="0 0 787 386" fill="none" xmlns="http://www.w3.org/2000/svg">
<path d="M783.645 385.038C783.626 385.174 783.597 385.309 783.558 385.444L771.097 385.415L577.689 384.807L450.064 384.43L446.181 384.401H437.198L320.44 384.024L134.856 383.445L100.69 383.358L91.5902 383.329H88.4315L87.9098 383.3H86.8666L51.4249 383.213L41.5429 383.184H40.4707L34.7038 383.155L30.7337 383.126H28.9949C28.9949 383.126 28.9176 383.01 28.7631 382.778C28.7244 382.682 28.6665 382.576 28.5892 382.46C28.4926 382.286 28.3863 382.093 28.2704 381.88C28.2125 381.803 28.1642 381.716 28.1255 381.619C27.9516 381.31 27.7488 380.963 27.517 380.576C27.2658 380.093 26.976 379.543 26.6476 378.925C25.4304 376.636 23.8076 373.448 21.9529 369.508C21.354 368.214 20.7261 366.833 20.0693 365.364C19.8181 364.785 19.5573 364.196 19.2868 363.597C19.0357 362.998 18.7845 362.399 18.5334 361.801C18.5334 361.781 18.5237 361.762 18.5044 361.743C18.3305 361.318 18.1566 360.893 17.9828 360.468C17.7896 360.023 17.606 359.569 17.4322 359.106C16.4758 356.788 15.4905 354.296 14.5342 351.688C14.4956 351.611 14.4666 351.543 14.4473 351.485C13.8097 349.766 13.1818 347.999 12.5636 346.183C12.2159 345.179 11.8778 344.155 11.5493 343.112C11.53 343.054 11.5011 342.996 11.4624 342.938C11.3272 342.474 11.1823 342.011 11.0277 341.547C10.9118 341.161 10.7862 340.774 10.651 340.388C10.3998 339.577 10.1487 338.756 9.89753 337.925C9.5691 336.863 9.25032 335.791 8.94121 334.709C8.51618 333.222 8.10081 331.715 7.6951 330.189C7.57919 329.725 7.46326 329.262 7.34735 328.798C6.98028 327.427 6.62287 326.026 6.27512 324.597C6.17852 324.152 6.07226 323.698 5.95634 323.235C5.89839 322.945 5.83076 322.665 5.75349 322.395C5.25118 320.154 4.76819 317.865 4.30452 315.528C3.80222 312.958 3.34821 310.351 2.9425 307.704C2.55611 305.251 2.21801 302.759 1.92822 300.229C1.63843 297.853 1.39693 295.438 1.20374 292.985C0.740069 287.277 0.537214 281.424 0.624152 275.455C0.769049 265.053 1.87026 254.332 4.21759 243.467C4.29486 243.061 4.37214 242.665 4.44942 242.279C5.02901 239.69 5.68587 237.102 6.42001 234.514C6.98028 232.543 7.57918 230.563 8.21673 228.574C8.6804 227.144 9.16338 225.705 9.66569 224.256C10.8442 221.011 12.1483 217.766 13.5779 214.521C13.9643 213.613 14.37 212.715 14.795 211.826C22.5615 195.05 34.0083 178.447 50.2947 162.743C50.6038 162.453 50.9129 162.163 51.222 161.873C59.3073 154.166 67.3055 147.444 75.1879 141.591C75.4777 141.378 75.7578 141.166 76.0283 140.953C162.59 77.5273 235.733 120.555 274.537 118.179C282.187 117.716 288.881 114.673 295.489 109.892C307.573 101.084 319.252 86.3067 335.567 70.4864C359.997 46.727 394.83 20.5626 456.874 8.3062C533.67 -6.81872 639.154 -2.58838 684.797 42.9313C712.385 70.4575 718.094 113.08 682.305 175.637C680.121 179.442 677.793 183.315 675.32 187.255C673.234 190.578 671.408 193.755 669.843 196.788C665.902 204.38 663.555 211.073 662.57 217.071C660.222 231.413 665.641 241.583 675.349 249.928C677.987 252.188 680.943 254.332 684.13 256.361C684.343 256.496 684.546 256.631 684.739 256.766C696.099 263.952 710.443 270.095 724.759 277.339C732.671 281.337 740.553 285.625 747.914 290.638C754.753 295.274 761.157 300.461 766.692 306.545C770.286 310.515 773.531 314.861 776.284 319.613C776.439 319.883 776.594 320.154 776.748 320.424C780.313 326.799 783.037 333.927 784.659 342.011C784.737 342.436 784.814 342.851 784.891 343.257C787.036 355.02 786.891 368.755 783.645 385.038Z" fill="#EBF3FA"/>
<path d="M682.304 175.636L127.669 271.486L146.361 236.397L684.797 42.9313C712.385 70.4575 718.094 113.08 682.304 175.636Z" fill="#F8FBFF"/>
<path d="M520.281 35.7165L295.489 109.892C307.573 101.084 319.252 86.3068 335.567 70.4864L520.281 35.7165Z" fill="#F8FBFF"/>
<path d="M513.355 60.4611C507.878 60.4611 503.473 64.8942 503.473 70.3415C503.473 75.7888 507.878 80.222 513.355 80.222C518.803 80.222 523.237 75.7888 523.237 70.3415C523.237 64.8942 518.803 60.4611 513.355 60.4611Z" fill="#F8FBFF"/>
<path d="M337.306 97.1724V346.734H388.657V97.1724H337.306Z" fill="#C4D9ED"/>
<path d="M348.839 97.1724V346.734H400.162V97.1724H348.839Z" fill="#D5E7F7"/>
<path d="M348.868 111.515H400.162V97.0854H348.868V111.515Z" fill="#C4D9ED"/>
<path d="M348.868 142.808H400.162V128.378H348.868V142.808Z" fill="#C4D9ED"/>
<path d="M348.868 174.072H400.162V159.642H348.868V174.072Z" fill="#C4D9ED"/>
<path d="M348.868 190.935V205.336H400.162V190.935H348.868Z" fill="#C4D9ED"/>
<path d="M348.868 222.199V236.629H400.162V222.199H348.868Z" fill="#C4D9ED"/>
<path d="M348.868 253.492V267.893H400.162V253.492H348.868Z" fill="#C4D9ED"/>
<path d="M348.868 284.756V299.186H400.162V284.756H348.868Z" fill="#C4D9ED"/>
<path d="M348.868 330.45H400.162V316.049H348.868V330.45Z" fill="#C4D9ED"/>
<path d="M419.375 132.464V346.734H470.698V132.464H419.375Z" fill="#C4D9ED"/>
<path d="M430.909 132.464V346.734H482.231V132.464H430.909Z" fill="#D5E7F7"/>
<path d="M430.909 132.406V144.807H482.231V132.406H430.909Z" fill="#C4D9ED"/>
<path d="M430.909 159.266V171.638H482.231V159.266H430.909Z" fill="#C4D9ED"/>
<path d="M430.909 186.125V198.498H482.231V186.125H430.909Z" fill="#C4D9ED"/>
<path d="M430.909 212.985V225.358H482.231V212.985H430.909Z" fill="#C4D9ED"/>
<path d="M430.909 239.816V252.217H482.231V239.816H430.909Z" fill="#C4D9ED"/>
<path d="M430.909 266.676V279.048H482.231V266.676H430.909Z" fill="#C4D9ED"/>
<path d="M430.909 293.536V305.908H482.231V293.536H430.909Z" fill="#C4D9ED"/>
<path d="M430.909 332.768H482.231V320.366H430.909V332.768Z" fill="#C4D9ED"/>
<path d="M309.543 370.406H331.046V339.084H309.543V370.406Z" fill="#DCEAF9"/>
<path d="M316.093 296.317V383.329H88.4312L86.8664 383.3L28.7628 382.778C28.7242 382.682 28.6662 382.576 28.5889 382.46C28.4923 382.286 28.3861 382.093 28.2702 381.88C28.2122 381.803 28.1639 381.716 28.1253 381.619C27.9514 381.31 27.7485 380.963 27.5167 380.576C27.2656 380.093 26.9758 379.543 26.6473 378.925C25.4302 376.636 23.8074 373.448 21.9527 369.508C21.3538 368.214 20.7259 366.833 20.069 365.364C19.8179 364.785 19.5571 364.196 19.2866 363.597C19.0354 362.998 18.7843 362.399 18.5331 361.801C18.5331 361.781 18.5235 361.762 18.5041 361.743C18.3303 361.318 18.1564 360.893 17.9825 360.468C17.7893 360.023 17.6058 359.569 17.4319 359.106C16.4756 356.788 15.4903 354.296 14.534 351.688C14.4953 351.611 14.4664 351.543 14.447 351.485C13.8095 349.766 13.1816 347.999 12.5634 346.183C12.2156 345.179 11.8775 344.155 11.5491 343.112C11.5298 343.054 11.5008 342.996 11.4622 342.938C11.3269 342.474 11.182 342.011 11.0275 341.547C10.9116 341.161 10.786 340.774 10.6508 340.388C10.3996 339.577 10.1484 338.756 9.89729 337.925C9.56886 336.863 9.25008 335.791 8.94097 334.709C8.51594 333.222 8.10057 331.715 7.69486 330.189C7.57894 329.725 7.46302 329.262 7.3471 328.798C6.98003 327.427 6.62263 326.026 6.27487 324.597C6.17828 324.152 6.07202 323.698 5.9561 323.235C5.89814 322.945 5.83052 322.665 5.75324 322.395C5.25093 320.154 4.76795 317.865 4.30428 315.528C3.80197 312.958 3.34796 310.351 2.94225 307.704C2.55586 305.251 2.21777 302.759 1.92798 300.229C1.63818 297.853 1.39669 295.438 1.20349 292.985C0.739825 287.277 0.53697 281.424 0.623908 275.455C0.768805 265.053 1.87002 254.332 4.21734 243.467C4.29462 243.061 4.3719 242.665 4.44918 242.279C5.02876 239.69 5.68563 237.102 6.41977 234.514C6.98004 232.543 7.57894 230.563 8.21648 228.574C8.68015 227.144 9.16314 225.705 9.66545 224.256C10.8439 221.011 12.148 217.766 13.5777 214.521L14.7948 211.826C22.5612 195.05 34.0081 178.447 50.2945 162.743C50.6036 162.453 50.9127 162.163 51.2218 161.873H52.1781V195.166H81.6211V140.925H114.136V176.129H121.555V134.115H154.04V212.898H195.162V258.853H210.521V270.443H245.789V250.508H266.045V196.325H291.084V296.317H316.093Z" fill="#D5E7F7"/>
<path d="M121.555 147.444H154.069V139.418H121.555V147.444Z" fill="#C4D9ED"/>
<path d="M121.555 162.54H154.069V154.514H121.555V162.54Z" fill="#C4D9ED"/>
<path d="M121.555 176.1H154.069V168.074H121.555V176.1Z" fill="#C4D9ED"/>
<path d="M81.6211 176.1H114.165V168.074H81.6211V176.1Z" fill="#C4D9ED"/>
<path d="M81.6211 162.54H114.165V154.514H81.6211V162.54Z" fill="#C4D9ED"/>
<path d="M81.6211 148.98H114.165V140.953H81.6211V148.98Z" fill="#C4D9ED"/>
<path d="M81.6211 189.255H154.069V181.229H81.6211V189.255Z" fill="#C4D9ED"/>
<path d="M81.6211 202.409H154.069V194.383H81.6211V202.409Z" fill="#C4D9ED"/>
<path d="M265.814 208.726H291.055V196.325H265.814V208.726Z" fill="#C4D9ED"/>
<path d="M265.814 227.154H291.055V214.753H265.814V227.154Z" fill="#C4D9ED"/>
<path d="M265.814 245.582H291.055V233.21H265.814V245.582Z" fill="#C4D9ED"/>
<path d="M265.814 264.908H291.055V252.507H265.814V264.908Z" fill="#C4D9ED"/>
<path d="M265.814 283.626H291.055V271.225H265.814V283.626Z" fill="#C4D9ED"/>
<path d="M265.814 302.344H291.055V289.972H265.814V302.344Z" fill="#C4D9ED"/>
<path d="M265.814 321.931H291.055V309.559H265.814V321.931Z" fill="#C4D9ED"/>
<path d="M81.6211 212.348H154.069V207.248H81.6211V212.348Z" fill="#C4D9ED"/>
<path d="M266.19 196.325V250.508H256.859V196.325H266.19Z" fill="#C4D9ED"/>
<path d="M245.789 250.508H227.068V270.443H245.789V250.508Z" fill="#C4D9ED"/>
<path d="M81.6211 140.953V148.98V181.229V189.255V195.166H75.1877V141.591C75.4775 141.378 75.7577 141.166 76.0281 140.953H81.6211Z" fill="#C4D9ED"/>
<path d="M121.555 134.115H117.584V176.1H121.555V134.115Z" fill="#C4D9ED"/>
<g opacity="0.8">
<path d="M182.933 228.574H188.439V220.808H182.933V228.574Z" fill="#C4D9ED"/>
<path d="M172.616 228.574H178.122V220.808H172.616V228.574Z" fill="#C4D9ED"/>
<path d="M162.56 228.574H168.066V220.808H162.56V228.574Z" fill="#C4D9ED"/>
<path d="M152.997 228.574H158.503V220.808H152.997V228.574Z" fill="#C4D9ED"/>
<path d="M143.26 228.574H148.766V220.808H143.26V228.574Z" fill="#C4D9ED"/>
<path d="M133.407 228.574H138.942V220.808H133.407V228.574Z" fill="#C4D9ED"/>
<path d="M123.119 228.574H128.625V220.808H123.119V228.574Z" fill="#C4D9ED"/>
<path d="M113.035 228.574H118.541V220.808H113.035V228.574Z" fill="#C4D9ED"/>
<path d="M103.5 228.574H109.007V220.808H103.5V228.574Z" fill="#C4D9ED"/>
<path d="M93.7634 228.574H99.2695V220.808H93.7634V228.574Z" fill="#C4D9ED"/>
<path d="M83.6208 228.574H89.1269V220.808H83.6208V228.574Z" fill="#C4D9ED"/>
<path d="M73.3042 228.574H78.8103V220.808H73.3042V228.574Z" fill="#C4D9ED"/>
<path d="M63.2192 228.574H68.7543V220.808H63.2192V228.574Z" fill="#C4D9ED"/>
<path d="M53.6851 228.574H59.1911V220.808H53.6851V228.574Z" fill="#C4D9ED"/>
<path d="M43.9482 228.574H49.4543V220.808H43.9482V228.574Z" fill="#C4D9ED"/>
<path d="M34.095 228.574H39.601V220.808H34.095V228.574Z" fill="#C4D9ED"/>
<path d="M23.8076 228.574H29.3137V220.808H23.8076V228.574Z" fill="#C4D9ED"/>
<path d="M13.7227 228.574H19.2287V220.808H13.7227V228.574Z" fill="#C4D9ED"/>
<path d="M9.66552 224.256V228.574H8.21655C8.68022 227.144 9.16321 225.705 9.66552 224.256Z" fill="#C4D9ED"/>
<path d="M182.933 242.279H188.439V234.514H182.933V242.279Z" fill="#C4D9ED"/>
<path d="M172.616 242.279H178.122V234.514H172.616V242.279Z" fill="#C4D9ED"/>
<path d="M162.56 242.279H168.066V234.514H162.56V242.279Z" fill="#C4D9ED"/>
<path d="M152.997 242.279H158.503V234.514H152.997V242.279Z" fill="#C4D9ED"/>
<path d="M143.26 242.279H148.766V234.514H143.26V242.279Z" fill="#C4D9ED"/>
<path d="M133.407 242.279H138.942V234.514H133.407V242.279Z" fill="#C4D9ED"/>
<path d="M123.119 242.279H128.625V234.514H123.119V242.279Z" fill="#C4D9ED"/>
<path d="M113.035 242.279H118.541V234.514H113.035V242.279Z" fill="#C4D9ED"/>
<path d="M103.5 242.279H109.007V234.514H103.5V242.279Z" fill="#C4D9ED"/>
<path d="M93.7634 242.279H99.2695V234.514H93.7634V242.279Z" fill="#C4D9ED"/>
<path d="M83.6208 242.279H89.1269V234.514H83.6208V242.279Z" fill="#C4D9ED"/>
<path d="M73.3042 242.279H78.8103V234.514H73.3042V242.279Z" fill="#C4D9ED"/>
<path d="M63.2192 242.279H68.7543V234.514H63.2192V242.279Z" fill="#C4D9ED"/>
<path d="M53.6851 242.279H59.1911V234.514H53.6851V242.279Z" fill="#C4D9ED"/>
<path d="M43.9482 242.279H49.4543V234.514H43.9482V242.279Z" fill="#C4D9ED"/>
<path d="M34.095 242.279H39.601V234.514H34.095V242.279Z" fill="#C4D9ED"/>
<path d="M23.8076 242.279H29.3137V234.514H23.8076V242.279Z" fill="#C4D9ED"/>
<path d="M13.7227 242.279H19.2287V234.514H13.7227V242.279Z" fill="#C4D9ED"/>
<path d="M9.66573 234.514V242.279H4.44946C5.02905 239.69 5.68591 237.102 6.42006 234.514H9.66573Z" fill="#C4D9ED"/>
<path d="M182.933 255.781H188.439V248.016H182.933V255.781Z" fill="#C4D9ED"/>
<path d="M172.616 255.781H178.122V248.016H172.616V255.781Z" fill="#C4D9ED"/>
<path d="M162.56 255.781H168.066V248.016H162.56V255.781Z" fill="#C4D9ED"/>
<path d="M152.997 255.781H158.503V248.016H152.997V255.781Z" fill="#C4D9ED"/>
<path d="M143.26 255.781H148.766V248.016H143.26V255.781Z" fill="#C4D9ED"/>
<path d="M133.407 255.781H138.942V248.016H133.407V255.781Z" fill="#C4D9ED"/>
<path d="M123.119 255.781H128.625V248.016H123.119V255.781Z" fill="#C4D9ED"/>
<path d="M113.035 255.781H118.541V248.016H113.035V255.781Z" fill="#C4D9ED"/>
<path d="M103.5 255.781H109.007V248.016H103.5V255.781Z" fill="#C4D9ED"/>
<path d="M93.7634 255.781H99.2695V248.016H93.7634V255.781Z" fill="#C4D9ED"/>
<path d="M83.6206 255.781H89.1267V248.016H83.6206V255.781Z" fill="#C4D9ED"/>
<path d="M73.304 255.781H78.81V248.016H73.304V255.781Z" fill="#C4D9ED"/>
<path d="M63.219 255.781H68.754V248.016H63.219V255.781Z" fill="#C4D9ED"/>
<path d="M53.6848 255.781H59.1909V248.016H53.6848V255.781Z" fill="#C4D9ED"/>
<path d="M43.948 255.781H49.4541V248.016H43.948V255.781Z" fill="#C4D9ED"/>
<path d="M34.095 255.781H39.601V248.016H34.095V255.781Z" fill="#C4D9ED"/>
<path d="M23.8076 255.781H29.3137V248.016H23.8076V255.781Z" fill="#C4D9ED"/>
<path d="M13.7227 255.781H19.2287V248.016H13.7227V255.781Z" fill="#C4D9ED"/>
<path d="M4.15942 255.781H9.66549V248.016H4.15942V255.781Z" fill="#C4D9ED"/>
<path d="M182.933 270.124H188.439V262.359H182.933V270.124Z" fill="#C4D9ED"/>
<path d="M172.616 270.124H178.122V262.359H172.616V270.124Z" fill="#C4D9ED"/>
<path d="M162.56 270.124H168.066V262.359H162.56V270.124Z" fill="#C4D9ED"/>
<path d="M152.997 270.124H158.503V262.359H152.997V270.124Z" fill="#C4D9ED"/>
<path d="M143.26 270.124H148.766V262.359H143.26V270.124Z" fill="#C4D9ED"/>
<path d="M133.407 270.124H138.942V262.359H133.407V270.124Z" fill="#C4D9ED"/>
<path d="M123.119 270.124H128.625V262.359H123.119V270.124Z" fill="#C4D9ED"/>
<path d="M113.035 270.124H118.541V262.359H113.035V270.124Z" fill="#C4D9ED"/>
<path d="M103.5 270.124H109.007V262.359H103.5V270.124Z" fill="#C4D9ED"/>
<path d="M93.7634 270.124H99.2695V262.359H93.7634V270.124Z" fill="#C4D9ED"/>
<path d="M83.6206 270.124H89.1267V262.359H83.6206V270.124Z" fill="#C4D9ED"/>
<path d="M73.304 270.124H78.81V262.359H73.304V270.124Z" fill="#C4D9ED"/>
<path d="M63.219 270.124H68.754V262.359H63.219V270.124Z" fill="#C4D9ED"/>
<path d="M53.6848 270.124H59.1909V262.359H53.6848V270.124Z" fill="#C4D9ED"/>
<path d="M43.948 270.124H49.4541V262.359H43.948V270.124Z" fill="#C4D9ED"/>
<path d="M34.095 270.124H39.601V262.359H34.095V270.124Z" fill="#C4D9ED"/>
<path d="M23.8076 270.124H29.3137V262.359H23.8076V270.124Z" fill="#C4D9ED"/>
<path d="M13.7227 270.124H19.2287V262.359H13.7227V270.124Z" fill="#C4D9ED"/>
<path d="M4.15942 270.124H9.66549V262.359H4.15942V270.124Z" fill="#C4D9ED"/>
<path d="M182.933 283.8H188.439V276.035H182.933V283.8Z" fill="#C4D9ED"/>
<path d="M172.616 283.8H178.122V276.035H172.616V283.8Z" fill="#C4D9ED"/>
<path d="M162.56 283.8H168.066V276.035H162.56V283.8Z" fill="#C4D9ED"/>
<path d="M152.997 283.8H158.503V276.035H152.997V283.8Z" fill="#C4D9ED"/>
<path d="M143.26 283.8H148.766V276.035H143.26V283.8Z" fill="#C4D9ED"/>
<path d="M133.407 283.8H138.942V276.035H133.407V283.8Z" fill="#C4D9ED"/>
<path d="M123.119 283.8H128.625V276.035H123.119V283.8Z" fill="#C4D9ED"/>
<path d="M113.035 283.8H118.541V276.035H113.035V283.8Z" fill="#C4D9ED"/>
<path d="M103.5 283.8H109.007V276.035H103.5V283.8Z" fill="#C4D9ED"/>
<path d="M93.7634 283.8H99.2695V276.035H93.7634V283.8Z" fill="#C4D9ED"/>
<path d="M83.6206 283.8H89.1267V276.035H83.6206V283.8Z" fill="#C4D9ED"/>
<path d="M73.304 283.8H78.81V276.035H73.304V283.8Z" fill="#C4D9ED"/>
<path d="M63.219 283.8H68.754V276.035H63.219V283.8Z" fill="#C4D9ED"/>
<path d="M53.6848 283.8H59.1909V276.035H53.6848V283.8Z" fill="#C4D9ED"/>
<path d="M43.948 283.8H49.4541V276.035H43.948V283.8Z" fill="#C4D9ED"/>
<path d="M34.095 283.8H39.601V276.035H34.095V283.8Z" fill="#C4D9ED"/>
<path d="M23.8076 283.8H29.3137V276.035H23.8076V283.8Z" fill="#C4D9ED"/>
<path d="M13.7227 283.8H19.2287V276.035H13.7227V283.8Z" fill="#C4D9ED"/>
<path d="M4.15942 283.8H9.66549V276.035H4.15942V283.8Z" fill="#C4D9ED"/>
<path d="M182.933 297.302H188.439V289.537H182.933V297.302Z" fill="#C4D9ED"/>
<path d="M172.616 297.302H178.122V289.537H172.616V297.302Z" fill="#C4D9ED"/>
<path d="M162.56 297.302H168.066V289.537H162.56V297.302Z" fill="#C4D9ED"/>
<path d="M152.997 297.302H158.503V289.537H152.997V297.302Z" fill="#C4D9ED"/>
<path d="M143.26 297.302H148.766V289.537H143.26V297.302Z" fill="#C4D9ED"/>
<path d="M133.407 297.302H138.942V289.537H133.407V297.302Z" fill="#C4D9ED"/>
<path d="M123.119 297.302H128.625V289.537H123.119V297.302Z" fill="#C4D9ED"/>
<path d="M113.035 297.302H118.541V289.537H113.035V297.302Z" fill="#C4D9ED"/>
<path d="M103.5 297.302H109.007V289.537H103.5V297.302Z" fill="#C4D9ED"/>
<path d="M93.7634 297.302H99.2695V289.537H93.7634V297.302Z" fill="#C4D9ED"/>
<path d="M83.6206 297.302H89.1267V289.537H83.6206V297.302Z" fill="#C4D9ED"/>
<path d="M73.304 297.302H78.81V289.537H73.304V297.302Z" fill="#C4D9ED"/>
<path d="M63.219 297.302H68.754V289.537H63.219V297.302Z" fill="#C4D9ED"/>
<path d="M53.6848 297.302H59.1909V289.537H53.6848V297.302Z" fill="#C4D9ED"/>
<path d="M43.948 297.302H49.4541V289.537H43.948V297.302Z" fill="#C4D9ED"/>
<path d="M34.095 297.302H39.601V289.537H34.095V297.302Z" fill="#C4D9ED"/>
<path d="M23.8076 297.302H29.3137V289.537H23.8076V297.302Z" fill="#C4D9ED"/>
<path d="M13.7227 297.302H19.2287V289.537H13.7227V297.302Z" fill="#C4D9ED"/>
<path d="M4.15942 297.302H9.66549V289.537H4.15942V297.302Z" fill="#C4D9ED"/>
</g>
<path d="M99.3567 382.749H227.069V313.876H99.3567V382.749Z" fill="#C4D9ED"/>
<path d="M196.206 382.749H323.917V348.327H196.206V382.749Z" fill="#C4D9ED"/>
<path d="M89.1268 324.597V382.778H28.7629C28.7242 382.682 28.6663 382.576 28.589 382.46C28.4924 382.286 28.3861 382.093 28.2702 381.88C28.2122 381.803 28.1639 381.716 28.1253 381.619C27.9514 381.31 27.7486 380.963 27.5167 380.576C27.2656 380.093 26.9758 379.543 26.6474 378.925C25.4302 376.636 23.8074 373.448 21.9527 369.508C21.3538 368.214 20.7259 366.832 20.0691 365.364C19.8179 364.785 19.5571 364.196 19.2866 363.597C19.0355 362.998 18.7843 362.399 18.5331 361.8C18.5331 361.781 18.5235 361.762 18.5042 361.743C18.3303 361.318 18.1564 360.893 17.9825 360.468C17.7893 360.023 17.6058 359.569 17.4319 359.106C16.4756 356.788 15.4903 354.296 14.534 351.688C14.4954 351.611 14.4664 351.543 14.4471 351.485C13.8095 349.766 13.1816 347.999 12.5634 346.183C12.2157 345.179 11.8776 344.155 11.5491 343.112C11.5298 343.054 11.5008 342.996 11.4622 342.938C11.327 342.474 11.1821 342.011 11.0275 341.547C10.9116 341.161 10.786 340.774 10.6508 340.388C10.3996 339.577 10.1485 338.756 9.89732 337.925C9.56888 336.863 9.25011 335.791 8.94099 334.709C8.51596 333.222 8.1006 331.715 7.69489 330.189C7.57897 329.725 7.46305 329.262 7.34713 328.798C6.98006 327.427 6.62265 326.026 6.2749 324.597H89.1268Z" fill="#C4D9ED"/>
<path d="M194.757 334.709H218.549V321.931H194.757V334.709Z" fill="#D5E7F7"/>
<path d="M164.212 334.709H188.004V321.931H164.212V334.709Z" fill="#D5E7F7"/>
<path d="M134.248 334.709H158.04V321.931H134.248V334.709Z" fill="#D5E7F7"/>
<path d="M104.863 334.709H128.655V321.931H104.863V334.709Z" fill="#D5E7F7"/>
<path d="M88.4314 383.358H100.69V313.876H88.4314V383.358Z" fill="#ADC9E0"/>
<path d="M285.375 196.325H286.042V190.935H285.375V196.325Z" fill="#DCEAF9"/>
<path d="M261.525 196.325H262.192V190.935H261.525V196.325Z" fill="#DCEAF9"/>
<path d="M1.92822 300.229C2.21802 302.759 2.55611 305.251 2.9425 307.704C3.34821 310.351 3.80222 312.958 4.30453 315.528C4.76819 317.865 5.25118 320.154 5.75349 322.395C5.83077 322.665 5.89839 322.945 5.95635 323.235C6.07226 323.698 6.17852 324.152 6.27512 324.597C6.62287 326.026 6.98028 327.427 7.34735 328.798C7.46327 329.262 7.57919 329.725 7.69511 330.189C8.10082 331.715 8.51618 333.222 8.94121 334.709C9.25032 335.791 9.5691 336.863 9.89753 337.925C10.1487 338.756 10.3998 339.577 10.651 340.388C10.7862 340.774 10.9118 341.161 11.0277 341.547C11.1823 342.011 11.3272 342.474 11.4624 342.938C11.5011 342.996 11.53 343.054 11.5494 343.112C11.8778 344.155 12.2159 345.179 12.5636 346.183C13.1819 347.999 13.8097 349.766 14.4473 351.485C14.4666 351.543 14.4956 351.611 14.5342 351.688C15.4905 354.296 16.4758 356.788 17.4322 359.106C17.606 359.569 17.7896 360.023 17.9828 360.468C18.1566 360.893 18.3305 361.318 18.5044 361.743C18.5237 361.762 18.5334 361.781 18.5334 361.801V300.229H1.92822Z" fill="#D5E7F7"/>
<path d="M18.5333 323.235V361.8C18.5333 361.781 18.5237 361.762 18.5043 361.743C18.3305 361.318 18.1566 360.893 17.9827 360.468C17.7895 360.023 17.606 359.569 17.4321 359.106C16.4758 356.788 15.4905 354.296 14.5342 351.688C14.4955 351.611 14.4666 351.543 14.4472 351.485C13.8097 349.766 13.1818 347.999 12.5636 346.183C12.2158 345.179 11.8777 344.155 11.5493 343.112C11.53 343.054 11.501 342.996 11.4624 342.938C11.3271 342.474 11.1822 342.011 11.0277 341.547C10.9118 341.161 10.7862 340.774 10.651 340.388C10.3998 339.577 10.1486 338.756 9.89749 337.925C9.56906 336.863 9.25028 335.791 8.94116 334.709C8.51613 333.222 8.10077 331.715 7.69506 330.189C7.57914 329.725 7.46322 329.262 7.3473 328.798C6.98023 327.427 6.62282 326.026 6.27507 324.597C6.17848 324.152 6.07222 323.698 5.9563 323.235H18.5333Z" fill="#D5E7F7"/>
<path d="M18.5333 315.528V334.709H8.94113C8.5161 333.222 8.10073 331.715 7.69502 330.189C7.5791 329.725 7.46318 329.262 7.34727 328.798C6.9802 327.427 6.62279 326.026 6.27504 324.597C6.17844 324.152 6.07218 323.698 5.95626 323.235C5.8983 322.945 5.83068 322.665 5.7534 322.395C5.2511 320.154 4.76811 317.865 4.30444 315.528H18.5333Z" fill="#C4D9ED"/>
<path d="M12.5635 340.388V346.183C12.2158 345.179 11.8777 344.155 11.5492 343.112C11.5299 343.054 11.5009 342.996 11.4623 342.938C11.3271 342.474 11.1822 342.011 11.0276 341.547C10.9117 341.161 10.7861 340.774 10.6509 340.388H12.5635Z" fill="#C4D9ED"/>
<path d="M8.07178 327.465H11.8391V320.917H8.07178V327.465Z" fill="#ADC9E0"/>
<path d="M387.44 382.199H299.749V323.235H387.44V382.199Z" fill="#D5E7F7"/>
<path d="M387.44 334.709H299.749V315.528H387.44V334.709Z" fill="#C4D9ED"/>
<path d="M376.978 346.734H381.47V340.388H376.978V346.734Z" fill="#C4D9ED"/>
<path d="M368.545 346.734H373.037V340.388H368.545V346.734Z" fill="#C4D9ED"/>
<path d="M360.315 346.734H364.807V340.388H360.315V346.734Z" fill="#C4D9ED"/>
<path d="M352.491 346.734H357.012V340.388H352.491V346.734Z" fill="#C4D9ED"/>
<path d="M344.551 346.734H349.042V340.388H344.551V346.734Z" fill="#C4D9ED"/>
<path d="M336.494 346.734H341.015V340.388H336.494V346.734Z" fill="#C4D9ED"/>
<path d="M328.09 346.734H332.582V340.388H328.09V346.734Z" fill="#C4D9ED"/>
<path d="M319.831 346.734H324.352V340.388H319.831V346.734Z" fill="#C4D9ED"/>
<path d="M312.036 346.734H316.528V340.388H312.036V346.734Z" fill="#C4D9ED"/>
<path d="M304.095 346.734H308.587V340.388H304.095V346.734Z" fill="#C4D9ED"/>
<path d="M376.978 357.918H381.47V351.572H376.978V357.918Z" fill="#C4D9ED"/>
<path d="M368.545 357.918H373.037V351.572H368.545V357.918Z" fill="#C4D9ED"/>
<path d="M360.315 357.918H364.807V351.572H360.315V357.918Z" fill="#C4D9ED"/>
<path d="M352.491 357.918H357.012V351.572H352.491V357.918Z" fill="#C4D9ED"/>
<path d="M344.551 357.918H349.042V351.572H344.551V357.918Z" fill="#C4D9ED"/>
<path d="M336.494 357.918H341.015V351.572H336.494V357.918Z" fill="#C4D9ED"/>
<path d="M328.09 357.918H332.582V351.572H328.09V357.918Z" fill="#C4D9ED"/>
<path d="M319.831 357.918H324.352V351.572H319.831V357.918Z" fill="#C4D9ED"/>
<path d="M312.036 357.918H316.528V351.572H312.036V357.918Z" fill="#C4D9ED"/>
<path d="M304.095 357.918H308.587V351.572H304.095V357.918Z" fill="#C4D9ED"/>
<path d="M376.978 368.957H381.47V362.612H376.978V368.957Z" fill="#C4D9ED"/>
<path d="M368.545 368.957H373.037V362.612H368.545V368.957Z" fill="#C4D9ED"/>
<path d="M360.315 368.957H364.807V362.612H360.315V368.957Z" fill="#C4D9ED"/>
<path d="M352.491 368.957H357.012V362.612H352.491V368.957Z" fill="#C4D9ED"/>
<path d="M344.551 368.957H349.042V362.612H344.551V368.957Z" fill="#C4D9ED"/>
<path d="M336.494 368.957H341.015V362.612H336.494V368.957Z" fill="#C4D9ED"/>
<path d="M328.09 368.957H332.582V362.612H328.09V368.957Z" fill="#C4D9ED"/>
<path d="M319.831 368.957H324.352V362.612H319.831V368.957Z" fill="#C4D9ED"/>
<path d="M312.036 368.957H316.528V362.612H312.036V368.957Z" fill="#C4D9ED"/>
<path d="M304.095 368.957H308.587V362.612H304.095V368.957Z" fill="#C4D9ED"/>
<path d="M376.978 327.465H380.746V320.917H376.978V327.465Z" fill="#ADC9E0"/>
<path d="M339.392 327.465H343.188V320.917H339.392V327.465Z" fill="#ADC9E0"/>
<path d="M309.514 327.465H313.282V320.917H309.514V327.465Z" fill="#ADC9E0"/>
<path d="M480.637 382.199H392.946V323.235H480.637V382.199Z" fill="#D5E7F7"/>
<path d="M480.637 334.709H392.946V315.528H480.637V334.709Z" fill="#C4D9ED"/>
<path d="M470.176 346.734H474.667V340.388H470.176V346.734Z" fill="#C4D9ED"/>
<path d="M461.743 346.734H466.263V340.388H461.743V346.734Z" fill="#C4D9ED"/>
<path d="M453.513 346.734H458.004V340.388H453.513V346.734Z" fill="#C4D9ED"/>
<path d="M445.717 346.734H450.209V340.388H445.717V346.734Z" fill="#C4D9ED"/>
<path d="M437.748 346.734H442.24V340.388H437.748V346.734Z" fill="#C4D9ED"/>
<path d="M429.692 346.734H434.212V340.388H429.692V346.734Z" fill="#C4D9ED"/>
<path d="M421.288 346.734H425.779V340.388H421.288V346.734Z" fill="#C4D9ED"/>
<path d="M413.058 346.734H417.549V340.388H413.058V346.734Z" fill="#C4D9ED"/>
<path d="M405.233 346.734H409.754V340.388H405.233V346.734Z" fill="#C4D9ED"/>
<path d="M397.293 346.734H401.785V340.388H397.293V346.734Z" fill="#C4D9ED"/>
<path d="M470.176 357.918H474.667V351.572H470.176V357.918Z" fill="#C4D9ED"/>
<path d="M461.743 357.918H466.263V351.572H461.743V357.918Z" fill="#C4D9ED"/>
<path d="M453.513 357.918H458.004V351.572H453.513V357.918Z" fill="#C4D9ED"/>
<path d="M445.717 357.918H450.209V351.572H445.717V357.918Z" fill="#C4D9ED"/>
<path d="M437.748 357.918H442.24V351.572H437.748V357.918Z" fill="#C4D9ED"/>
<path d="M429.692 357.918H434.212V351.572H429.692V357.918Z" fill="#C4D9ED"/>
<path d="M421.288 357.918H425.779V351.572H421.288V357.918Z" fill="#C4D9ED"/>
<path d="M413.058 357.918H417.549V351.572H413.058V357.918Z" fill="#C4D9ED"/>
<path d="M405.233 357.918H409.754V351.572H405.233V357.918Z" fill="#C4D9ED"/>
<path d="M397.293 357.918H401.785V351.572H397.293V357.918Z" fill="#C4D9ED"/>
<path d="M470.176 368.957H474.667V362.612H470.176V368.957Z" fill="#C4D9ED"/>
<path d="M461.743 368.957H466.263V362.612H461.743V368.957Z" fill="#C4D9ED"/>
<path d="M453.513 368.957H458.004V362.612H453.513V368.957Z" fill="#C4D9ED"/>
<path d="M445.717 368.957H450.209V362.612H445.717V368.957Z" fill="#C4D9ED"/>
<path d="M437.748 368.957H442.24V362.612H437.748V368.957Z" fill="#C4D9ED"/>
<path d="M429.692 368.957H434.212V362.612H429.692V368.957Z" fill="#C4D9ED"/>
<path d="M421.288 368.957H425.779V362.612H421.288V368.957Z" fill="#C4D9ED"/>
<path d="M413.058 368.957H417.549V362.612H413.058V368.957Z" fill="#C4D9ED"/>
<path d="M405.233 368.957H409.754V362.612H405.233V368.957Z" fill="#C4D9ED"/>
<path d="M397.293 368.957H401.785V362.612H397.293V368.957Z" fill="#C4D9ED"/>
<path d="M470.176 327.465H473.943V320.917H470.176V327.465Z" fill="#ADC9E0"/>
<path d="M432.589 327.465H436.386V320.917H432.589V327.465Z" fill="#ADC9E0"/>
<path d="M402.712 327.465H406.479V320.917H402.712V327.465Z" fill="#ADC9E0"/>
<path d="M574.038 382.199H486.346V323.235H574.038V382.199Z" fill="#D5E7F7"/>
<path d="M574.038 334.709H486.346V315.528H574.038V334.709Z" fill="#C4D9ED"/>
<path d="M563.576 346.734H568.068V340.388H563.576V346.734Z" fill="#C4D9ED"/>
<path d="M555.143 346.734H559.664V340.388H555.143V346.734Z" fill="#C4D9ED"/>
<path d="M546.913 346.734H551.434V340.388H546.913V346.734Z" fill="#C4D9ED"/>
<path d="M539.118 346.734H543.61V340.388H539.118V346.734Z" fill="#C4D9ED"/>
<path d="M531.148 346.734H535.669V340.388H531.148V346.734Z" fill="#C4D9ED"/>
<path d="M523.121 346.734H527.613V340.388H523.121V346.734Z" fill="#C4D9ED"/>
<path d="M514.688 346.734H519.18V340.388H514.688V346.734Z" fill="#C4D9ED"/>
<path d="M506.458 346.734H510.95V340.388H506.458V346.734Z" fill="#C4D9ED"/>
<path d="M498.634 346.734H503.154V340.388H498.634V346.734Z" fill="#C4D9ED"/>
<path d="M490.693 346.734H495.185V340.388H490.693V346.734Z" fill="#C4D9ED"/>
<path d="M563.576 357.918H568.068V351.572H563.576V357.918Z" fill="#C4D9ED"/>
<path d="M555.143 357.918H559.664V351.572H555.143V357.918Z" fill="#C4D9ED"/>
<path d="M546.913 357.918H551.434V351.572H546.913V357.918Z" fill="#C4D9ED"/>
<path d="M539.118 357.918H543.61V351.572H539.118V357.918Z" fill="#C4D9ED"/>
<path d="M531.148 357.918H535.669V351.572H531.148V357.918Z" fill="#C4D9ED"/>
<path d="M523.121 357.918H527.613V351.572H523.121V357.918Z" fill="#C4D9ED"/>
<path d="M514.688 357.918H519.18V351.572H514.688V357.918Z" fill="#C4D9ED"/>
<path d="M506.458 357.918H510.95V351.572H506.458V357.918Z" fill="#C4D9ED"/>
<path d="M498.634 357.918H503.154V351.572H498.634V357.918Z" fill="#C4D9ED"/>
<path d="M490.693 357.918H495.185V351.572H490.693V357.918Z" fill="#C4D9ED"/>
<path d="M563.576 368.957H568.068V362.612H563.576V368.957Z" fill="#C4D9ED"/>
<path d="M555.143 368.957H559.664V362.612H555.143V368.957Z" fill="#C4D9ED"/>
<path d="M546.913 368.957H551.434V362.612H546.913V368.957Z" fill="#C4D9ED"/>
<path d="M539.118 368.957H543.61V362.612H539.118V368.957Z" fill="#C4D9ED"/>
<path d="M531.148 368.957H535.669V362.612H531.148V368.957Z" fill="#C4D9ED"/>
<path d="M523.121 368.957H527.613V362.612H523.121V368.957Z" fill="#C4D9ED"/>
<path d="M514.688 368.957H519.18V362.612H514.688V368.957Z" fill="#C4D9ED"/>
<path d="M506.458 368.957H510.95V362.612H506.458V368.957Z" fill="#C4D9ED"/>
<path d="M498.634 368.957H503.154V362.612H498.634V368.957Z" fill="#C4D9ED"/>
<path d="M490.693 368.957H495.185V362.612H490.693V368.957Z" fill="#C4D9ED"/>
<path d="M563.576 327.465H567.372V320.917H563.576V327.465Z" fill="#ADC9E0"/>
<path d="M525.99 327.465H529.786V320.917H525.99V327.465Z" fill="#ADC9E0"/>
<path d="M496.112 327.465H499.909V320.917H496.112V327.465Z" fill="#ADC9E0"/>
<path d="M783.645 385.038L369.618 382.865C369.618 382.865 381.963 332.333 437.111 332.333C492.229 332.333 511.674 290.696 576.182 291.073C618.376 291.304 646.08 269.081 684.13 256.361C684.343 256.496 684.546 256.631 684.739 256.766C696.099 263.952 710.443 270.095 724.759 277.339C732.67 281.337 740.553 285.625 747.914 290.638C754.753 295.274 761.157 300.461 766.692 306.545C770.286 310.515 773.531 314.861 776.284 319.613C776.439 319.883 776.594 320.154 776.748 320.424C780.312 326.799 783.037 333.927 784.659 342.011C784.737 342.436 784.814 342.851 784.891 343.257C787.036 355.02 786.891 368.754 783.645 385.038Z" fill="#B9E0AD"/>
<path d="M248.89 383.387C248.89 383.387 341.768 358.526 505.907 366.408C670.075 374.26 783.471 347.806 783.471 347.806V385.415L248.89 383.387Z" fill="#ACD29A"/>
<path d="M784.659 342.011C783.037 333.927 780.313 326.799 776.748 320.424C771.329 316.715 764.258 313.47 758.897 316.484C748.841 322.221 776.458 324.77 780.544 333.405C782.051 336.534 782.834 339.287 783.239 341.547C781.761 341.112 779.356 340.591 777.125 340.91C774.778 341.257 770.778 344.184 768.373 346.096C769.503 344.184 770.518 341.808 770.778 339.2C771.416 332.883 768.953 325.727 764.982 330.45C762.114 333.869 763.389 342.88 764.316 347.603C762.79 348.202 761.254 348.849 759.708 349.544C753.825 328.798 739.973 295.796 712.994 294.666C712.994 294.666 702.358 298.722 714.153 312.05C724.18 323.38 740.205 327.929 755.39 351.688C754.463 352.19 753.536 352.722 752.608 353.282C745.306 346.299 731.685 335.23 720.267 337.23C708.096 339.374 734.554 350.095 749.073 355.513C745.769 357.715 742.581 360.294 739.655 363.22C739.655 363.22 734.902 369.566 713.892 366.407C692.911 363.22 674.712 385.038 674.712 385.038H783.645C787.007 368.204 787.036 354.035 784.659 342.011Z" fill="#82B378"/>
<path d="M87.9097 383.3L51.4247 383.213L41.5428 383.184H40.4705L34.7036 383.155L30.7335 383.126H28.9947C28.9947 383.126 28.8498 382.894 28.589 382.46C28.4924 382.286 28.3862 382.093 28.2702 381.88C28.2123 381.803 28.164 381.716 28.1253 381.619C27.9515 381.31 27.7486 380.963 27.5168 380.576C27.2656 380.093 26.9758 379.543 26.6474 378.925C25.4303 376.636 23.8074 373.448 21.9527 369.508C21.3538 368.214 20.726 366.832 20.0691 365.364C19.8179 364.785 19.5571 364.196 19.2866 363.597C19.0355 362.979 18.7747 362.361 18.5042 361.743C18.3303 361.318 18.1565 360.893 17.9826 360.468C17.7894 360.023 17.6059 359.569 17.432 359.106C16.4757 356.788 15.4904 354.296 14.534 351.688C14.4954 351.611 14.4664 351.543 14.4471 351.485C13.4618 348.82 12.4958 346.028 11.5492 343.112C11.5298 343.054 11.5009 342.996 11.4622 342.938C11.327 342.474 11.1821 342.011 11.0275 341.547C10.6412 340.369 10.2644 339.161 9.89735 337.925C9.14389 335.414 8.40975 332.835 7.69492 330.189C7.57901 329.725 7.46309 329.262 7.34717 328.798C9.78143 328.566 12.0708 328.508 14.2153 328.595C17.7797 328.74 20.9385 329.262 23.7495 330.16C27.8355 331.406 31.2261 333.347 34.0951 335.694C40.2677 340.707 44.1799 347.574 47.9762 353.688C50.2366 357.28 52.439 360.613 55.0181 363.133C57.5104 365.596 60.3793 367.277 63.9728 367.711C66.465 368.001 68.7254 368.494 70.7249 369.073C83.3309 372.811 87.2142 381.417 87.9097 383.3Z" fill="#8EBF82"/>
<path d="M156.62 340.881L152.476 340.069C152.476 340.069 162.416 300.721 161.053 297.476C159.952 294.781 148.476 292.811 142.854 288.117C141.666 287.103 140.739 286.002 140.217 284.727C137.232 277.425 142.101 272.007 142.101 272.007C142.101 272.007 152.302 274.325 161.575 278.295C168.182 281.134 174.268 284.785 175.978 289.044C180.035 299.359 156.62 340.881 156.62 340.881Z" fill="#E58638"/>
<path d="M167.951 346.936C167.893 346.531 167.632 346.183 167.226 345.951C166.241 345.401 164.212 344.618 162.676 342.59C161.836 341.46 158.3 338.099 158.3 338.099L158.271 338.07C158.185 338.07 157.721 338.07 155.489 338.968C154.33 339.461 153.142 337.288 153.142 337.288C153.142 337.288 152.765 337.433 152.418 337.78C152.157 338.07 151.896 338.505 151.867 339.084C151.809 339.924 150.94 341.286 150.302 342.184C149.896 342.735 149.607 343.112 149.607 343.112C149.607 343.112 149.346 343.575 151.316 344.329L153.664 344.937C154.504 345.024 155.113 344.966 155.953 345.082C157.228 345.256 157.663 345.864 157.75 345.98C157.769 345.999 157.779 346.009 157.779 346.009L167.777 348.588C168.095 348.356 168.066 347.545 167.951 346.936Z" fill="#415DA5"/>
<path fill-rule="evenodd" clip-rule="evenodd" d="M162.241 349.515L159.836 347.95L160.85 351.109L157.257 352.268L148.389 324.539L116.048 345.227L155.779 348.704L155.46 352.471L105.094 348.066L146.882 319.845L135.928 285.567L139.522 284.408L150.128 317.643L197.799 285.423L197.828 285.394L198.495 284.959L198.118 285.712L202.32 290.059L162.241 349.515ZM159.459 346.849L190.004 297.911L151.693 322.453L159.459 346.849Z" fill="#739CF3"/>
<path d="M210.434 299.707C209.739 297.969 207.855 297.041 206.087 297.534C200.581 283.249 198.755 278.555 198.089 276.933L202.581 274.093C203.247 274.035 203.943 273.833 204.522 273.398C206.261 272.152 206.638 269.747 205.421 268.038C204.175 266.328 201.769 265.922 200.06 267.168C198.726 268.153 198.176 269.834 198.611 271.341L189.714 276.991C188.439 276.266 186.816 276.295 185.57 277.194C183.831 278.44 183.454 280.816 184.671 282.554C185.918 284.264 188.323 284.64 190.033 283.423C190.844 282.844 191.337 282.004 191.54 281.134L194.901 278.99C196.089 281.975 200.175 292.029 202.784 298.838L224.373 344.995L227.88 343.575L210.434 299.707Z" fill="#415DA5"/>
<path d="M178.846 357.86H175.369L158.851 350.326L158.242 351.659L171.833 357.86H170.645C169.689 357.86 168.907 358.642 168.907 359.598C168.907 360.555 169.689 361.337 170.645 361.337H178.846C179.803 361.337 180.585 360.555 180.585 359.598C180.585 358.642 179.803 357.86 178.846 357.86Z" fill="#415DA5"/>
<path d="M116.773 346.647C116.773 346.453 116.763 346.251 116.744 346.038L143.173 341.605L143.028 340.794L116.599 345.227C116.28 343.865 115.527 342.677 114.455 341.837L130.509 318.918L129.814 318.454L114.426 340.446L122.714 315.527L121.931 315.267L113.324 341.112C112.6 340.765 111.818 340.533 111.006 340.475V312.891H110.166V340.475C109.683 340.514 109.219 340.6 108.775 340.736L100.197 316.86L99.4144 317.15L107.558 339.866L91.1842 321.004L90.5467 321.554L107.616 341.228C106.746 341.692 105.964 342.416 105.413 343.256L104.457 343.083L80.5488 330.971L80.1721 331.724L101.646 342.59L77.7089 338.476L77.564 339.316L104.196 343.894L104.891 344.242C104.573 344.995 104.399 345.806 104.399 346.647C104.399 346.82 104.399 346.985 104.399 347.139L77.9987 351.08L78.1146 351.891L104.544 347.979C104.582 348.231 104.65 348.472 104.747 348.704L80.6068 359.077L80.9545 359.83L105.065 349.486C105.065 349.486 105.075 349.496 105.094 349.515L86.1418 368.61L86.7504 369.189L105.529 350.239C105.906 350.79 106.369 351.254 106.92 351.63L93.0099 373.506L93.7344 373.941L107.616 352.094C107.731 352.152 107.857 352.21 107.992 352.268C104.515 361.424 98.1683 378.171 98.0234 378.635L98.8058 378.896C98.9507 378.49 104.544 363.713 108.775 352.586C109.354 352.76 109.963 352.847 110.571 352.847C110.687 352.847 110.794 352.847 110.89 352.847L108.688 379.359L109.528 379.417L111.731 352.731C112.001 352.693 112.262 352.625 112.513 352.528C116.889 363.278 122.627 377.389 122.772 377.853L123.554 377.563C123.409 377.099 116.889 361.076 113.295 352.21C113.373 352.171 113.45 352.132 113.527 352.094L128.278 375.419L128.973 374.955L114.223 351.659C114.831 351.225 115.324 350.703 115.73 350.095L137.609 365.248L138.102 364.553L116.164 349.341C116.541 348.53 116.773 347.632 116.773 346.647Z" fill="#415DA5"/>
<path fill-rule="evenodd" clip-rule="evenodd" d="M110.571 382.952C90.5757 382.952 74.2893 366.668 74.2893 346.647C74.2893 326.654 90.5757 310.37 110.571 310.37C130.596 310.37 146.882 326.654 146.882 346.647C146.882 353.079 145.173 359.367 141.985 364.901C138.826 370.29 134.334 374.81 128.944 377.968C123.409 381.243 117.034 382.952 110.571 382.952ZM110.571 315.412C93.3287 315.412 79.3027 329.435 79.3027 346.647C79.3027 363.887 93.3287 377.911 110.571 377.911C116.164 377.911 121.613 376.433 126.394 373.622C131.031 370.899 134.914 367.016 137.609 362.351C140.391 357.628 141.84 352.181 141.84 346.647C141.84 329.435 127.814 315.412 110.571 315.412Z" fill="#2C3A64"/>
<path d="M233.56 346.647C233.56 346.453 233.55 346.251 233.531 346.038L259.989 341.605L259.844 340.794L233.415 345.227C233.067 343.865 232.314 342.677 231.27 341.837L247.296 318.918L246.629 318.454L231.241 340.446L239.529 315.527L238.747 315.267L230.111 341.112C229.416 340.765 228.633 340.533 227.793 340.475V312.891H226.952V340.475C226.469 340.514 226.006 340.6 225.561 340.736L217.012 316.86L216.23 317.15L224.373 339.866L207.971 321.004L207.333 321.554L224.431 341.228C223.533 341.692 222.779 342.416 222.229 343.256L221.243 343.083L197.365 330.971L196.988 331.724L218.432 342.59L194.525 338.476L194.38 339.316L220.983 343.894L221.678 344.242C221.359 344.995 221.186 345.806 221.186 346.647C221.186 346.82 221.195 346.985 221.214 347.139L194.785 351.08L194.93 351.891L221.33 347.979C221.388 348.231 221.456 348.472 221.533 348.704L197.422 359.077L197.741 359.83L221.881 349.486C221.881 349.486 221.881 349.496 221.881 349.515L202.958 368.61L203.537 369.189L222.345 350.239C222.721 350.79 223.185 351.254 223.707 351.63L209.826 373.506L210.521 373.941L224.431 352.094C224.547 352.152 224.673 352.21 224.808 352.268C221.33 361.424 214.984 378.171 214.81 378.635L215.621 378.896C215.737 378.49 221.359 363.713 225.59 352.586C226.141 352.76 226.75 352.847 227.387 352.847C227.484 352.847 227.58 352.847 227.677 352.847L225.503 379.359L226.344 379.417L228.546 352.731C228.817 352.693 229.078 352.625 229.329 352.528C233.676 363.278 239.413 377.389 239.587 377.853L240.37 377.563C240.225 377.099 233.705 361.076 230.111 352.21C230.188 352.171 230.266 352.132 230.343 352.094L245.064 375.419L245.789 374.955L231.038 351.659C231.618 351.225 232.14 350.703 232.545 350.095L254.425 365.248L254.888 364.553L232.951 349.341C233.357 348.53 233.56 347.632 233.56 346.647Z" fill="#415DA5"/>
<path fill-rule="evenodd" clip-rule="evenodd" d="M227.387 382.952C207.362 382.952 191.076 366.668 191.076 346.647C191.076 326.654 207.362 310.37 227.387 310.37C247.412 310.37 263.669 326.654 263.669 346.647C263.669 353.079 261.988 359.367 258.772 364.901C255.642 370.29 251.121 374.81 245.76 377.968C240.196 381.243 233.849 382.952 227.387 382.952ZM227.387 315.412C210.144 315.412 196.118 329.435 196.118 346.647C196.118 363.887 210.144 377.911 227.387 377.911C232.951 377.911 238.428 376.433 243.21 373.622C247.846 370.899 251.73 367.016 254.425 362.351C257.178 357.628 258.656 352.181 258.656 346.647C258.656 329.435 244.63 315.412 227.387 315.412Z" fill="#2C3A64"/>
<path d="M147.433 305.299C147.027 304.111 145.694 303.474 144.506 303.88L142.42 304.633C140.768 305.212 138.971 305.097 137.406 304.314C129.785 300.519 120.482 298.577 109.731 298.577C109.615 298.577 109.489 298.577 109.354 298.577C104.544 298.606 95.9658 299.794 92.2854 300.345C91.2711 300.49 90.5466 301.359 90.5466 302.373V303.677C90.5466 304.082 90.8944 304.343 91.2711 304.285C98.0813 302.836 121.583 298.983 138.565 309.24C139.029 309.559 139.638 309.617 140.159 309.414L146.535 307.183C147.288 306.922 147.694 306.053 147.433 305.299Z" fill="#D57912"/>
<path d="M150.041 281.192C148.302 279.512 138.421 281.163 136.537 281.366C134.653 281.569 127.582 280.062 125.641 280.265C123.699 280.468 124.366 283.568 124.366 283.568C127.379 291.015 136.856 287.77 138.16 286.668C139.493 285.567 144.1 284.988 147.549 284.669C151.027 284.35 151.751 282.873 150.041 281.192Z" fill="#415DA5"/>
<path d="M159.054 342.242C153.838 342.242 149.607 346.473 149.607 351.688C149.607 356.904 153.838 361.134 159.054 361.134C164.27 361.134 168.501 356.904 168.501 351.688C168.501 346.473 164.27 342.242 159.054 342.242Z" fill="#2C3A64"/>
<path d="M196.727 268.24C196.727 268.24 196.717 268.24 196.698 268.24C193.539 266.502 176.818 257.288 176.065 255.086C175.63 253.724 173.515 247.987 171.196 242.887C170.617 241.612 169.834 241.728 169.255 240.598C167.98 238.164 163.227 240.164 162.329 239.758C159.315 238.396 156.04 237.237 156.04 240.222C156.04 240.222 156.88 242.395 158.184 245.408C158.677 246.625 159.286 247.958 159.894 249.349C162.502 255.028 165.864 261.518 168.211 262.706C172.008 264.561 186.352 270.645 191.974 271.659C191.955 271.659 191.945 271.659 191.945 271.659C191.945 271.659 194.64 274.325 195.249 274.818C195.858 275.339 197.191 275.89 198.495 275.426C199.77 274.992 199.741 272.847 199.828 272.297C199.886 271.746 199.654 269.081 196.727 268.24Z" fill="#ED975D"/>
<path d="M170.732 229.501C170.732 229.501 169.834 231.558 168.501 233.905C168.424 234.021 168.346 234.147 168.269 234.282C167.226 236.049 165.98 237.933 164.734 239.15L153.548 233.905C153.548 233.905 158.648 229.936 161.053 225.995C161.314 225.589 161.546 225.184 161.72 224.778L163.893 224.691L170.732 229.501Z" fill="#FFB27D"/>
<path d="M170.732 229.501C170.732 229.501 169.834 231.558 168.501 233.905C168.424 234.021 168.346 234.147 168.269 234.282C164.357 232.196 162.01 228.023 161.053 225.995C161.314 225.589 161.546 225.184 161.72 224.778L163.893 224.691L170.732 229.501Z" fill="#ED975D"/>
<path d="M174.036 229.356C174.036 229.356 161.14 231.384 160.01 223.329C158.88 215.274 156.446 210.088 164.618 208.465C172.819 206.842 174.848 209.682 175.891 212.29C176.934 214.869 177.369 228.603 174.036 229.356Z" fill="#FFB27D"/>
<path d="M155.866 206.987C155.866 206.987 156.446 207.132 156.909 207.625C156.909 207.605 156.909 207.596 156.909 207.596C156.938 205.857 158.648 204.119 158.648 204.119C157.837 205.133 158.098 207.045 158.098 207.045C160.532 202.902 172.355 206.147 173.457 206.437C174.587 206.698 175.369 205.046 175.369 205.046C177.108 206.553 177.775 210.262 176.326 212.695C174.877 215.129 170.182 218.693 168.82 218.027C167.458 217.331 167.458 218.751 167.516 220.721C167.603 222.692 164.183 225.995 161.778 226.487C159.836 226.864 159.691 225.531 159.141 224.691C159.025 224.479 158.87 224.285 158.677 224.112C156.04 221.736 154.591 216.984 155.171 212.29C155.403 210.406 156.185 208.842 156.62 208.088C156.446 207.799 156.098 207.248 155.866 206.987Z" fill="#2C3A64"/>
<path d="M171.312 242.279C170.327 242.598 167.864 243.496 167.226 244.597C166.531 245.727 159.402 242.627 158.561 239.729C160.59 237.498 164.096 235.586 166.154 236.223C167.371 236.571 169.313 239.15 171.312 242.279Z" fill="#1E3D70"/>
<path d="M167.603 302.17C166.444 299.852 152.794 274.18 152.794 274.18C152.678 274.18 132.277 261.344 132.277 261.344C132.277 261.344 128.741 265.43 127.669 271.486C127.264 273.021 126.945 274.76 126.771 276.701C126.162 283.829 156.793 312.253 157.489 316.194C159.17 325.553 169.255 344.792 173.978 354.325L177.775 352.876C177.775 352.876 170.298 307.588 167.603 302.17Z" fill="#EE9849"/>
<path d="M167.4 246.857L164.154 251.493L163.893 252.072L157.112 267.516L155.286 274.76C155.199 275.021 154.997 275.252 154.707 275.281C152.157 275.716 146.969 275.484 145.173 274.847C137.116 272.094 131.668 267.545 129.582 265.575C128.973 265.024 128.799 264.184 129.089 263.431C135.204 248.219 144.68 238.251 146.361 236.397C149.346 233.152 157.199 230.486 157.199 230.486C159.344 232.688 166.994 236.542 166.994 236.542C168.675 237.875 167.4 246.857 167.4 246.857Z" fill="#2A4E96"/>
<path d="M163.893 252.072L157.112 267.516C151.983 257.143 155.228 242.105 155.228 242.105C155.228 242.105 163.487 249.262 163.777 249.812C163.806 249.899 163.893 250.74 163.893 252.072Z" fill="#1E3D70"/>
<path d="M194.438 270.529C194.438 270.529 194.428 270.529 194.409 270.529C191.279 268.791 174.529 259.577 173.804 257.375C173.341 256.013 171.225 250.276 168.907 245.147C168.327 243.901 167.748 242.656 167.168 241.525C165.893 239.092 164.705 237.237 163.778 236.803C160.793 235.441 153.751 239.497 153.751 242.511C153.751 242.511 154.591 244.684 155.895 247.697C156.417 248.885 156.996 250.218 157.605 251.638C160.213 257.317 163.575 263.807 165.922 264.966C169.718 266.85 184.092 272.934 189.685 273.948C189.666 273.948 189.656 273.948 189.656 273.948C189.656 273.948 192.38 276.614 192.96 277.107C193.568 277.628 194.901 278.179 196.205 277.715C197.509 277.252 197.799 275.513 197.857 274.963C197.915 274.412 198.466 271.515 194.438 270.529Z" fill="#FFB27D"/>
<path d="M169.226 245.205C166.386 246.48 161.285 248.972 157.46 251.927C156.822 250.479 156.214 249.088 155.663 247.842C154.33 244.684 153.432 242.424 153.432 242.424C153.432 239.323 160.764 235.093 163.893 236.513C164.821 236.976 166.067 238.889 167.4 241.41C168.008 242.598 168.617 243.872 169.226 245.205Z" fill="#2A4E96"/>
<path d="M172.268 358.092H174.703C175.514 357.976 176.094 357.773 176.934 357.657C178.209 357.512 178.789 357.976 178.905 358.092C178.924 358.111 178.934 358.121 178.934 358.121H189.25C189.511 357.773 189.279 357.02 189.018 356.469C188.845 356.092 188.497 355.803 188.062 355.687C186.961 355.397 184.816 355.165 182.817 353.572C181.716 352.673 177.456 350.297 177.456 350.297H177.427C177.34 350.297 176.905 350.413 174.963 351.862C173.949 352.615 172.239 350.819 172.239 350.819C172.239 350.819 171.921 351.051 171.689 351.485C171.486 351.833 171.37 352.297 171.457 352.876C171.631 353.716 171.138 355.223 170.732 356.266C170.501 356.904 170.298 357.338 170.298 357.338C170.298 357.338 170.182 357.86 172.268 358.092Z" fill="#739CF3"/>
<path d="M171.689 351.485C172.268 351.833 173.485 352.557 174.297 352.644C175.398 352.789 177.456 350.297 177.456 350.297H177.427C177.34 350.297 176.905 350.413 174.963 351.862C173.949 352.615 172.239 350.819 172.239 350.819C172.239 350.819 171.921 351.051 171.689 351.485Z" fill="#415DA5"/>
<path d="M172.268 358.092H174.703C175.514 357.976 176.094 357.773 176.934 357.657C178.209 357.512 178.789 357.976 178.905 358.092C178.924 358.111 178.934 358.121 178.934 358.121H189.25C189.511 357.773 189.279 357.02 189.018 356.469C188.7 356.208 188.613 357.541 188.439 357.744C188.265 357.947 180.035 357.831 179.542 357.512C179.079 357.193 177.63 356.672 175.659 357.107C173.92 357.454 171.37 356.527 170.732 356.266C170.501 356.904 170.298 357.338 170.298 357.338C170.298 357.338 170.182 357.86 172.268 358.092Z" fill="#415DA5"/>
<path d="M611.624 338.91C611.624 338.91 613.16 342.387 615.275 340.852C617.391 339.316 618.289 335.926 618.289 335.926L611.653 337.867L611.624 338.91Z" fill="#CE8E55"/>
<path d="M631.851 345.574C631.649 345.053 631.214 344.647 630.692 344.502C629.359 344.126 626.78 343.778 624.404 341.634C623.042 340.417 617.912 337.172 617.912 337.172H617.883C617.767 337.172 617.246 337.346 614.898 339.316C613.71 340.33 611.653 337.867 611.653 337.867C611.653 337.867 611.247 338.186 610.986 338.794C610.754 339.258 610.581 339.895 610.696 340.678C610.899 341.808 610.291 343.894 609.827 345.314C609.537 346.154 609.276 346.762 609.276 346.762C609.276 346.762 609.132 347.458 611.653 347.777H614.58C615.565 347.632 616.289 347.342 617.304 347.197C618.84 347.023 619.535 347.632 619.68 347.777C619.699 347.796 619.709 347.806 619.709 347.806H632.141C632.46 347.371 632.141 346.328 631.851 345.574Z" fill="#AA5A0B"/>
<path d="M599.105 279.656C603.713 288.494 623.274 300.287 622.346 301.359C615.855 308.979 611.653 337.867 611.653 337.867C611.653 337.867 612.957 338.621 614.174 338.65C616.232 338.707 618.347 337.983 618.347 337.983C626.432 321.467 639.212 303.416 638.082 299.446C635.242 289.334 613.768 262.301 613.768 262.301L594.555 258.041L588.73 257.838C588.73 257.838 592.816 267.574 599.105 279.656Z" fill="#2C3A64"/>
<path d="M688.883 343.459L666.424 295.448L669.438 294.231C671.379 293.449 673.611 294.405 674.393 296.375L692.505 341.982L688.883 343.459Z" fill="#415DA5"/>
<path fill-rule="evenodd" clip-rule="evenodd" d="M666.424 295.448C665.699 293.536 664.859 291.391 663.989 289.218L624.259 348.153L621.738 346.531L622.781 349.834L619.043 351.022L609.827 322.192L576.182 343.72L617.536 347.313L617.188 351.225L564.822 346.676L608.262 317.295L596.873 281.627L600.612 280.439L611.653 315.006L660.976 281.685C659.179 277.223 657.817 273.833 657.846 273.919L661.121 271.717C661.265 271.978 661.381 272.123 669.901 294.231L666.424 295.448ZM653.122 294.463L613.247 319.99L621.361 345.372L653.122 294.463Z" fill="#EE9849"/>
<path d="M666.221 269.226C664.743 269.226 663.497 270.182 663.033 271.486L653.731 270.935C653.209 269.776 652.021 268.936 650.63 268.936C648.775 268.936 647.268 270.471 647.268 272.326C647.268 274.209 648.775 275.716 650.63 275.716C651.499 275.716 652.311 275.368 652.89 274.847L664.453 275.484C664.946 275.803 665.554 276.006 666.221 276.006C668.075 276.006 669.582 274.499 669.582 272.616C669.582 270.761 668.075 269.226 666.221 269.226Z" fill="#415DA5"/>
<path d="M576.936 345.198C576.936 344.985 576.926 344.773 576.907 344.56L604.408 339.953L604.263 339.084L576.762 343.72C576.443 342.3 575.632 341.054 574.53 340.185L591.223 316.339L590.527 315.846L574.501 338.707L583.137 312.833L582.297 312.543L573.342 339.432C572.618 339.055 571.806 338.823 570.937 338.765V310.051H570.068V338.765C569.565 338.804 569.082 338.901 568.619 339.055L559.722 314.195L558.882 314.513L567.373 338.128L550.304 318.512L549.666 319.091L567.431 339.548C566.503 340.04 565.721 340.765 565.141 341.663L564.127 341.489L539.263 328.885L538.886 329.667L561.2 340.967L536.307 336.708L536.162 337.548L563.837 342.329L564.562 342.677C564.243 343.459 564.069 344.3 564.069 345.198C564.069 345.372 564.079 345.546 564.098 345.719L536.597 349.776L536.741 350.645L564.214 346.56C564.272 346.83 564.339 347.091 564.417 347.342L539.35 358.121L539.668 358.903L564.764 348.124C564.784 348.144 564.793 348.153 564.793 348.153L545.087 368.03L545.725 368.639L565.257 348.936C565.663 349.486 566.126 349.979 566.677 350.384L552.245 373.13L552.97 373.593L567.431 350.848C567.546 350.925 567.672 350.993 567.807 351.051C564.214 360.555 557.578 377.968 557.433 378.461L558.244 378.722C558.389 378.287 564.214 362.959 568.619 351.369C569.227 351.543 569.865 351.63 570.502 351.63C570.618 351.63 570.724 351.63 570.821 351.63L568.532 379.214L569.401 379.272L571.719 351.514C571.99 351.476 572.26 351.408 572.531 351.312C577.052 362.496 583.021 377.157 583.195 377.65L584.007 377.36C583.862 376.867 577.081 360.207 573.313 350.993C573.41 350.954 573.497 350.906 573.574 350.848L588.904 375.1L589.629 374.636L574.299 350.384C574.907 349.95 575.458 349.399 575.864 348.762L598.641 364.553L599.134 363.829L576.298 348.008C576.704 347.168 576.936 346.212 576.936 345.198Z" fill="#2C3A64"/>
<path fill-rule="evenodd" clip-rule="evenodd" d="M570.502 382.952C549.695 382.952 532.742 366.031 532.742 345.198C532.742 324.394 549.695 307.443 570.502 307.443C591.309 307.443 608.262 324.394 608.262 345.198C608.262 351.862 606.495 358.439 603.162 364.176C599.887 369.769 595.193 374.492 589.6 377.766C583.833 381.156 577.225 382.952 570.502 382.952ZM570.502 312.688C552.564 312.688 537.987 327.262 537.987 345.198C537.987 363.133 552.564 377.708 570.502 377.708C576.298 377.708 581.978 376.172 586.962 373.246C591.773 370.435 595.801 366.379 598.641 361.54C601.51 356.585 603.017 350.935 603.017 345.198C603.017 327.262 588.44 312.688 570.502 312.688Z" fill="#2C3A64"/>
<path fill-rule="evenodd" clip-rule="evenodd" d="M570.792 378.664C552.448 378.664 537.524 363.771 537.524 345.43C537.524 327.089 552.448 312.166 570.792 312.166C589.136 312.166 604.06 327.089 604.06 345.43C604.06 363.771 589.136 378.664 570.792 378.664ZM570.792 313.499C553.202 313.499 538.886 327.813 538.886 345.43C538.886 363.017 553.202 377.331 570.792 377.331C588.382 377.331 602.698 363.017 602.698 345.43C602.698 327.813 588.382 313.499 570.792 313.499Z" fill="#B84C42"/>
<path fill-rule="evenodd" clip-rule="evenodd" d="M693.346 345.314L720.036 363.829L719.543 364.553L692.157 345.574L710.559 374.636L709.806 375.1L693.664 349.573C697.258 358.381 704.763 376.838 704.937 377.36L704.097 377.65C703.923 377.157 697.374 360.989 692.766 349.689L690.332 379.272L689.462 379.214L692.041 347.892C691.829 347.371 691.626 346.869 691.433 346.386C687.028 357.947 679.349 378.229 679.175 378.722L678.334 378.461C678.508 377.939 686.159 357.831 689.491 349.051L673.9 373.593L673.147 373.13L690.303 346.154L687.897 347.197L666.627 368.639L666.018 368.03L685.753 348.095L660.599 358.903L660.251 358.121L687.405 346.444L687.637 346.212L657.643 350.645L657.527 349.776L688.68 345.169L689.231 344.589L684.768 342.329L657.063 337.548L657.208 336.708L682.131 340.967L659.788 329.667L660.193 328.885L685.029 341.489L689.781 342.3L689.086 340.417L670.568 319.091L671.234 318.512L688.274 338.128L679.812 314.513L680.624 314.195L689.868 339.953L690.013 340.098L689.926 340.156L690.766 342.474L690.969 342.503V310.051H691.839V343.199L691.259 343.807V343.894L691.636 344.126L693.664 341.228L703.228 312.543L704.068 312.833L695.432 338.707L711.429 315.846L712.153 316.339L694.447 341.634L694.012 342.938L693.635 342.793L692.36 344.589L725.165 339.084L725.31 339.953L693.346 345.314ZM687.695 342.822L689.665 343.807L690.071 343.228L687.695 342.822Z" fill="#415DA5"/>
<path d="M684.97 345.198C684.97 341.634 687.868 338.765 691.404 338.765C694.968 338.765 697.866 341.634 697.866 345.198C697.866 348.762 694.968 351.63 691.404 351.63C687.868 351.63 684.97 348.762 684.97 345.198Z" fill="#2C3A64"/>
<path fill-rule="evenodd" clip-rule="evenodd" d="M691.404 382.952C670.597 382.952 653.644 366.031 653.644 345.198C653.644 324.394 670.597 307.443 691.404 307.443C712.24 307.443 729.164 324.394 729.164 345.198C729.164 351.862 727.396 358.439 724.064 364.176C720.818 369.769 716.123 374.492 710.53 377.766C704.763 381.156 698.156 382.952 691.404 382.952ZM691.404 312.688C673.495 312.688 658.889 327.262 658.889 345.198C658.889 363.133 673.495 377.708 691.404 377.708C697.2 377.708 702.909 376.172 707.864 373.246C712.704 370.435 716.732 366.379 719.543 361.54C722.412 356.585 723.948 350.935 723.948 345.198C723.948 327.262 709.342 312.688 691.404 312.688Z" fill="#2C3A64"/>
<path fill-rule="evenodd" clip-rule="evenodd" d="M691.694 378.664C673.379 378.664 658.454 363.771 658.454 345.43C658.454 327.089 673.379 312.166 691.694 312.166C710.038 312.166 724.962 327.089 724.962 345.43C724.962 363.771 710.038 378.664 691.694 378.664ZM691.694 313.499C674.103 313.499 659.787 327.813 659.787 345.43C659.787 363.017 674.103 377.331 691.694 377.331C709.313 377.331 723.629 363.017 723.629 345.43C723.629 327.813 709.313 313.499 691.694 313.499Z" fill="#B84C42"/>
<path d="M608.842 302.17C608.407 300.924 607.045 300.258 605.799 300.721L603.625 301.475C601.916 302.083 600.032 301.967 598.409 301.156C590.469 297.186 580.819 295.187 569.633 295.187C569.498 295.187 569.362 295.187 569.227 295.187C564.243 295.216 555.288 296.433 551.463 297.013C550.419 297.157 549.666 298.056 549.666 299.128V300.49C549.666 300.895 550.014 301.185 550.42 301.127V301.098C557.49 299.62 581.949 295.622 599.597 306.285C600.119 306.603 600.728 306.661 601.278 306.458L607.886 304.14C608.697 303.851 609.132 302.981 608.842 302.17Z" fill="#EE9849"/>
<path d="M584.847 279.57C584.847 279.57 584.152 276.353 586.151 276.122C588.18 275.919 595.54 277.483 597.511 277.281C599.482 277.049 609.74 275.368 611.537 277.107C613.334 278.845 612.58 280.381 608.958 280.7C605.364 281.047 600.583 281.627 599.192 282.786C597.83 283.916 587.977 287.306 584.847 279.57Z" fill="#415DA5"/>
<path d="M641.501 356.846H637.908L630.286 353.369C630.576 352.442 630.75 351.456 630.75 350.442C630.75 345.024 626.345 340.62 620.926 340.62C615.507 340.62 611.102 345.024 611.102 350.442C611.102 355.861 615.507 360.265 620.926 360.265C624.78 360.265 628.113 358.034 629.736 354.789L634.228 356.846H633.01C631.996 356.846 631.185 357.657 631.185 358.642C631.185 359.656 631.996 360.468 633.01 360.468H641.501C642.516 360.468 643.327 359.656 643.327 358.642C643.327 357.657 642.516 356.846 641.501 356.846Z" fill="#415DA5"/>
<path d="M637.183 347.458C637.183 347.458 638.198 351.022 640.255 350.761C642.313 350.5 643.443 346.733 643.443 346.733L637.183 347.458Z" fill="#CE8E55"/>
<path d="M637.213 357.367H640.139C641.125 357.193 641.849 356.933 642.864 356.788C644.37 356.585 645.095 357.222 645.211 357.367C645.23 357.387 645.24 357.396 645.24 357.396H657.701C657.991 356.933 657.701 355.919 657.411 355.136C657.208 354.615 656.774 354.238 656.252 354.093C654.919 353.687 652.311 353.369 649.934 351.196C648.601 350.008 643.472 346.762 643.472 346.762L643.443 346.733C643.327 346.762 642.806 346.907 640.458 348.878C639.241 349.892 637.184 347.458 637.184 347.458C637.184 347.458 636.807 347.777 636.517 348.356C636.285 348.82 636.111 349.486 636.256 350.268C636.43 351.398 635.85 353.485 635.358 354.875C635.068 355.745 634.836 356.353 634.836 356.353C634.836 356.353 634.691 357.049 637.213 357.367Z" fill="#D57912"/>
<path d="M636.517 348.356C637.213 348.849 638.691 349.834 639.676 349.95C641.009 350.124 643.472 346.762 643.472 346.762L643.443 346.733C643.327 346.762 642.806 346.907 640.458 348.878C639.241 349.892 637.184 347.458 637.184 347.458C637.184 347.458 636.807 347.777 636.517 348.356Z" fill="#AA3F3A"/>
<path d="M637.213 357.367H640.139C641.125 357.193 641.849 356.933 642.864 356.788C644.37 356.585 645.095 357.222 645.211 357.367C645.23 357.387 645.24 357.396 645.24 357.396H657.701C657.991 356.933 657.701 355.919 657.411 355.136C657.034 354.818 656.918 356.614 656.716 356.904C656.513 357.165 646.573 356.991 645.993 356.585C645.414 356.15 643.704 355.426 641.299 356.005C639.212 356.498 636.14 355.223 635.358 354.875C635.068 355.745 634.836 356.353 634.836 356.353C634.836 356.353 634.691 357.049 637.213 357.367Z" fill="#AA3F3A"/>
<path d="M589.657 253.202C589.657 253.202 581.949 269.921 591.28 277.541C600.612 285.162 627.707 295.969 628.142 297.65C628.548 299.359 630.431 327.117 637.183 347.458C637.183 347.458 639.531 348.385 643.443 346.733C645.645 345.835 648.572 293.101 644.747 288.03C640.951 282.931 619.709 268.414 619.709 268.414L589.657 253.202Z" fill="#35488B"/>
<path d="M614.406 197.049C614.406 197.049 623.795 206.031 630.866 206.031C630.866 206.031 629.91 203.51 627.649 201.134C628.094 200.246 628.49 199.435 628.837 198.701C630.055 196.064 630.576 194.499 630.576 194.499L625.476 186.85L624.346 185.14C623.969 186.444 623.505 187.632 622.984 188.675C622.945 188.772 622.906 188.859 622.868 188.936C619.68 195.195 614.406 197.049 614.406 197.049Z" fill="#FFB27D"/>
<path d="M660.193 265.749C660.193 265.749 646.776 248.566 645.587 247.031C644.399 245.524 632.518 219.91 632.518 219.91L614.406 218.346C614.406 218.346 633.909 249.986 636.981 253.753C642.081 260.011 656.513 267.69 656.513 267.69C656.252 269.341 657.556 270.964 659.613 271.688C661.7 272.384 661.004 272.413 662.453 272.934C663.902 273.485 664.424 271.283 664.424 271.283C665.264 265.922 660.193 265.749 660.193 265.749Z" fill="#FFB27D"/>
<path d="M589.657 253.202C589.396 253.898 590.614 255.144 591.164 255.636C593.569 257.78 595.946 259.664 598.467 261.257C600.235 262.387 602.089 263.373 604.089 264.242C609.827 266.734 617.303 267.603 619.709 268.414C619.97 268.501 620.201 268.472 620.462 268.356C620.665 268.298 623.099 261.055 625.852 251.841C625.968 251.493 626.084 251.116 626.171 250.74L626.2 250.624C627.301 247.031 628.374 243.235 629.388 239.468C631.648 231.123 633.503 222.953 633.822 218.201C634.17 212.637 632.286 208.291 630.373 204.93L628.779 202.264C626.403 202.004 624.114 201.134 622.114 199.222C619.97 197.165 617.651 194.963 617.101 195.137C610.58 197.397 604.263 208.204 600.119 221.475C599.984 221.88 599.858 222.296 599.742 222.721C599.336 224.092 598.95 225.493 598.583 226.922C596.062 236.861 592.787 245.147 590.903 249.957C590.353 251.348 589.918 252.449 589.657 253.202Z" fill="#EE9849"/>
<path d="M589.657 253.202C589.396 253.898 590.614 255.144 591.164 255.636C593.569 257.78 595.946 259.664 598.467 261.257C614 238.918 612.406 211.971 612.406 211.971L599.742 222.721C599.336 224.092 598.95 225.493 598.583 226.922C596.062 236.861 592.787 245.147 590.903 249.957C590.353 251.348 589.918 252.449 589.657 253.202Z" fill="#E58638"/>
<path d="M622.839 188.82C622.839 188.82 622.848 188.859 622.868 188.936C623.07 189.834 624.432 195.745 628.837 198.701C630.054 196.064 630.576 194.499 630.576 194.499L625.476 186.85C624.259 187.603 623.331 188.385 622.984 188.675C622.887 188.772 622.839 188.82 622.839 188.82Z" fill="#ED975D"/>
<path d="M633.59 194.702C633.59 194.702 622.317 195.05 622.201 188.009C622.085 180.997 620.55 176.303 627.765 175.781C634.952 175.26 636.401 177.925 637.01 180.272C637.618 182.59 636.517 194.412 633.59 194.702Z" fill="#FFB27D"/>
<path d="M621.709 243.206L620.694 242.829C620.202 242.656 619.651 242.916 619.477 243.409L619.245 244.046C619.071 244.539 619.332 245.089 619.825 245.263L620.839 245.64C621.332 245.814 621.882 245.553 622.056 245.06L622.288 244.423C622.462 243.93 622.201 243.38 621.709 243.206Z" fill="#739CF3"/>
<path d="M623.911 247.147L619.651 259.055C619.361 259.867 618.463 260.301 617.651 260.012L613.16 258.389C612.348 258.099 611.913 257.201 612.203 256.39L616.463 244.481C616.753 243.699 617.651 243.264 618.463 243.554L622.984 245.176C623.795 245.466 624.201 246.364 623.911 247.147Z" fill="#B2CBFD"/>
<path d="M623.737 247.639L619.651 259.055C619.361 259.867 618.463 260.301 617.651 260.011L613.16 258.389C612.348 258.099 611.913 257.201 612.203 256.39L616.202 245.205C616.898 245.437 618.434 245.959 619.303 246.712C620.144 247.407 622.549 247.581 623.737 247.639Z" fill="#739CF3"/>
<path d="M615.913 246.046L613.247 253.492L620.694 256.187L623.36 248.711L615.913 246.046Z" fill="#415DA5"/>
<path d="M620.173 249.03C618.144 247.784 613.45 247.263 613.45 247.263C613.45 247.263 602.843 233.499 601.22 230.37C599.597 227.241 618.086 217.795 618.724 212.551C619.361 207.335 620.405 197.628 612.928 198.063C612.928 198.063 595.135 212.348 588.035 230.022C588.035 230.022 596.004 244.916 609.914 251.464C609.914 251.464 617.97 256.303 619.361 256.621C620.781 256.969 621.911 255.318 622.404 254.361C622.897 253.434 622.172 250.276 620.173 249.03Z" fill="#FFB27D"/>
<path d="M616.202 218.606C616.202 218.606 609.45 209.508 602.959 207.683C602.698 207.596 602.611 207.277 602.785 207.074C604.263 205.278 609.885 198.643 614.869 196.325C614.869 196.325 623.679 200.932 622.549 205.539C621.448 210.146 616.202 218.606 616.202 218.606Z" fill="#EE9849"/>
<path d="M642.226 179.693C643.443 177.81 643.907 176.158 643.907 176.158C643.907 176.158 641.907 177.578 638.835 174.478C635.764 171.348 630.026 167.408 625.041 169.668C624.732 169.803 624.423 169.957 624.114 170.131C624.52 169.03 625.505 167.726 625.505 167.726C623.505 168.798 622.375 171.348 622.375 171.348C622.317 171.406 622.25 171.454 622.172 171.493C620.926 171.493 618.666 172.884 618.666 172.884C619.332 172.536 620.173 172.652 620.839 172.855C618.289 175.752 617.014 179.635 618.347 182.272C620.318 186.154 621.1 185.198 622.404 189.863C622.404 189.863 624.114 189.573 624.143 188.385C624.172 187.226 622.926 184.416 624.954 184.445C627.012 184.474 626.461 185.952 627.505 185.662C628.519 185.343 628.084 181.46 632.489 182.04C636.894 182.59 641.038 181.605 642.226 179.693Z" fill="#233862"/>
<path d="M468.263 345.198C468.263 344.985 468.253 344.773 468.234 344.56L495.735 339.953L495.59 339.084L468.089 343.72C467.77 342.3 466.959 341.054 465.858 340.185L482.55 316.339L481.854 315.846L465.829 338.707L474.464 312.833L473.624 312.543L464.669 339.432C463.945 339.055 463.134 338.823 462.264 338.765V310.051H461.395V338.765C460.893 338.804 460.41 338.901 459.946 339.055L451.049 314.195L450.209 314.513L458.7 338.128L441.631 318.512L440.993 319.091L458.758 339.548C457.83 340.04 457.048 340.765 456.468 341.663L455.454 341.489L430.59 328.885L430.213 329.667L452.527 340.968L427.634 336.708L427.489 337.548L455.164 342.329L455.889 342.677C455.57 343.459 455.396 344.3 455.396 345.198C455.396 345.372 455.406 345.546 455.425 345.719L427.924 349.776L428.069 350.645L455.541 346.56C455.599 346.83 455.667 347.091 455.744 347.342L430.677 358.121L430.996 358.903L456.092 348.124C456.092 348.144 456.101 348.153 456.121 348.153L436.415 368.03L437.023 368.639L456.584 348.936C456.99 349.486 457.454 349.979 458.004 350.384L443.573 373.13L444.297 373.593L458.758 350.848C458.874 350.925 458.999 350.993 459.134 351.051C455.541 360.555 448.905 377.968 448.76 378.461L449.571 378.722C449.716 378.287 455.541 362.959 459.946 351.37C460.554 351.543 461.163 351.63 461.829 351.63C461.945 351.63 462.052 351.63 462.148 351.63L459.859 379.214L460.728 379.272L463.047 351.514C463.317 351.476 463.588 351.408 463.858 351.312C468.379 362.496 474.349 377.157 474.522 377.65L475.334 377.36C475.189 376.867 468.408 360.207 464.641 350.993C464.737 350.954 464.824 350.906 464.901 350.848L480.231 375.1L480.956 374.636L465.626 350.384C466.234 349.95 466.785 349.399 467.191 348.762L489.968 364.553L490.461 363.829L467.625 348.008C468.031 347.168 468.263 346.212 468.263 345.198Z" fill="#2C3A64"/>
<path fill-rule="evenodd" clip-rule="evenodd" d="M461.83 382.952C440.993 382.952 424.07 366.031 424.07 345.198C424.07 324.394 440.993 307.443 461.83 307.443C482.637 307.443 499.59 324.394 499.59 345.198C499.59 351.862 497.822 358.439 494.489 364.176C491.215 369.769 486.52 374.492 480.927 377.766C475.16 381.156 468.553 382.952 461.83 382.952ZM461.83 312.688C443.891 312.688 429.315 327.262 429.315 345.198C429.315 363.133 443.891 377.708 461.83 377.708C467.625 377.708 473.305 376.172 478.29 373.246C483.1 370.435 487.129 366.379 489.969 361.54C492.837 356.585 494.344 350.935 494.344 345.198C494.344 327.262 479.768 312.688 461.83 312.688Z" fill="#2C3A64"/>
<path fill-rule="evenodd" clip-rule="evenodd" d="M462.119 378.664C443.775 378.664 428.851 363.771 428.851 345.43C428.851 327.089 443.775 312.166 462.119 312.166C480.463 312.166 495.388 327.089 495.388 345.43C495.388 363.771 480.463 378.664 462.119 378.664ZM462.119 313.499C444.529 313.499 430.213 327.813 430.213 345.43C430.213 363.017 444.529 377.331 462.119 377.331C479.71 377.331 494.026 363.017 494.026 345.43C494.026 327.813 479.71 313.499 462.119 313.499Z" fill="#B84C42"/>
<path d="M444.906 296.288C444.355 294.868 443.022 293.999 441.602 293.912C425.316 256.477 425.142 256.187 424.881 255.781L422.534 260.446C422.389 260.243 431.431 280.294 437.864 295.013L436.937 295.361L459.396 343.401L463.018 341.924L444.906 296.288Z" fill="#B84C42"/>
<path d="M392.453 175.55C392.424 175.086 391.903 170.16 384.368 170.189C384.368 170.189 388.077 170.479 388.773 172.102C388.773 172.102 386.194 170.189 384.165 170.914C382.137 171.609 381.093 175.26 381.122 176.419C381.151 177.607 382.426 181.374 383.731 181.634C384.223 181.75 384.803 181.692 385.324 181.576C384.996 182.137 384.677 182.755 384.368 183.431C381.615 189.689 384.919 195.571 387.44 194.818C389.034 194.325 389.613 197.078 389.613 197.078L404.914 183.72C404.914 183.72 398.684 171.928 392.453 175.55Z" fill="#2C3A64"/>
<path d="M387.179 256.39C387.179 256.39 390.019 262.243 393.583 270.385C397.583 279.512 402.509 291.478 405.465 301.214C407.001 306.371 408.015 310.892 408.015 314.021C408.015 315.093 403.842 319.497 402.654 321.149C395.061 331.696 384.716 345.777 384.716 345.777L381.876 345.082C381.876 345.082 385.846 327.465 391.613 318.657C392.743 316.947 395.931 314.832 395.786 314.629C395.293 314.021 394.047 312.456 392.366 310.225C387.672 304.082 379.557 292.869 374.138 282.438C373.791 281.781 373.462 281.134 373.153 280.497C370.284 274.673 368.4 269.226 368.574 265.169L387.179 256.39Z" fill="#ED975D"/>
<path d="M379.384 345.748L381.325 346.994C382.05 347.313 382.658 347.429 383.383 347.748C384.455 348.269 384.658 348.965 384.716 349.138C384.716 349.158 384.716 349.167 384.716 349.167L392.975 354.383C393.381 354.209 393.612 353.398 393.728 352.789C393.815 352.355 393.699 351.92 393.41 351.572C392.685 350.761 391.091 349.457 390.425 347.023C390.048 345.661 387.99 341.344 387.99 341.344C387.904 341.286 387.469 341.17 385.093 341.489C383.875 341.663 383.557 339.171 383.557 339.171C383.557 339.171 383.151 339.229 382.716 339.49C382.368 339.722 381.963 340.069 381.731 340.649C381.383 341.489 380.108 342.619 379.21 343.343C378.659 343.778 378.224 344.097 378.224 344.097C378.224 344.097 377.848 344.502 379.384 345.748Z" fill="#B84C42"/>
<path d="M382.716 339.49C382.977 340.127 383.528 341.373 384.136 341.866C384.948 342.561 387.991 341.344 387.991 341.344C387.904 341.286 387.469 341.17 385.093 341.489C383.876 341.663 383.557 339.171 383.557 339.171C383.557 339.171 383.151 339.229 382.716 339.49Z" fill="#AA3E39"/>
<path d="M379.384 345.748L381.325 346.994C382.05 347.313 382.658 347.429 383.383 347.748C384.455 348.269 384.658 348.965 384.716 349.138C384.716 349.158 384.716 349.167 384.716 349.167L392.975 354.383C393.381 354.209 393.612 353.398 393.728 352.789C393.612 352.384 392.801 353.543 392.54 353.659C392.279 353.745 385.759 349.457 385.556 348.936C385.353 348.414 384.513 347.197 382.658 346.589C381.064 346.038 379.557 343.894 379.21 343.343C378.659 343.778 378.224 344.097 378.224 344.097C378.224 344.097 377.848 344.502 379.384 345.748Z" fill="#AA3E39"/>
<path fill-rule="evenodd" clip-rule="evenodd" d="M394.772 348.095L392.251 346.473L393.323 349.776L389.556 350.964L380.34 322.105L346.724 343.662L388.049 347.255L387.701 351.167L335.335 346.589L378.775 317.237L367.386 281.569L371.125 280.381L382.166 314.948L431.749 281.424L431.778 281.395L432.474 280.931L432.068 281.714L436.444 286.263L394.772 348.095ZM391.903 345.285L423.664 294.405L383.789 319.932L391.903 345.285Z" fill="#D8716B"/>
<path d="M445.92 249.928C445.138 247.349 442.414 245.843 439.806 246.625C437.748 247.234 436.386 249.088 436.299 251.116L414.362 256.621C413.145 255.289 411.203 254.68 409.348 255.231C406.74 256.013 405.262 258.737 406.045 261.344C406.798 263.952 409.551 265.43 412.159 264.676C413.434 264.271 414.449 263.431 415.028 262.358L439.95 256.1C440.791 256.332 441.718 256.332 442.617 256.042C445.225 255.289 446.703 252.536 445.92 249.928Z" fill="#415DA5"/>
<path d="M400.278 338.881L407.638 343.141C408.508 343.633 408.798 344.763 408.305 345.604C407.812 346.473 406.682 346.791 405.813 346.27L398.452 342.04C397.583 341.518 397.293 340.417 397.786 339.548C398.278 338.679 399.408 338.389 400.278 338.881Z" fill="#415DA5"/>
<path d="M401.727 341.634L392.424 351.92L391.584 351.167L400.857 340.881L401.727 341.634Z" fill="#415DA5"/>
<path d="M379.355 302.083C378.92 300.866 377.558 300.2 376.312 300.634L374.138 301.388C372.429 301.996 370.545 301.88 368.922 301.069C360.982 297.128 351.332 295.129 340.146 295.129C340.01 295.129 339.875 295.129 339.74 295.129C334.756 295.158 325.83 296.375 322.005 296.926C320.961 297.099 320.179 297.998 320.179 299.041V300.432C320.179 300.837 320.556 301.127 320.932 301.04C328.003 299.562 352.462 295.535 370.139 306.227C370.632 306.516 371.24 306.574 371.791 306.4L378.427 304.053C379.21 303.793 379.644 302.894 379.355 302.083Z" fill="#B84C42"/>
<path d="M355.36 279.483C355.36 279.483 354.664 276.266 356.693 276.064C358.692 275.832 366.053 277.425 368.024 277.194C369.994 276.991 380.253 275.281 382.05 277.049C383.846 278.787 383.093 280.323 379.499 280.642C375.877 280.96 371.095 281.569 369.733 282.699C368.371 283.858 358.489 287.248 355.36 279.483Z" fill="#415DA5"/>
<path d="M381.615 350.355C381.615 344.937 386.02 340.533 391.439 340.533C396.858 340.533 401.263 344.937 401.263 350.355C401.263 355.774 396.858 360.178 391.439 360.178C386.02 360.178 381.615 355.774 381.615 350.355Z" fill="#415DA5"/>
<path d="M345.13 345.198C345.13 344.985 345.12 344.773 345.101 344.56L372.602 339.953L372.457 339.084L344.956 343.72C344.608 342.3 343.826 341.054 342.725 340.185L359.417 316.339L358.692 315.846L342.696 338.707L351.331 312.833L350.491 312.543L341.536 339.432C340.812 339.055 340.001 338.823 339.131 338.765V310.051H338.262V338.765C337.759 338.804 337.276 338.901 336.813 339.055L327.887 314.195L327.076 314.513L335.567 338.128L318.498 318.512L317.831 319.091L335.625 339.548C334.697 340.04 333.915 340.765 333.306 341.663L332.321 341.489L307.457 328.885L307.051 329.667L329.394 340.968L304.501 336.708L304.356 337.548L332.031 342.329L332.756 342.677C332.437 343.459 332.263 344.3 332.263 345.198C332.263 345.372 332.263 345.546 332.263 345.719L304.791 349.776L304.936 350.645L332.408 346.56C332.466 346.83 332.534 347.091 332.611 347.342L307.515 358.121L307.862 358.903L332.959 348.124C332.959 348.144 332.968 348.153 332.988 348.153L313.282 368.03L313.89 368.639L333.451 348.936C333.828 349.486 334.321 349.979 334.871 350.384L320.411 373.13L321.164 373.593L335.625 350.848C335.741 350.925 335.866 350.993 336.001 351.051C332.379 360.555 325.772 377.968 325.627 378.461L326.438 378.722C326.583 378.287 332.408 362.959 336.813 351.37C337.421 351.543 338.03 351.63 338.696 351.63C338.793 351.63 338.899 351.63 339.015 351.63L336.726 379.214L337.595 379.272L339.885 351.514C340.174 351.476 340.445 351.408 340.696 351.312C345.246 362.496 351.216 377.157 351.36 377.65L352.201 377.36C352.027 376.867 345.275 360.207 341.507 350.993C341.585 350.954 341.672 350.906 341.768 350.848L357.098 375.1L357.823 374.636L342.493 350.384C343.101 349.95 343.623 349.399 344.058 348.762L366.806 364.553L367.328 363.829L344.492 348.008C344.898 347.168 345.13 346.212 345.13 345.198Z" fill="#2C3A64"/>
<path fill-rule="evenodd" clip-rule="evenodd" d="M338.697 382.952C317.86 382.952 300.937 366.031 300.937 345.198C300.937 324.394 317.86 307.443 338.697 307.443C359.504 307.443 376.457 324.394 376.457 345.198C376.457 351.862 374.689 358.439 371.356 364.176C368.082 369.769 363.387 374.492 357.794 377.766C352.027 381.156 345.42 382.952 338.697 382.952ZM338.697 312.688C320.758 312.688 306.182 327.262 306.182 345.198C306.182 363.133 320.758 377.708 338.697 377.708C344.492 377.708 350.172 376.172 355.128 373.246C359.967 370.435 363.995 366.379 366.806 361.54C369.704 356.585 371.211 350.935 371.211 345.198C371.211 327.262 356.635 312.688 338.697 312.688Z" fill="#2C3A64"/>
<path fill-rule="evenodd" clip-rule="evenodd" d="M338.986 378.664C320.642 378.664 305.718 363.771 305.718 345.43C305.718 327.089 320.642 312.166 338.986 312.166C357.33 312.166 372.255 327.089 372.255 345.43C372.255 363.771 357.33 378.664 338.986 378.664ZM338.986 313.499C321.367 313.499 307.051 327.813 307.051 345.43C307.051 363.017 321.367 377.331 338.986 377.331C356.577 377.331 370.893 363.017 370.893 345.43C370.893 327.813 356.577 313.499 338.986 313.499Z" fill="#B84C42"/>
<path d="M435.546 249.32C435.546 249.32 433.111 248.537 431.199 248.624C429.315 248.682 426.591 246.915 426.591 246.915C426.591 246.915 416.709 240.482 414.565 238.251C409.986 233.528 405.61 209.189 401.611 211.015C401.611 211.015 396.25 214.028 396.887 221.62C397.525 229.24 404.509 241.207 409.812 244.191C413.695 246.364 424.417 249.696 425.982 250.16C427.75 250.855 429.953 252.536 430.619 252.739C431.315 252.971 433.227 252.304 434.299 252.739C438.27 254.332 438.328 253.087 438.328 253.087C438.067 250.073 435.546 249.32 435.546 249.32Z" fill="#ED975D"/>
<path d="M401.06 228.11C400.828 229.82 400.365 231.297 399.814 232.717C399.35 233.876 398.8 235.006 398.249 236.165C396.626 239.613 392.83 241.294 392.685 247.871C392.656 250.16 390.744 255.26 391.816 258.968C397.119 277.252 362.547 260.62 364.43 255.781C368.14 246.133 373.443 240.569 373.356 232.63C373.356 232.611 373.346 232.592 373.327 232.572C373.298 232.167 373.24 231.152 373.182 229.791C373.037 226.459 372.863 221.127 372.805 218.432C372.805 218.375 372.796 218.317 372.776 218.259C372.747 217.1 372.718 216.259 372.689 216.057C375.24 205.133 381.151 205.075 383.18 205.104C383.933 205.133 384.716 205.162 385.353 205.22C386.628 204.496 388.831 201.134 389.961 195.6L390.425 195.803L398.162 199.106C398.162 199.106 397.438 201.598 396.945 204.003C396.539 205.886 396.279 207.683 396.568 208.175C397.177 208.378 397.554 208.523 397.554 208.523C397.699 208.842 402.306 219.418 401.06 228.11Z" fill="#FFB27D"/>
<path d="M399.814 232.717C399.35 233.876 398.8 235.006 398.249 236.165C396.626 239.613 392.83 241.294 392.685 247.871C392.569 247.89 392.453 247.91 392.337 247.929C378.166 249.03 373.327 232.572 373.327 232.572C373.298 232.167 373.24 231.152 373.182 229.791L398.771 229.82C398.771 229.82 399.292 230.979 399.814 232.717Z" fill="#ED975D"/>
<path d="M398.162 199.106C398.162 199.106 397.438 201.598 396.945 204.003C392.453 202.931 390.917 198.295 390.425 195.803L398.162 199.106Z" fill="#ED975D"/>
<path d="M406.305 217.042C405.871 215.912 403.784 211.565 403.784 211.565C403.784 211.565 402.132 210.117 397.554 208.523C397.641 208.784 399.814 215.68 399.177 217.187C398.51 218.722 384.832 214.347 384.078 213.275C383.441 212.406 383.238 207.683 383.209 205.857C383.18 205.394 383.18 205.104 383.18 205.104C383.18 205.104 378.109 204.611 375.327 205.857C375.327 205.857 376.544 208.262 377.065 210.899C377.104 211.169 377.143 211.43 377.181 211.681C377.239 212.203 377.297 212.753 377.268 213.275C377.239 214.608 376.051 215.709 374.399 216.984C373.907 217.389 373.356 217.795 372.776 218.259C372.796 218.317 372.805 218.375 372.805 218.432C372.892 222.228 373.211 231.239 373.327 232.572C373.346 232.592 373.356 232.611 373.356 232.63C375.761 232.514 381.383 232.369 387.092 233.065C388.918 233.297 390.773 233.615 392.54 234.05C394.656 234.571 396.597 235.267 398.249 236.165C398.326 236.204 398.394 236.242 398.452 236.281C398.452 236.281 400.712 231.384 403.176 225.531C403.253 225.319 403.33 225.106 403.407 224.894C404.19 222.576 403.958 220.229 403.581 218.114C404.827 217.071 406.305 217.042 406.305 217.042Z" fill="#739CF3"/>
<path d="M399.205 201.685C399.205 201.685 388.454 199.628 389.845 192.963C391.236 186.299 390.773 181.547 397.699 182.561C404.625 183.605 405.407 186.415 405.494 188.762C405.581 191.109 402.016 202.062 399.205 201.685Z" fill="#FFB27D"/>
<path d="M398.452 236.281C398.394 236.242 398.326 236.204 398.249 236.165C396.597 235.267 394.656 234.572 392.54 234.05C390.773 233.615 388.918 233.297 387.092 233.065C381.383 232.369 375.761 232.514 373.356 232.63C373.356 232.611 373.346 232.592 373.327 232.572C373.211 231.239 372.892 222.228 372.805 218.432C372.805 218.375 372.796 218.317 372.776 218.259C373.356 217.795 373.907 217.389 374.399 216.984C381.354 220.374 394.453 227.647 398.452 236.281Z" fill="#6488D3"/>
<path d="M405.958 184.995C404.712 182.648 403.379 182.822 402.538 183.286C397.38 178.853 392.598 182.793 392.598 182.793C390.888 187.429 386.86 189.458 386.86 189.458C386.86 189.458 388.57 191.051 393.294 190.848C394.743 190.79 396.192 190.066 397.467 189.11C395.004 191.776 392.077 193.456 392.077 193.456C397.959 192.094 401.698 185.082 402.074 184.329C402.596 185.053 403.61 186.589 403.755 187.922C403.929 189.747 403.436 193.282 404.48 193.369C404.48 193.369 407.812 188.53 405.958 184.995Z" fill="#2C3A64"/>
<path d="M364.083 256.506C364.083 256.506 356.084 269.168 365.966 276.122C375.819 283.076 409.059 286.408 407.436 287.769C402.451 291.884 397.931 298.258 398.162 336.274L400.626 337.548C400.626 337.548 424.302 286.031 422.737 279.888C421.665 275.803 387.121 253.811 364.083 256.506Z" fill="#FFB27D"/>
<path d="M383.238 282.844C383.238 282.844 363.097 279.512 361.04 272.413C359.475 267.081 359.011 264.937 368.14 247.784C368.14 247.784 371.965 255.028 391.845 253.347C391.845 253.347 391.758 254.274 391.758 255.549C391.787 257.665 392.105 260.649 393.757 261.518C393.786 261.547 393.844 261.547 393.873 261.576C396.481 262.764 400.538 265.169 401.147 265.401C401.176 265.401 388.918 267.748 383.238 282.844Z" fill="#EE9849"/>
<path d="M393.757 261.518C384.89 258.91 374.66 258.302 374.66 258.215C382.166 256.274 387.672 255.549 391.758 255.549C391.787 257.665 392.106 260.649 393.757 261.518Z" fill="#E58638"/>
<path d="M394.83 338.128L396.887 339.113C397.64 339.345 398.249 339.403 399.003 339.635C400.162 340.011 400.451 340.707 400.509 340.852C400.509 340.871 400.509 340.881 400.509 340.881L409.319 345.111C409.696 344.908 409.841 344.068 409.87 343.43C409.928 342.996 409.754 342.561 409.406 342.271C408.624 341.576 406.885 340.446 405.929 338.099C405.407 336.795 402.857 332.739 402.857 332.739C402.77 332.681 402.335 332.623 400.017 333.231C398.8 333.55 398.191 331.116 398.191 331.116C398.191 331.116 397.814 331.203 397.409 331.522C397.061 331.782 396.742 332.188 396.568 332.797C396.307 333.637 395.177 334.912 394.366 335.752C393.873 336.245 393.467 336.592 393.467 336.592C393.467 336.592 393.149 337.056 394.83 338.128Z" fill="#B84C42"/>
<path d="M397.408 331.522C397.727 332.101 398.452 333.289 399.089 333.724C399.959 334.303 402.857 332.739 402.857 332.739C402.77 332.681 402.335 332.623 400.017 333.231C398.799 333.55 398.191 331.116 398.191 331.116C398.191 331.116 397.814 331.203 397.408 331.522Z" fill="#AA3E39"/>
<path d="M394.83 338.128L396.887 339.113C397.64 339.345 398.249 339.403 399.003 339.635C400.162 340.011 400.451 340.707 400.509 340.852C400.509 340.871 400.509 340.881 400.509 340.881L409.319 345.111C409.696 344.908 409.841 344.068 409.87 343.43C409.725 343.054 409.029 344.3 408.798 344.444C408.566 344.56 401.582 341.054 401.321 340.562C401.031 340.069 400.075 338.968 398.162 338.563C396.539 338.215 394.772 336.245 394.366 335.752C393.873 336.245 393.467 336.592 393.467 336.592C393.467 336.592 393.149 337.056 394.83 338.128Z" fill="#AA3E39"/>
<path d="M421.114 252.739C421.114 252.739 418.68 251.956 416.796 252.014C414.883 252.101 412.188 250.334 412.188 250.334C412.188 250.334 393.67 241.497 391.642 238.251C388.976 234.021 384.484 219.707 380.485 211.565C378.572 207.683 376.775 205.191 375.327 205.857C375.327 205.857 371.704 207.016 371.936 214.376C371.936 214.782 371.955 215.207 371.994 215.651C372.689 224.169 381.615 244.307 387.498 247.755C393.381 251.174 411.406 253.637 411.406 253.637C413.289 253.579 415.463 255.926 416.187 256.158C416.912 256.39 418.998 255.897 419.868 256.158C423.867 257.404 423.896 256.506 423.896 256.506C423.664 253.492 421.114 252.739 421.114 252.739Z" fill="#FFB27D"/>
<path d="M380.485 211.565C375.558 210.406 371.936 214.376 371.936 214.376C371.704 207.016 375.327 205.857 375.327 205.857C376.775 205.191 378.572 207.683 380.485 211.565Z" fill="#739CF3"/>
<path d="M25.4303 309.559C21.1124 309.037 17.2871 317.759 14.2153 328.595C13.0272 332.739 11.9549 337.172 11.0276 341.547C11.1821 342.011 11.327 342.474 11.4623 342.938C11.5009 342.996 11.5299 343.054 11.5492 343.112C12.4959 346.028 13.4618 348.82 14.4471 351.485C14.4665 351.543 14.4954 351.611 14.5341 351.688C17.6639 344.995 21.1414 337.201 23.7495 330.16C27.8066 319.207 29.8062 310.051 25.4303 309.559Z" fill="#82B378"/>
<path d="M60.4083 316.658C51.4247 314.166 42.0933 323.525 34.0951 335.694C28.2412 344.676 23.0829 355.165 19.2866 363.597C19.5571 364.196 19.8179 364.785 20.0691 365.364C20.7259 366.832 21.3538 368.214 21.9527 369.508C23.8074 373.448 25.4302 376.636 26.6474 378.925C33.1967 371.681 41.0791 362.641 47.9761 353.688C61.2487 336.447 70.8698 319.555 60.4083 316.658Z" fill="#82B378"/>
<path d="M81.9564 359.214C81.67 357.374 80.1807 356.033 78.4623 356.002C70.8439 355.909 62.7673 358.964 55.1202 363.423C45.0674 369.254 34.7305 374.765 28 381.5C28.5 382.5 29.5 384 29.5 384L31.1194 384.938L35.0432 384.969L40.7426 385C51.2824 379.762 63.1969 373.775 70.6434 369.815C72.8774 368.63 74.739 367.632 75.9992 366.884C81.2118 363.86 82.2429 361.178 81.9564 359.214Z" fill="#82B378"/>
<path d="M782.173 385H212.15H34.8533C34.4 385 34 384.6 34 384.147V383.853C34 383.373 34.4 383 34.8533 383H782.173C782.627 383 783 383.373 783 383.853V384.147C783 384.6 782.627 385 782.173 385Z" fill="#2E3552"/>
</svg>
