<svg width="82" height="71" viewBox="0 0 82 71" fill="none" xmlns="http://www.w3.org/2000/svg">
<path d="M43.9134 7.19598L40.5825 10.5342L37.2411 7.19294C28.7221 -1.32627 14.9096 -1.32627 6.39042 7.19294C0.437009 13.1463 -1.35603 21.6846 1.01122 29.1951H15.2168L20.9758 17.0253C22.1296 14.5869 24.5653 13.0127 27.2624 12.962C29.9595 12.9114 32.4526 14.393 33.6972 16.7864L41.7327 32.2386L48.1352 23.866C49.429 22.174 51.4141 21.1521 53.5428 21.0818C55.6715 21.0115 57.7199 21.9004 59.1226 23.5034L64.1024 29.1951H80.1728C82.5454 21.6824 80.7609 13.1547 74.8021 7.19598C66.2673 -1.33877 52.4482 -1.33877 43.9134 7.19598Z" fill="#4EABA7"/>
<path d="M38.4345 70.0878L11.7468 43.4002H19.7136C22.4593 43.4002 24.9591 41.8178 26.1336 39.3356L27.6958 36.0343L34.2854 48.7064C35.4064 50.8619 37.5518 52.295 39.9723 52.5052C42.3928 52.7155 44.7529 51.674 46.229 49.7438L54.1473 39.3891L55.5345 40.9748C56.8832 42.5163 58.8317 43.4002 60.8797 43.4002H69.4429L42.7394 70.0878C41.5507 71.2766 39.6233 71.2766 38.4345 70.0878Z" fill="#4EABA7"/>
<path d="M30.118 18.702C29.5971 17.6601 28.5272 17.0069 27.3625 17.0195C26.1977 17.0321 25.1423 17.7084 24.644 18.7613L17.786 33.2537H3.04394C1.36283 33.2537 0 34.6166 0 36.2976C0 37.9787 1.36283 39.3416 3.04394 39.3416H19.7131C20.8898 39.3416 21.9612 38.6634 22.4645 37.5996L27.4707 27.0205L37.8633 47.8053C38.3394 48.7579 39.2785 49.3918 40.3399 49.4779C41.4012 49.5643 42.43 49.0895 43.0534 48.2262L54.0043 33.0637L58.5881 38.3022C59.166 38.9625 60.0008 39.3416 60.8787 39.3416H78.1277C79.8087 39.3416 81.1716 37.9787 81.1716 36.2976C81.1716 34.6166 79.8087 33.2537 78.1277 33.2537H62.2598L56.0669 26.1759C55.4564 25.4779 54.5607 25.0966 53.6341 25.1398C52.7076 25.1832 51.8516 25.6463 51.3086 26.3983L41.0607 40.5875L30.118 18.702Z" fill="#4EABA7"/>
</svg>
