<svg width="21" height="21" viewBox="0 0 21 21" fill="none" xmlns="http://www.w3.org/2000/svg">
<path d="M8.25 0C12.8063 0 16.5 3.69365 16.5 8.25C16.5 10.2582 15.7825 12.0988 14.5898 13.5294L20.7803 19.7197C21.0732 20.0126 21.0732 20.4874 20.7803 20.7803C20.52 21.0407 20.1158 21.0696 19.8235 20.8671L19.7197 20.7803L13.5294 14.5898C12.0988 15.7825 10.2582 16.5 8.25 16.5C3.69365 16.5 0 12.8063 0 8.25C0 3.69365 3.69365 0 8.25 0ZM8.25 1.5C4.52208 1.5 1.5 4.52208 1.5 8.25C1.5 11.9779 4.52208 15 8.25 15C11.9779 15 15 11.9779 15 8.25C15 4.52208 11.9779 1.5 8.25 1.5Z" fill="#545454"/>
</svg>
