<svg width="591" height="897" viewBox="0 0 591 897" fill="none" xmlns="http://www.w3.org/2000/svg">
<path fill-rule="evenodd" clip-rule="evenodd" d="M233.732 744.995V744.995L233.828 746.209L234.115 747.431L234.59 748.665L235.248 749.92L236.083 751.2L237.087 752.511L238.247 753.859L239.551 755.248L240.981 756.681L242.519 758.161L244.14 759.689L245.819 761.264L247.525 762.885L249.227 764.548L250.887 766.247L252.467 767.974L253.927 769.719L255.224 771.469L256.318 773.211L257.168 774.929L257.736 776.605L257.99 778.223L257.901 779.763L257.449 781.209L256.621 782.544L255.412 783.754L253.828 784.826L251.883 785.752L249.6 786.526L247.01 787.146L244.15 787.616L241.063 787.939L237.794 788.125L234.392 788.185L230.904 788.134L227.378 787.988L223.857 787.764L220.384 787.48L216.995 787.154L213.725 786.806L210.6 786.451L207.646 786.109L204.883 785.796L202.329 785.528L199.996 785.319L197.897 785.186L196.042 785.143L194.439 785.206L193.098 785.389L192.027 785.71L191.236 786.187L190.739 786.84L190.551 787.692L190.692 788.772L191.185 790.11L192.062 791.746L193.364 793.728L195.14 796.114L197.454 798.976L200.387 802.405L204.044 806.516L208.559 811.454L211.9 815.605L205.567 811.805L200.335 808.744L196.009 806.308L192.437 804.406L189.499 802.969L187.102 801.943L185.17 801.286L183.643 800.964L182.472 800.953L181.617 801.233L181.045 801.788L180.728 802.608L180.644 803.685L180.773 805.011L181.095 806.582L181.596 808.394L182.258 810.44L183.067 812.717L184.006 815.218L185.059 817.934L186.209 820.855L187.435 823.966L188.717 827.248L190.031 830.681L191.354 834.237L192.659 837.885L193.918 841.59L195.103 845.312L196.187 849.006L197.14 852.629L197.938 856.131L198.555 859.466L198.972 862.589L199.172 865.456L199.144 868.031L198.882 870.282L198.384 872.185L197.657 873.727L196.71 874.9L195.558 875.708L194.22 876.161L192.72 876.28L191.08 876.091L189.327 875.625L187.487 874.919L185.585 874.011L183.647 872.942L181.693 871.752L179.745 870.481L177.821 869.168L175.934 867.848L174.1 866.555L172.326 865.318L170.621 864.165L168.991 863.119L167.438 862.201L165.964 861.429L164.57 860.818L163.254 860.382L162.013 860.129L160.844 860.069L159.743 860.208L158.705 860.55L157.725 861.096L156.795 861.849L155.91 862.806L155.063 863.964L154.247 865.316L153.453 866.854L152.674 868.567L151.902 870.441L151.128 872.457L150.346 874.594L149.546 876.826L148.721 879.124L147.864 881.454L146.967 883.778L146.025 886.055L145.033 888.24L143.988 890.286L142.888 892.143L141.732 893.765L140.521 895.103L139.26 896.113L137.954 896.756L136.61 897L135.237 896.819L133.845 896.198L132.446 895.131L131.051 893.624L129.673 891.693L128.322 889.365L127.01 886.673L125.746 883.662L124.538 880.379L123.392 876.879L122.312 873.216L121.3 869.446L120.357 865.624L119.482 861.8L118.67 858.025L117.918 854.342L117.22 850.789L116.57 847.402L115.959 844.211L115.381 841.241L114.826 838.515L114.285 836.049L113.75 833.862L113.21 831.968L112.656 830.38L112.076 829.114L111.46 828.185L110.793 827.609L110.064 827.409L109.255 827.61L108.35 828.242L107.327 829.346L106.161 830.97L104.822 833.175L103.275 836.04L101.475 839.663L99.3665 844.168L96.8785 849.714L93.9215 856.505L92.9504 856.074L94.1111 848.641L94.9993 842.523L95.6494 837.495L96.0878 833.384L96.3346 830.052L96.405 827.39L96.3104 825.311L96.0589 823.747L95.6561 822.642L95.1057 821.95L94.4094 821.633L93.5681 821.662L92.5812 822.01L91.448 822.654L90.1672 823.575L88.7376 824.753L87.1582 826.172L85.4291 827.811L83.5512 829.653L81.5271 831.675L79.3615 833.855L77.0612 836.167L74.6359 838.581L72.0983 841.066L69.4646 843.584L66.7541 846.099L63.9898 848.569L61.1976 850.95L58.4064 853.2L55.6472 855.273L52.9522 857.129L50.3541 858.729L47.885 860.038L45.5748 861.027L43.4506 861.677L41.5353 861.972L39.847 861.908L38.398 861.489L37.1945 860.727L36.2368 859.64L35.5189 858.255L35.0296 856.603L34.7526 854.72L34.6677 852.644L34.7513 850.413L34.9778 848.068L35.3202 845.645L35.7509 843.181L36.2427 840.709L36.7689 838.258L37.3045 835.855L37.8258 833.522L38.311 831.278L38.7403 829.137L39.0957 827.113L39.3615 825.214L39.5235 823.447L39.5696 821.815L39.489 820.321L39.2729 818.964L38.9137 817.743L38.4053 816.655L37.743 815.694L36.9236 814.857L35.9453 814.135L34.8079 813.521L33.513 813.007L32.0639 812.581L30.4664 812.234L28.7284 811.952L26.8606 811.722L24.8767 811.531L22.7935 811.361L20.6314 811.196L18.4143 811.019L16.1697 810.811L13.9288 810.553L11.726 810.225L9.59858 809.81L7.58609 809.289L5.72932 808.645L4.06926 807.863L2.64585 806.933L1.49655 805.845L0.654862 804.594L0.148881 803.179L0 801.603L0.221817 799.875L0.819361 798.005L1.7887 796.01L3.11698 793.907L4.78286 791.719L6.75737 789.468L9.00508 787.177L11.4855 784.869L14.1546 782.568L16.9663 780.295L19.8743 778.067L22.8328 775.901L25.7981 773.812L28.7294 771.808L31.5892 769.9L34.3436 768.091L36.9626 766.384L39.4198 764.781L41.6921 763.279L43.7594 761.877L45.6036 760.569L47.2087 759.351L48.5593 758.217L49.6402 757.16L50.4358 756.172L50.9288 755.246L51.0994 754.374L50.9243 753.548L50.3754 752.757L49.4182 751.994L48.0102 751.246L46.0983 750.503L43.6164 749.751L40.4814 748.974L36.5886 748.155L31.8046 747.27L25.9595 746.292L18.8341 745.186L23.8409 744.034L30.0673 743.019L35.1687 742.108L39.3294 741.27L42.6932 740.482L45.3732 739.724L47.4587 738.98L49.0209 738.235L50.1167 737.478L50.7916 736.697L51.0824 735.883L51.0191 735.026L50.6266 734.119L49.9254 733.151L48.9336 732.117L47.6672 731.008L46.1416 729.817L44.3718 728.539L42.3737 727.167L40.1647 725.698L37.764 724.127L35.1938 722.453L32.4795 720.677L29.6498 718.799L26.7374 716.826L23.7786 714.763L20.8133 712.62L17.8844 710.41L15.0369 708.149L12.3174 705.855L9.77196 703.547L7.44553 701.248L5.37988 698.982L3.61221 696.771L2.1737 694.639L1.08821 692.607L0.37138 690.696L0.0300051 688.921L0.0618862 687.295L0.456089 685.829L1.1936 684.525L2.24832 683.386L3.58832 682.406L5.17725 681.578L6.97579 680.892L8.94314 680.333L11.0383 679.886L13.2212 679.532L15.4539 679.254L17.7009 679.032L19.9299 678.847L22.1123 678.68L24.223 678.514L26.2406 678.331L28.147 678.116L29.9276 677.852L31.5709 677.527L33.0679 677.127L34.4124 676.642L35.6002 676.061L36.6292 675.375L37.4991 674.575L38.2112 673.654L38.7682 672.607L39.1743 671.429L39.4353 670.115L39.5581 668.665L39.5513 667.077L39.425 665.352L39.1908 663.495L38.8623 661.51L38.4547 659.405L37.9853 657.192L37.4732 654.886L36.9397 652.503L36.4078 650.064L35.9022 647.596L35.4491 645.126L35.0756 642.687L34.8092 640.313L34.6772 638.041L34.7058 635.912L34.9192 633.963L35.339 632.233L35.9825 630.76L36.8629 629.575L37.9879 628.706L39.359 628.176L40.9722 627.999L42.8168 628.18L44.8768 628.717L47.1305 629.601L49.5522 630.811L52.1126 632.321L54.7802 634.099L57.5225 636.108L60.307 638.306L63.1021 640.65L65.8782 643.097L68.6085 645.602L71.269 648.123L73.8391 650.623L76.3017 653.063L78.643 655.411L80.8524 657.635L82.9221 659.711L84.8469 661.612L86.6236 663.318L88.2508 664.809L89.728 666.066L91.0561 667.071L92.2362 667.805L93.2695 668.25L94.1572 668.383L94.8997 668.18L95.4967 667.611L95.9468 666.641L96.247 665.229L96.3923 663.321L96.3756 660.854L96.1864 657.745L95.811 653.896L95.2309 649.177L94.4218 643.428L93.3522 636.442L92.8632 631.018L95.9924 638.259L98.619 644.177L100.84 648.994L102.732 652.883L104.354 655.977L105.755 658.384L106.972 660.185L108.038 661.449L108.978 662.227L109.816 662.561L110.569 662.486L111.253 662.027L111.884 661.209L112.475 660.048L113.036 658.561L113.579 656.763L114.115 654.668L114.653 652.289L115.202 649.644L115.772 646.749L116.371 643.626L117.008 640.298L117.69 636.795L118.424 633.15L119.216 629.399L120.071 625.586L120.992 621.758L121.982 617.965L123.04 614.262L124.166 610.704L125.355 607.346L126.602 604.243L127.9 601.445L129.239 598.996L130.61 596.935L132.001 595.291L133.4 594.083L134.795 593.32L136.175 593L137.53 593.111L138.849 593.63L140.125 594.527L141.352 595.765L142.526 597.301L143.644 599.089L144.706 601.08L145.715 603.226L146.672 605.479L147.582 607.792L148.452 610.125L149.286 612.437L150.093 614.694L150.881 616.864L151.656 618.921L152.427 620.842L153.203 622.608L153.992 624.203L154.8 625.616L155.637 626.836L156.509 627.857L157.423 628.675L158.387 629.288L159.406 629.695L160.486 629.898L161.633 629.9L162.85 629.709L164.142 629.33L165.512 628.773L166.96 628.051L168.488 627.178L170.094 626.171L171.775 625.049L173.528 623.836L175.344 622.557L177.215 621.243L179.129 619.924L181.071 618.635L183.025 617.416L184.971 616.304L186.887 615.34L188.749 614.565L190.533 614.019L192.211 613.737L193.759 613.755L195.151 614.1L196.364 614.793L197.378 615.849L198.177 617.273L198.749 619.063L199.086 621.205L199.188 623.68L199.06 626.458L198.71 629.503L198.155 632.776L197.412 636.23L196.506 639.819L195.461 643.496L194.305 647.214L193.066 650.928L191.773 654.599L190.453 658.188L189.133 661.663L187.838 664.996L186.592 668.163L185.416 671.146L184.33 673.929L183.353 676.499L182.5 678.849L181.79 680.969L181.236 682.856L180.855 684.504L180.663 685.909L180.677 687.065L180.917 687.968L181.405 688.609L182.167 688.978L183.233 689.061L184.642 688.841L186.439 688.294L188.681 687.389L191.437 686.089L194.796 684.342L198.867 682.084L203.791 679.234L209.749 675.684L210.203 676.76L205.382 681.999L201.468 686.355L198.316 689.987L195.815 693.019L193.875 695.548L192.429 697.652L191.421 699.393L190.809 700.821L190.559 701.979L190.645 702.901L191.046 703.614L191.744 704.145L192.727 704.513L193.983 704.739L195.504 704.838L197.28 704.827L199.302 704.721L201.561 704.535L204.046 704.284L206.745 703.984L209.639 703.649L212.712 703.297L215.939 702.944L219.294 702.609L222.744 702.31L226.254 702.065L229.783 701.892L233.288 701.809L236.723 701.833L240.039 701.977L243.189 702.255L246.127 702.677L248.807 703.249L251.191 703.975L253.247 704.853L254.948 705.879L256.277 707.046L257.226 708.342L257.797 709.754L258 711.266L257.853 712.861L257.381 714.521L256.617 716.228L255.597 717.964L254.359 719.713L252.947 721.461L251.401 723.195L249.762 724.904L248.07 726.579L246.361 728.214L244.67 729.804L243.027 731.347L241.461 732.842L239.994 734.29L238.648 735.693L237.44 737.053L236.385 738.376L235.495 739.665L234.78 740.927L234.246 742.167L233.899 743.392L233.742 744.608L233.732 744.995Z" fill="#09837E"/>
<path fill-rule="evenodd" clip-rule="evenodd" d="M535.414 715.01V715.01L535.544 716.08L535.933 717.159L536.581 718.256L537.487 719.377L538.649 720.533L540.063 721.731L541.726 722.98L543.632 724.286L545.772 725.658L548.135 727.103L550.708 728.626L553.472 730.232L556.406 731.925L559.482 733.706L562.667 735.576L565.924 737.533L569.207 739.57L572.467 741.68L575.649 743.852L578.693 746.071L581.536 748.318L584.116 750.572L586.368 752.81L588.231 755.005L589.652 757.13L590.583 759.157L590.986 761.058L590.839 762.809L590.131 764.388L588.866 765.776L587.063 766.962L584.755 767.938L581.988 768.702L578.818 769.26L575.308 769.621L571.528 769.8L567.55 769.817L563.444 769.694L559.282 769.457L555.129 769.133L551.044 768.749L547.083 768.332L543.292 767.91L539.714 767.511L536.385 767.158L533.335 766.879L530.59 766.698L528.175 766.639L526.11 766.728L524.417 766.99L523.118 767.455L522.237 768.153L521.8 769.118L521.791 770.361L522.169 771.872L522.898 773.645L523.945 775.673L525.277 777.951L526.864 780.471L528.674 783.222L530.673 786.19L532.825 789.361L535.088 792.71L537.421 796.213L539.776 799.837L542.102 803.543L544.346 807.288L546.454 811.023L548.37 814.695L550.041 818.248L551.416 821.626L552.451 824.773L553.106 827.634L553.354 830.163L553.175 832.319L552.562 834.069L551.519 835.395L550.061 836.284L548.215 836.74L546.014 836.775L543.501 836.412L540.724 835.684L537.732 834.628L534.577 833.291L531.31 831.718L527.979 829.959L524.63 828.062L521.302 826.076L518.03 824.043L514.846 822.007L511.773 820.002L508.832 818.064L506.038 816.221L503.401 814.498L500.929 812.917L498.626 811.495L496.493 810.249L494.53 809.19L492.735 808.33L491.104 807.677L489.632 807.24L488.313 807.024L487.143 807.035L486.114 807.28L485.22 807.762L484.453 808.486L483.808 809.455L483.276 810.674L482.85 812.146L482.522 813.872L482.284 815.853L482.127 818.09L482.041 820.579L482.016 823.318L482.042 826.297L482.105 829.505L482.193 832.929L482.292 836.546L482.385 840.331L482.456 844.253L482.488 848.272L482.463 852.343L482.362 856.413L482.167 860.425L481.861 864.314L481.427 868.013L480.851 871.45L480.122 874.556L479.231 877.262L478.175 879.505L476.955 881.231L475.574 882.394L474.042 882.965L472.373 882.927L470.585 882.279L468.699 881.037L466.736 879.232L464.722 876.91L462.681 874.128L460.635 870.953L458.607 867.458L456.616 863.719L454.68 859.815L452.81 855.822L451.019 851.814L449.312 847.857L447.693 844.016L446.164 840.346L444.723 836.897L443.367 833.714L442.089 830.838L440.883 828.303L439.739 826.143L438.649 824.392L437.601 823.081L436.582 822.247L435.58 821.928L434.578 822.16L433.563 822.915L432.521 824.153L431.438 825.836L430.304 827.933L429.108 830.41L427.842 833.235L426.499 836.371L425.071 839.78L423.557 843.418L421.952 847.236L420.259 851.178L418.481 855.183L416.623 859.183L414.696 863.106L412.713 866.877L410.69 870.416L408.646 873.647L406.602 876.496L404.582 878.896L402.609 880.786L400.709 882.12L398.904 882.864L397.215 883L395.661 882.526L394.255 881.455L393.008 879.816L391.926 877.652L391.009 875.015L390.255 871.969L389.656 868.58L389.2 864.918L388.874 861.054L388.663 857.058L388.548 852.992L388.512 848.918L388.536 844.887L388.602 840.948L388.693 837.138L388.792 833.492L388.882 830.037L388.95 826.793L388.983 823.776L388.967 820.999L388.892 818.469L388.747 816.192L388.522 814.17L388.209 812.404L387.799 810.892L387.285 809.633L386.658 808.623L385.911 807.861L385.038 807.341L384.03 807.059L382.883 807.01L381.589 807.19L380.141 807.593L378.536 808.212L376.767 809.04L374.831 810.067L372.726 811.285L370.45 812.679L368.004 814.236L365.393 815.938L362.623 817.764L359.704 819.689L356.652 821.684L353.483 823.718L350.224 825.754L346.903 827.751L343.554 829.665L340.217 831.449L336.937 833.055L333.761 834.433L330.74 835.536L327.925 836.32L325.367 836.743L323.113 836.773L321.208 836.385L319.686 835.565L318.576 834.309L317.894 832.625L317.646 830.532L317.827 828.06L318.419 825.249L319.395 822.144L320.719 818.8L322.346 815.27L324.227 811.613L326.308 807.884L328.534 804.138L330.851 800.422L333.204 796.783L335.544 793.259L337.821 789.883L339.993 786.682L342.019 783.68L343.862 780.894L345.487 778.337L346.862 776.02L347.956 773.951L348.737 772.137L349.174 770.583L349.229 769.298L348.863 768.288L348.051 767.549L346.817 767.05L345.185 766.757L343.178 766.643L340.817 766.68L338.123 766.843L335.12 767.108L331.834 767.451L328.293 767.845L324.534 768.264L320.597 768.684L316.528 769.075L312.381 769.411L308.216 769.663L304.098 769.806L300.095 769.813L296.278 769.661L292.721 769.33L289.492 768.805L286.657 768.074L284.272 767.132L282.386 765.979L281.034 764.622L280.236 763.072L280 761.347L280.317 759.468L281.166 757.46L282.511 755.349L284.308 753.163L286.502 750.931L289.034 748.677L291.84 746.427L294.856 744.203L298.02 742.022L301.271 739.902L304.554 737.852L307.818 735.882L311.017 733.998L314.113 732.202L317.071 730.495L319.864 728.876L322.469 727.34L324.867 725.884L327.043 724.5L328.986 723.184L330.688 721.927L332.143 720.721L333.345 719.559L334.292 718.432L334.981 717.333L335.412 716.251L335.583 715.18L335.494 714.11L335.146 713.033L334.539 711.94L333.674 710.823L332.553 709.673L331.179 708.482L329.555 707.242L327.688 705.945L325.585 704.584L323.256 703.152L320.716 701.642L317.98 700.049L315.072 698.37L312.016 696.603L308.846 694.747L305.598 692.804L302.316 690.779L299.049 688.68L295.851 686.517L292.781 684.304L289.901 682.06L287.275 679.805L284.967 677.563L283.037 675.36L281.543 673.222L280.531 671.178L280.042 669.255L280.1 667.478L280.719 665.871L281.896 664.451L283.616 663.232L285.846 662.223L288.543 661.425L291.653 660.835L295.114 660.444L298.855 660.237L302.807 660.195L306.896 660.297L311.054 660.518L315.213 660.83L319.312 661.207L323.297 661.62L327.118 662.043L330.732 662.448L334.103 662.809L337.199 663.101L339.994 663.3L342.463 663.38L344.585 663.317L346.339 663.084L347.703 662.653L348.652 661.995L349.16 661.073L349.235 659.875L348.915 658.406L348.24 656.674L347.242 654.686L345.953 652.447L344.404 649.965L342.628 647.251L340.656 644.316L338.527 641.176L336.278 637.853L333.953 634.373L331.599 630.766L329.265 627.071L327.004 623.329L324.871 619.589L322.92 615.903L321.207 612.327L319.781 608.917L318.69 605.73L317.972 602.82L317.658 600.235L317.768 598.018L318.312 596.201L319.287 594.807L320.68 593.848L322.467 593.324L324.614 593.223L327.08 593.524L329.818 594.197L332.78 595.203L335.912 596.499L339.164 598.037L342.488 599.77L345.837 601.648L349.171 603.623L352.454 605.651L355.654 607.69L358.746 609.701L361.709 611.652L364.528 613.512L367.19 615.256L369.689 616.861L372.019 618.309L374.179 619.584L376.169 620.674L377.99 621.566L379.647 622.252L381.144 622.725L382.487 622.976L383.68 623.001L384.732 622.794L385.647 622.35L386.433 621.665L387.097 620.735L387.647 619.556L388.089 618.125L388.432 616.44L388.684 614.499L388.854 612.303L388.95 609.853L388.984 607.154L388.965 604.213L388.907 601.04L388.822 597.65L388.724 594.062L388.629 590.301L388.553 586.399L388.514 582.392L388.529 578.327L388.616 574.252L388.795 570.227L389.083 566.314L389.495 562.58L390.048 559.096L390.752 555.933L391.616 553.159L392.645 550.838L393.84 549.027L395.196 547.771L396.705 547.105L398.353 547.046L400.123 547.597L401.995 548.746L403.947 550.464L405.955 552.707L407.994 555.42L410.04 558.537L412.072 561.987L414.07 565.692L416.016 569.575L417.897 573.558L419.702 577.569L421.423 581.538L423.055 585.402L424.599 589.103L426.053 592.59L427.423 595.818L428.713 598.746L429.93 601.337L431.083 603.559L432.181 605.377L433.235 606.761L434.257 607.673L435.261 608.077L436.262 607.932L437.274 607.258L438.311 606.095L439.387 604.48L440.512 602.447L441.697 600.028L442.951 597.256L444.282 594.167L445.696 590.799L447.196 587.194L448.786 583.401L450.465 579.475L452.231 575.476L454.076 571.47L455.993 567.529L457.968 563.73L459.986 560.148L462.028 556.863L464.074 553.948L466.099 551.473L468.081 549.498L469.994 548.073L471.816 547.233L473.524 547L475.101 547.378L476.532 548.355L477.804 549.906L478.913 551.99L479.856 554.555L480.636 557.54L481.259 560.88L481.737 564.503L482.082 568.339L482.311 572.319L482.44 576.378L482.487 580.454L482.471 584.495L482.411 588.452L482.323 592.285L482.224 595.959L482.131 599.446L482.059 602.725L482.02 605.779L482.027 608.594L482.092 611.164L482.225 613.481L482.437 615.544L482.735 617.351L483.129 618.904L483.626 620.203L484.235 621.252L484.962 622.053L485.815 622.612L486.8 622.932L487.925 623.017L489.195 622.873L490.618 622.505L492.198 621.92L493.94 621.125L495.85 620.129L497.928 618.941L500.177 617.573L502.595 616.041L505.18 614.361L507.926 612.554L510.821 610.643L513.854 608.656L517.005 606.626L520.252 604.588L523.566 602.582L526.912 600.652L530.254 598.844L533.546 597.206L536.742 595.789L539.792 594.638L542.643 593.801L545.245 593.318L547.55 593.224L549.514 593.543L551.098 594.294L552.276 595.481L553.027 597.098L553.343 599.127L553.23 601.541L552.702 604.302L551.785 607.363L550.513 610.673L548.931 614.177L547.088 617.818L545.035 621.538L542.828 625.286L540.522 629.009L538.171 632.663L535.826 636.208L533.536 639.61L531.344 642.84L529.292 645.875L527.418 648.697L525.757 651.291L524.34 653.647L523.199 655.756L522.365 657.611L521.871 659.206L521.753 660.535L522.049 661.589L522.791 662.369L523.96 662.905L525.53 663.228L527.478 663.369L529.784 663.355L532.426 663.21L535.382 662.959L538.625 662.627L542.128 662.24L545.855 661.822L549.766 661.401L553.818 661.004L557.955 660.657L562.122 660.389L566.252 660.228L570.279 660.198L574.13 660.323L577.733 660.624L581.019 661.117L583.921 661.815L586.38 662.723L588.348 663.843L589.788 665.168L590.675 666.688L591 668.386L590.77 670.242L590.004 672.232L588.735 674.328L587.006 676.504L584.872 678.731L582.39 680.983L579.623 683.235L576.636 685.465L573.491 687.653L570.25 689.785L566.969 691.846L563.699 693.829L560.486 695.727L557.372 697.537L554.39 699.258L551.569 700.891L548.932 702.44L546.501 703.909L544.288 705.303L542.307 706.63L540.566 707.896L539.072 709.109L537.83 710.278L536.842 711.41L536.112 712.513L535.64 713.597L535.427 714.669L535.414 715.01Z" fill="#7FC6A6"/>
<path fill-rule="evenodd" clip-rule="evenodd" d="M591 533.414V533.414L591 534.501L590.999 535.588L590.997 536.675L590.994 537.763L590.987 538.851L590.978 539.941L590.965 541.031L590.948 542.122L590.926 543.214L590.899 544.307L590.865 545.4L590.825 546.495L590.777 547.59L590.722 548.686L590.659 549.783L590.586 550.88L590.504 551.977L590.411 553.074L590.308 554.171L590.194 555.268L590.069 556.364L589.93 557.459L589.78 558.553L589.616 559.645L589.438 560.736L589.246 561.824L589.04 562.909L588.819 563.992L588.582 565.071L588.33 566.146L588.062 567.217L587.777 568.283L587.476 569.345L587.158 570.4L586.823 571.45L586.47 572.493L586.1 573.529L585.713 574.558L585.308 575.579L584.884 576.592L584.443 577.595L583.984 578.59L583.508 579.574L583.013 580.549L582.501 581.513L581.97 582.466L581.423 583.407L580.858 584.337L580.276 585.254L579.677 586.159L579.061 587.051L578.429 587.929L577.781 588.794L577.117 589.646L576.438 590.483L575.744 591.305L575.035 592.113L574.312 592.907L573.575 593.685L572.825 594.448L572.063 595.196L571.288 595.929L570.501 596.646L569.703 597.348L568.895 598.035L568.076 598.706L567.247 599.362L566.41 600.003L565.564 600.628L564.71 601.239L563.848 601.834L562.979 602.415L562.105 602.981L561.224 603.532L560.338 604.07L559.447 604.593L558.552 605.103L557.653 605.6L556.751 606.083L555.846 606.554L554.939 607.012L554.03 607.459L553.12 607.893L552.208 608.317L551.296 608.729L550.384 609.131L549.472 609.523L548.56 609.905L547.649 610.278L546.74 610.643L545.832 610.998L544.926 611.346L544.022 611.687L543.12 612.021L542.221 612.348L541.324 612.669L540.431 612.984L539.541 613.295L538.654 613.6L537.77 613.902L536.89 614.2L536.013 614.495L535.141 614.788L534.272 615.078L533.407 615.366L532.546 615.654L531.689 615.941L530.835 616.227L529.986 616.514L529.141 616.802L528.299 617.091L527.461 617.382L526.627 617.675L525.796 617.971L524.969 618.27L524.145 618.573L523.325 618.881L522.507 619.193L521.693 619.511L520.881 619.835L520.072 620.165L519.265 620.503L518.46 620.847L517.657 621.2L516.856 621.562L516.056 621.932L515.257 622.313L514.459 622.704L513.661 623.106L512.864 623.519L512.066 623.945L511.267 624.384L510.468 624.836L509.667 625.302L508.865 625.784L508.06 626.281L507.252 626.795L506.441 627.325L505.627 627.874L504.808 628.442L503.985 629.029L503.156 629.637L502.321 630.266L501.48 630.919L500.631 631.594L499.775 632.295L498.909 633.021L498.034 633.774L497.149 634.556L496.253 635.367L495.344 636.209L494.423 637.083L493.487 637.992L492.536 638.936L491.569 639.917L490.584 640.938L489.581 642L488.574 641.104L487.587 640.077L486.617 639.09L485.663 638.14L484.725 637.226L483.802 636.346L482.891 635.499L481.993 634.683L481.106 633.897L480.229 633.139L479.363 632.409L478.505 631.704L477.655 631.025L476.812 630.369L475.976 629.736L475.147 629.124L474.323 628.534L473.503 627.963L472.688 627.411L471.877 626.878L471.069 626.362L470.263 625.862L469.461 625.378L468.659 624.909L467.86 624.455L467.061 624.014L466.263 623.586L465.466 623.171L464.668 622.767L463.87 622.374L463.071 621.992L462.271 621.62L461.47 621.257L460.668 620.903L459.863 620.557L459.057 620.218L458.248 619.887L457.436 619.562L456.622 619.244L455.805 618.93L454.986 618.622L454.162 618.318L453.336 618.018L452.506 617.722L451.672 617.428L450.835 617.137L449.994 616.848L449.149 616.56L448.3 616.273L447.448 615.986L446.591 615.7L445.731 615.412L444.866 615.124L443.998 614.834L443.126 614.542L442.25 614.247L441.37 613.95L440.487 613.649L439.601 613.344L438.711 613.034L437.818 612.719L436.922 612.399L436.023 612.073L435.122 611.741L434.218 611.401L433.312 611.054L432.405 610.7L431.495 610.337L430.585 609.965L429.674 609.585L428.762 609.194L427.849 608.794L426.937 608.383L426.026 607.962L425.115 607.529L424.206 607.084L423.298 606.628L422.393 606.159L421.49 605.678L420.591 605.183L419.695 604.675L418.804 604.154L417.917 603.619L417.035 603.069L416.159 602.506L415.29 601.927L414.427 601.334L413.572 600.726L412.724 600.103L411.886 599.465L411.056 598.812L410.235 598.143L409.425 597.459L408.625 596.759L407.837 596.044L407.06 595.314L406.295 594.568L405.543 593.807L404.805 593.032L404.079 592.241L403.368 591.435L402.672 590.615L401.99 589.78L401.324 588.931L400.673 588.068L400.038 587.192L399.42 586.302L398.818 585.399L398.234 584.484L397.666 583.556L397.116 582.617L396.583 581.665L396.067 580.703L395.57 579.73L395.09 578.747L394.629 577.754L394.185 576.752L393.759 575.741L393.35 574.721L392.96 573.694L392.587 572.659L392.232 571.617L391.894 570.568L391.573 569.513L391.27 568.453L390.982 567.387L390.712 566.317L390.457 565.242L390.218 564.164L389.994 563.082L389.786 561.997L389.592 560.909L389.412 559.819L389.246 558.727L389.093 557.633L388.953 556.539L388.825 555.443L388.709 554.346L388.604 553.249L388.51 552.152L388.427 551.055L388.352 549.958L388.287 548.861L388.231 547.765L388.182 546.669L388.141 545.575L388.106 544.481L388.078 543.388L388.055 542.296L388.037 541.205L388.024 540.114L388.014 539.025L388.007 537.936L388.003 536.848L388.001 535.761L388 534.674L388 533.587L388 532.5L388.001 531.413L388.002 530.326L388.006 529.238L388.012 528.15L388.02 527.061L388.032 525.971L388.049 524.88L388.07 523.788L388.097 522.695L388.129 521.602L388.168 520.507L388.214 519.412L388.268 518.316L388.331 517.22L388.402 516.123L388.483 515.026L388.573 513.928L388.674 512.831L388.787 511.735L388.911 510.638L389.047 509.543L389.195 508.449L389.357 507.357L389.533 506.266L389.722 505.177L389.926 504.092L390.145 503.009L390.379 501.929L390.629 500.853L390.894 499.781L391.176 498.714L391.475 497.652L391.79 496.595L392.123 495.545L392.472 494.501L392.839 493.463L393.224 492.433L393.627 491.411L394.047 490.397L394.485 489.392L394.941 488.396L395.415 487.41L395.907 486.434L396.417 485.468L396.944 484.513L397.489 483.57L398.051 482.638L398.63 481.719L399.227 480.812L399.84 479.918L400.469 479.038L401.115 478.17L401.776 477.317L402.453 476.478L403.145 475.653L403.851 474.842L404.572 474.047L405.307 473.266L406.054 472.5L406.815 471.75L407.588 471.015L408.373 470.295L409.169 469.59L409.976 468.901L410.793 468.228L411.62 467.569L412.456 466.926L413.301 466.298L414.154 465.686L415.014 465.088L415.882 464.505L416.756 463.937L417.635 463.383L418.521 462.843L419.411 462.317L420.305 461.805L421.203 461.307L422.105 460.821L423.009 460.348L423.916 459.888L424.825 459.44L425.735 459.003L426.647 458.578L427.559 458.164L428.471 457.76L429.383 457.367L430.295 456.983L431.206 456.608L432.115 456.243L433.023 455.886L433.93 455.536L434.834 455.195L435.736 454.86L436.636 454.532L437.533 454.21L438.427 453.894L439.318 453.583L440.205 453.276L441.09 452.974L441.97 452.675L442.847 452.38L443.721 452.087L444.59 451.796L445.456 451.507L446.317 451.22L447.175 450.933L448.029 450.647L448.879 450.36L449.725 450.072L450.567 449.783L451.406 449.493L452.241 449.2L453.072 448.905L453.899 448.606L454.724 448.303L455.545 447.996L456.363 447.685L457.177 447.368L457.99 447.045L458.799 446.716L459.607 446.38L460.412 446.036L461.215 445.685L462.016 445.325L462.817 444.955L463.616 444.576L464.414 444.187L465.212 443.787L466.009 443.375L466.807 442.952L467.605 442.515L468.405 442.065L469.205 441.601L470.007 441.122L470.812 440.627L471.619 440.116L472.429 439.588L473.243 439.043L474.061 438.478L474.884 437.894L475.712 437.289L476.545 436.663L477.386 436.015L478.233 435.343L479.088 434.647L479.952 433.925L480.826 433.176L481.709 432.399L482.604 431.593L483.51 430.756L484.43 429.886L485.363 428.983L486.311 428.045L487.276 427.07L488.258 426.055L489.258 425L490.267 425.556L491.257 426.59L492.23 427.584L493.186 428.54L494.126 429.459L495.052 430.344L495.965 431.197L496.865 432.017L497.754 432.808L498.632 433.57L499.5 434.305L500.359 435.013L501.21 435.697L502.054 436.356L502.891 436.993L503.721 437.608L504.547 438.202L505.367 438.775L506.182 439.33L506.994 439.866L507.803 440.385L508.608 440.888L509.412 441.374L510.213 441.845L511.013 442.302L511.812 442.745L512.61 443.174L513.407 443.592L514.205 443.997L515.003 444.392L515.801 444.776L516.601 445.149L517.402 445.514L518.204 445.869L519.009 446.217L519.815 446.556L520.623 446.889L521.434 447.214L522.248 447.534L523.064 447.848L523.884 448.157L524.706 448.462L525.532 448.762L526.362 449.059L527.195 449.353L528.032 449.645L528.872 449.934L529.716 450.223L530.564 450.51L531.416 450.796L532.272 451.083L533.132 451.37L533.996 451.658L534.864 451.948L535.735 452.239L536.61 452.533L537.489 452.831L538.372 453.131L539.258 453.436L540.147 453.744L541.04 454.058L541.935 454.377L542.833 454.703L543.734 455.034L544.638 455.372L545.543 455.718L546.451 456.071L547.36 456.433L548.27 456.803L549.181 457.182L550.093 457.571L551.005 457.97L551.918 458.379L552.829 458.799L553.74 459.23L554.65 459.672L555.558 460.127L556.463 460.594L557.366 461.073L558.266 461.565L559.162 462.071L560.055 462.59L560.942 463.123L561.825 463.67L562.701 464.232L563.572 464.808L564.436 465.398L565.292 466.004L566.141 466.624L566.981 467.26L567.813 467.911L568.635 468.577L569.447 469.259L570.248 469.956L571.038 470.669L571.817 471.397L572.584 472.14L573.338 472.898L574.079 473.672L574.806 474.46L575.519 475.264L576.218 476.082L576.902 476.914L577.571 477.761L578.224 478.622L578.862 479.496L579.482 480.384L580.087 481.284L580.674 482.198L581.245 483.123L581.798 484.061L582.334 485.01L582.852 485.971L583.352 486.942L583.834 487.924L584.299 488.915L584.746 489.916L585.175 490.925L585.586 491.944L585.979 492.97L586.355 494.004L586.713 495.045L587.053 496.093L587.377 497.146L587.683 498.206L587.973 499.271L588.246 500.34L588.504 501.414L588.745 502.492L588.971 503.574L589.182 504.658L589.379 505.746L589.561 506.835L589.729 507.927L589.884 509.02L590.026 510.115L590.156 511.211L590.273 512.307L590.38 513.404L590.475 514.501L590.561 515.599L590.636 516.696L590.703 517.792L590.761 518.889L590.811 519.984L590.853 521.079L590.889 522.173L590.918 523.266L590.942 524.358L590.96 525.45L590.974 526.54L590.985 527.63L590.992 528.718L590.996 529.806L590.999 530.894L591 531.981L591 533.068V533.414Z" fill="#3C8F7C"/>
<path fill-rule="evenodd" clip-rule="evenodd" d="M299.551 399.496L299.598 400.748L299.738 402.004L299.972 403.266L300.3 404.537L300.721 405.822L301.235 407.123L301.843 408.444L302.544 409.787L303.337 411.157L304.223 412.555L305.201 413.987L306.27 415.454L307.429 416.961L308.677 418.509L310.014 420.103L311.437 421.745L312.944 423.439L314.534 425.187L316.203 426.991L317.949 428.855L319.768 430.781L321.656 432.77L323.608 434.824L325.618 436.946L327.681 439.135L329.79 441.393L331.937 443.719L334.113 446.113L336.31 448.575L338.518 451.101L340.726 453.691L342.921 456.341L345.092 459.046L347.225 461.802L349.307 464.603L351.323 467.443L353.258 470.315L355.098 473.209L356.826 476.117L358.427 479.029L359.887 481.935L361.19 484.822L362.323 487.68L363.272 490.495L364.024 493.256L364.569 495.95L364.897 498.565L365 501.089L364.872 503.509L364.509 505.816L363.909 507.998L363.071 510.046L361.998 511.952L360.694 513.71L359.164 515.313L357.418 516.757L355.465 518.041L353.316 519.161L350.984 520.12L348.483 520.917L345.829 521.558L343.038 522.044L340.125 522.384L337.107 522.582L334.001 522.646L330.823 522.584L327.59 522.406L324.316 522.121L321.017 521.738L317.707 521.268L314.399 520.72L311.105 520.105L307.837 519.432L304.605 518.712L301.417 517.953L298.282 517.164L295.207 516.356L292.199 515.535L289.262 514.709L286.401 513.887L283.619 513.075L280.918 512.279L278.302 511.506L275.771 510.761L273.326 510.049L270.968 509.375L268.696 508.744L266.509 508.159L264.408 507.624L262.389 507.143L260.453 506.719L258.597 506.354L256.819 506.052L255.117 505.814L253.489 505.643L251.933 505.542L250.447 505.512L249.027 505.556L247.671 505.675L246.377 505.87L245.142 506.145L243.964 506.5L242.84 506.938L241.767 507.459L240.743 508.066L239.765 508.76L238.83 509.543L237.936 510.416L237.081 511.381L236.26 512.44L235.473 513.593L234.715 514.844L233.985 516.192L233.279 517.639L232.595 519.187L231.929 520.837L231.279 522.589L230.642 524.445L230.014 526.404L229.393 528.468L228.775 530.636L228.156 532.908L227.534 535.283L226.905 537.759L226.265 540.336L225.611 543.01L224.938 545.779L224.243 548.638L223.523 551.584L222.772 554.611L221.988 557.713L221.167 560.882L220.304 564.111L219.396 567.389L218.439 570.707L217.431 574.052L216.367 577.413L215.245 580.775L214.062 584.123L212.816 587.441L211.505 590.713L210.129 593.921L208.685 597.047L207.175 600.071L205.599 602.974L203.958 605.737L202.254 608.341L200.489 610.767L198.667 612.996L196.793 615.012L194.87 616.798L192.905 618.339L190.903 619.623L188.871 620.639L186.815 621.377L184.744 621.833L182.665 622L180.585 621.879L178.512 621.469L176.454 620.775L174.418 619.803L172.411 618.561L170.439 617.06L168.509 615.312L166.627 613.332L164.796 611.136L163.022 608.74L161.308 606.163L159.657 603.424L158.07 600.542L156.55 597.536L155.096 594.425L153.709 591.229L152.387 587.966L151.131 584.654L149.939 581.309L148.807 577.948L147.734 574.587L146.717 571.238L145.752 567.915L144.837 564.63L143.967 561.393L143.139 558.214L142.349 555.101L141.594 552.061L140.868 549.102L140.17 546.228L139.494 543.444L138.837 540.755L138.195 538.163L137.564 535.67L136.941 533.279L136.322 530.991L135.704 528.806L135.084 526.726L134.457 524.75L133.822 522.878L133.174 521.109L132.511 519.443L131.83 517.879L131.128 516.416L130.402 515.052L129.649 513.786L128.866 512.617L128.051 511.543L127.201 510.563L126.314 509.676L125.386 508.879L124.415 508.171L123.398 507.55L122.333 507.015L121.217 506.564L120.048 506.196L118.822 505.909L117.538 505.701L116.192 505.57L114.783 505.514L113.307 505.533L111.762 505.623L110.146 505.782L108.456 506.009L106.691 506.302L104.847 506.657L102.923 507.072L100.918 507.544L98.8299 508.07L96.657 508.647L94.3985 509.272L92.0539 509.939L89.6228 510.645L87.1056 511.385L84.5029 512.154L81.8159 512.947L79.0467 513.757L76.1978 514.578L73.2726 515.403L70.2752 516.225L67.2107 517.037L64.0851 517.829L60.9053 518.593L57.6793 519.32L54.4161 520.002L51.1257 520.627L47.8191 521.186L44.5085 521.669L41.2069 522.067L37.9283 522.368L34.6874 522.564L31.4997 522.644L28.3811 522.601L25.3481 522.424L22.4173 522.108L19.6052 521.645L16.9283 521.03L14.4024 520.257L12.0428 519.325L9.86376 518.23L7.87835 516.973L6.09833 515.554L4.53383 513.975L3.19323 512.242L2.083 510.359L1.20761 508.333L0.569422 506.172L0.168717 503.885L0.00366257 501.482L0.0703861 498.974L0.363061 496.372L0.874035 493.69L1.59398 490.939L2.51209 488.131L3.61625 485.279L4.89328 482.396L6.32914 479.493L7.90913 476.581L9.61815 473.672L11.4409 470.774L13.3619 467.899L15.366 465.053L17.4384 462.245L19.5644 459.481L21.7303 456.768L23.9226 454.109L26.1288 451.51L28.3372 448.973L30.5368 446.501L32.7173 444.096L34.8695 441.759L36.9848 439.49L39.0556 437.29L41.0748 435.158L43.0363 433.093L44.9346 431.093L46.7647 429.158L48.5226 427.284L50.2044 425.47L51.8071 423.714L53.3278 422.012L54.7643 420.361L56.1146 418.76L57.3771 417.204L58.5506 415.691L59.6338 414.218L60.6261 412.781L61.5265 411.377L62.3348 410.003L63.0503 408.656L63.6729 407.332L64.2023 406.028L64.6383 404.741L64.9808 403.468L65.2298 402.204L65.3851 400.948L65.4468 399.696L65.4149 398.444L65.2894 397.189L65.0703 395.928L64.7575 394.659L64.3513 393.376L63.8516 392.078L63.2587 390.761L62.5728 389.421L61.794 388.056L60.9229 386.662L59.9598 385.236L58.9055 383.775L57.7606 382.275L56.5263 380.733L55.2038 379.147L53.7946 377.512L52.3005 375.827L50.7237 374.088L49.0667 372.293L47.3327 370.438L45.5251 368.523L43.648 366.544L41.7061 364.5L39.7046 362.389L37.6496 360.211L35.5477 357.964L33.4064 355.649L31.2339 353.265L29.0393 350.814L26.8326 348.298L24.6244 345.718L22.4263 343.078L20.2506 340.381L18.1104 337.633L16.0194 334.838L13.992 332.004L12.0428 329.137L10.1871 326.246L8.44023 323.339L6.81749 320.427L5.3341 317.52L4.00492 314.629L2.84422 311.766L1.86548 308.943L1.08117 306.172L0.502542 303.466L0.139418 300.838L0 298.299L0.0907101 295.861L0.416056 293.536L0.978524 291.334L1.77852 289.264L2.81433 287.334L4.08216 285.553L5.57616 283.925L7.28855 282.455L9.20974 281.146L11.3285 279.999L13.6321 279.015L16.1066 278.192L18.7371 277.527L21.5079 277.016L24.4027 276.653L27.4049 276.433L30.498 276.349L33.6655 276.39L36.8912 276.55L40.1594 276.819L43.4552 277.187L46.7644 277.644L50.0736 278.18L53.3704 278.785L56.6434 279.45L59.8823 280.163L63.0777 280.917L66.2214 281.701L69.306 282.507L72.3254 283.327L75.2741 284.152L78.1478 284.975L80.9427 285.79L83.6561 286.588L86.2858 287.366L88.8304 288.115L91.2889 288.833L93.661 289.513L95.9469 290.151L98.147 290.744L100.262 291.287L102.294 291.777L104.243 292.21L106.112 292.585L107.902 292.897L109.616 293.145L111.255 293.327L112.822 293.439L114.32 293.48L115.75 293.449L117.116 293.342L118.42 293.159L119.664 292.897L120.851 292.554L121.983 292.13L123.064 291.622L124.096 291.029L125.081 290.349L126.023 289.581L126.923 288.722L127.784 287.772L128.61 286.728L129.403 285.589L130.165 284.355L130.899 283.022L131.609 281.591L132.297 280.059L132.965 278.425L133.617 276.689L134.256 274.85L134.885 272.907L135.507 270.86L136.126 268.709L136.744 266.454L137.365 264.095L137.993 261.635L138.631 259.074L139.283 256.415L139.952 253.661L140.643 250.816L141.359 247.883L142.105 244.869L142.883 241.778L143.699 238.619L144.555 235.4L145.455 232.129L146.404 228.816L147.404 225.475L148.459 222.116L149.572 218.753L150.745 215.402L151.98 212.077L153.281 208.797L154.647 205.577L156.079 202.437L157.579 199.396L159.144 196.472L160.775 193.685L162.47 191.055L164.225 188.599L166.038 186.337L167.904 184.287L169.82 182.463L171.779 180.882L173.775 179.556L175.803 178.497L177.855 177.714L179.924 177.213L182.002 177L184.083 177.075L186.157 177.439L188.218 178.088L190.258 179.016L192.271 180.216L194.248 181.677L196.185 183.386L198.076 185.33L199.915 187.493L201.698 189.858L203.422 192.408L205.083 195.122L206.68 197.983L208.212 200.971L209.676 204.066L211.074 207.25L212.405 210.503L213.672 213.809L214.874 217.149L216.016 220.509L217.098 223.871L218.124 227.223L219.097 230.55L220.02 233.842L220.897 237.088L221.731 240.277L222.526 243.401L223.287 246.453L224.017 249.425L224.719 252.313L225.399 255.111L226.059 257.816L226.703 260.424L227.335 262.932L227.959 265.34L228.578 267.644L229.196 269.845L229.816 271.942L230.441 273.935L231.075 275.824L231.721 277.609L232.381 279.291L233.059 280.871L233.758 282.351L234.48 283.73L235.228 285.012L236.006 286.196L236.816 287.285L237.66 288.279L238.541 289.182L239.463 289.993L240.426 290.715L241.436 291.35L242.493 291.898L243.6 292.362L244.761 292.743L245.977 293.043L247.252 293.264L248.588 293.407L249.987 293.475L251.452 293.468L252.986 293.389L254.591 293.241L256.269 293.024L258.022 292.742L259.853 292.397L261.764 291.991L263.756 291.528L265.831 291.01L267.99 290.44L270.235 289.823L272.566 289.163L274.983 288.463L277.487 287.728L280.076 286.963L282.749 286.174L285.506 285.366L288.342 284.546L291.256 283.721L294.242 282.898L297.296 282.084L300.412 281.288L303.584 280.519L306.803 279.785L310.061 279.096L313.348 278.461L316.653 277.891L319.963 277.395L323.267 276.983L326.551 276.666L329.798 276.453L332.996 276.353L336.126 276.377L339.174 276.531L342.122 276.824L344.954 277.264L347.654 277.854L350.205 278.602L352.592 279.509L354.801 280.578L356.818 281.809L358.631 283.202L360.231 284.755L361.607 286.464L362.755 288.324L363.668 290.328L364.344 292.468L364.782 294.736L364.985 297.121L364.954 299.613L364.697 302.2L364.22 304.87L363.533 307.612L362.646 310.411L361.57 313.257L360.32 316.136L358.908 319.037L357.35 321.948L355.661 324.858L353.855 327.758L351.949 330.638L349.957 333.489L347.895 336.303L345.776 339.074L343.616 341.796L341.427 344.464L339.222 347.073L337.013 349.62L334.811 352.103L332.627 354.518L330.47 356.866L328.348 359.146L326.27 361.357L324.242 363.5L322.271 365.576L320.362 367.585L318.521 369.531L316.751 371.414L315.057 373.237L313.442 375.003L311.908 376.714L310.458 378.372L309.094 379.981L307.817 381.544L306.629 383.063L305.532 384.542L304.525 385.985L303.61 387.394L302.787 388.772L302.056 390.124L301.419 391.451L300.875 392.758L300.424 394.048L300.066 395.323L299.803 396.588L299.632 397.845L299.556 399.098L299.551 399.496Z" fill="#50BFA5"/>
<path fill-rule="evenodd" clip-rule="evenodd" d="M266.831 157.501L266.848 158.551L266.898 159.602L266.982 160.656L267.099 161.712L267.25 162.774L267.434 163.841L267.651 164.915L267.901 165.997L268.185 167.089L268.501 168.191L268.85 169.304L269.231 170.43L269.645 171.57L270.09 172.725L270.567 173.896L271.075 175.084L271.614 176.291L272.184 177.517L272.784 178.763L273.413 180.032L274.072 181.323L274.759 182.638L275.473 183.978L276.215 185.344L276.983 186.737L277.777 188.158L278.595 189.608L279.437 191.088L280.301 192.598L281.187 194.14L282.093 195.714L283.018 197.321L283.961 198.963L284.919 200.638L285.893 202.348L286.879 204.094L287.876 205.876L288.882 207.694L289.895 209.548L290.914 211.438L291.935 213.365L292.957 215.328L293.978 217.327L294.993 219.362L296.002 221.433L297.001 223.537L297.987 225.676L298.957 227.847L299.909 230.05L300.839 232.284L301.744 234.546L302.62 236.836L303.465 239.151L304.275 241.489L305.045 243.849L305.774 246.227L306.457 248.622L307.09 251.03L307.671 253.449L308.195 255.875L308.659 258.305L309.06 260.736L309.394 263.163L309.659 265.584L309.85 267.994L309.964 270.388L310 272.764L309.954 275.116L309.823 277.44L309.606 279.731L309.299 281.986L308.902 284.199L308.412 286.366L307.829 288.483L307.151 290.545L306.377 292.547L305.507 294.485L304.54 296.356L303.478 298.155L302.32 299.878L301.067 301.521L299.72 303.081L298.282 304.555L296.753 305.939L295.135 307.231L293.432 308.429L291.646 309.53L289.78 310.533L287.837 311.436L285.82 312.237L283.734 312.937L281.582 313.534L279.369 314.029L277.099 314.422L274.775 314.713L272.404 314.904L269.989 314.995L267.535 314.988L265.046 314.885L262.529 314.689L259.986 314.401L257.424 314.025L254.846 313.564L252.257 313.02L249.662 312.398L247.064 311.7L244.469 310.931L241.879 310.094L239.3 309.194L236.734 308.234L234.186 307.219L231.658 306.153L229.153 305.04L226.675 303.885L224.225 302.691L221.807 301.464L219.423 300.207L217.074 298.924L214.763 297.621L212.49 296.299L210.258 294.965L208.067 293.62L205.919 292.27L203.813 290.918L201.751 289.567L199.733 288.221L197.76 286.883L195.83 285.556L193.945 284.243L192.103 282.948L190.305 281.672L188.549 280.419L186.836 279.19L185.164 277.99L183.533 276.819L181.941 275.68L180.387 274.576L178.871 273.507L177.391 272.477L175.945 271.487L174.533 270.539L173.153 269.635L171.803 268.776L170.481 267.964L169.187 267.201L167.918 266.489L166.672 265.828L165.449 265.221L164.245 264.67L163.059 264.176L161.89 263.74L160.734 263.366L159.59 263.053L158.456 262.805L157.329 262.624L156.208 262.511L155.089 262.469L153.97 262.499L152.849 262.601L151.724 262.772L150.591 263.009L149.449 263.312L148.295 263.677L147.128 264.103L145.945 264.587L144.744 265.13L143.524 265.728L142.282 266.38L141.017 267.084L139.727 267.839L138.41 268.643L137.064 269.495L135.689 270.392L134.282 271.333L132.841 272.317L131.367 273.341L129.856 274.403L128.309 275.502L126.723 276.635L125.098 277.801L123.433 278.997L121.726 280.221L119.977 281.471L118.186 282.743L116.351 284.036L114.473 285.346L112.55 286.671L110.584 288.007L108.573 289.353L106.518 290.703L104.419 292.055L102.278 293.406L100.093 294.751L97.8677 296.088L95.6016 297.411L93.2963 298.718L90.9534 300.004L88.5746 301.266L86.1618 302.498L83.7172 303.697L81.2433 304.859L78.7426 305.978L76.218 307.052L73.6724 308.076L71.1092 309.045L68.5318 309.955L65.9439 310.802L63.3493 311.582L60.7519 312.292L58.156 312.926L55.5658 313.483L52.9858 313.958L50.4205 314.347L47.8745 314.649L45.3525 314.86L42.8593 314.978L40.3995 315L37.9778 314.925L35.599 314.75L33.2678 314.475L30.9886 314.099L28.766 313.62L26.6042 313.039L24.5074 312.356L22.4795 311.57L20.5244 310.683L18.6457 309.697L16.8465 308.611L15.1299 307.428L13.4988 306.151L11.9556 304.781L10.5024 303.321L9.14109 301.775L7.87324 300.145L6.70001 298.434L5.6223 296.647L4.64064 294.788L3.75525 292.86L2.96603 290.868L2.27255 288.815L1.67409 286.707L1.1696 284.547L0.757779 282.341L0.437031 280.093L0.205509 277.807L0.0611247 275.488L0.00156331 273.14L0.0243044 270.768L0.126639 268.376L0.30569 265.969L0.55843 263.55L0.881701 261.123L1.27223 258.692L1.72666 256.262L2.24156 253.835L2.81342 251.415L3.43873 249.005L4.11393 246.608L4.83546 244.226L5.59977 241.864L6.40333 239.522L7.24265 237.203L8.11429 234.909L9.01485 232.642L9.94101 230.404L10.8895 228.196L11.8573 226.02L12.8411 223.876L13.8381 221.766L14.8453 219.69L15.8601 217.649L16.8797 215.644L17.9015 213.675L18.9232 211.743L19.9423 209.846L20.9568 207.986L21.9643 206.163L22.963 204.376L23.951 202.624L24.9263 200.908L25.8875 199.227L26.8327 197.581L27.7607 195.968L28.6699 194.388L29.559 192.841L30.4269 191.326L31.2724 189.842L32.0944 188.387L32.8919 186.962L33.6641 185.564L34.4101 184.194L35.1291 182.85L35.8204 181.531L36.4834 180.236L37.1174 178.964L37.722 177.714L38.2965 176.484L38.8406 175.275L39.3539 174.084L39.8359 172.91L40.2863 171.753L40.7049 170.611L41.0913 169.482L41.4453 168.367L41.7667 167.264L42.0553 166.171L42.311 165.087L42.5335 164.012L42.7229 162.943L42.8789 161.881L43.0015 160.824L43.0907 159.77L43.1464 158.719L43.1685 157.669L43.157 156.619L43.1121 155.568L43.0336 154.515L42.9216 153.459L42.7762 152.398L42.5975 151.332L42.3855 150.259L42.1403 149.179L41.8622 148.089L41.5512 146.989L41.2076 145.877L40.8315 144.753L40.4231 143.616L39.9828 142.463L39.5108 141.295L39.0075 140.109L38.4732 138.906L37.9083 137.683L37.3132 136.44L36.6885 135.175L36.0347 133.887L35.3523 132.576L34.6421 131.24L33.9046 129.878L33.1407 128.489L32.3511 127.073L31.5368 125.628L30.6987 124.153L29.8378 122.648L28.9553 121.111L28.0524 119.542L27.1303 117.94L26.1904 116.304L25.2341 114.634L24.2631 112.929L23.279 111.189L22.2835 109.413L21.2786 107.601L20.2661 105.753L19.2482 103.868L18.2271 101.947L17.205 99.9899L16.1844 97.9963L15.1679 95.967L14.1579 93.9023L13.1574 91.803L12.169 89.6698L11.1958 87.5036L10.2409 85.3056L9.30724 83.077L8.39817 80.8192L7.51695 78.5338L6.66697 76.2227L5.85164 73.8878L5.07444 71.5313L4.3389 69.1556L3.64856 66.7633L3.00697 64.357L2.4177 61.9397L1.88428 59.5145L1.41021 57.0848L0.998955 54.654L0.653901 52.2257L0.378346 49.8038L0.175488 47.3921L0.0483966 44.9948L0 42.616L0.0330626 40.26L0.150167 37.9313L0.353695 35.6343L0.645809 33.3735L1.02844 31.1534L1.50325 28.9786L2.07165 26.8535L2.73477 24.7828L3.49344 22.7708L4.34816 20.8218L5.29917 18.94L6.34633 17.1297L7.48921 15.3946L8.72704 13.7385L10.0587 12.1649L11.4828 10.6772L12.9976 9.27838L14.601 7.97122L16.2906 6.75821L18.0638 5.64153L19.9175 4.62306L21.8487 3.70433L23.8538 2.88655L25.929 2.17056L28.0706 1.55688L30.2743 1.04566L32.5359 0.636708L34.8511 0.329473L37.2152 0.123075L39.6237 0.0162909L42.0719 0.00757739L44.555 0.0950766L47.0684 0.276632L49.6072 0.549805L52.1669 0.91189L54.7427 1.35993L57.3301 1.89076L59.9246 2.50097L62.522 3.187L65.118 3.94512L67.7085 4.77143L70.2896 5.66194L72.8577 6.61255L75.4092 7.61908L77.9409 8.6773L80.4495 9.78294L82.9323 10.9317L85.3865 12.1193L87.8096 13.3415L90.1995 14.5941L92.554 15.8728L94.8715 17.1735L97.1502 18.4922L99.3889 19.825L101.586 21.1679L103.742 22.5173L105.854 23.8694L107.923 25.2207L109.948 26.5678L111.929 27.9074L113.865 29.2364L115.758 30.5516L117.606 31.8502L119.412 33.1294L121.174 34.3864L122.894 35.6188L124.572 36.824L126.21 37.9997L127.808 39.1437L129.368 40.2539L130.89 41.3281L132.376 42.3644L133.826 43.3609L135.244 44.3157L136.629 45.2272L137.984 46.0934L139.31 46.9128L140.609 47.6836L141.881 48.4043L143.131 49.0732L144.358 49.6886L145.564 50.2488L146.753 50.7523L147.925 51.1972L149.083 51.5818L150.228 51.9042L151.364 52.1626L152.491 52.3548L153.614 52.4788L154.733 52.5323L155.851 52.5133L156.972 52.4227L158.096 52.2628L159.228 52.0358L160.368 51.7437L161.52 51.3886L162.685 50.9723L163.866 50.4966L165.063 49.9632L166.28 49.374L167.519 48.7305L168.78 48.0343L170.066 47.2873L171.379 46.4908L172.719 45.6468L174.09 44.7567L175.492 43.8224L176.927 42.8456L178.396 41.8281L179.9 40.7718L181.442 39.6785L183.021 38.5504L184.64 37.3896L186.299 36.1981L187.999 34.9785L189.741 33.7329L191.526 32.464L193.353 31.1743L195.225 29.8667L197.14 28.5439L199.1 27.209L201.104 25.865L203.152 24.5153L205.243 23.1632L207.378 21.8121L209.556 20.4656L211.775 19.1275L214.035 17.8016L216.334 16.4917L218.671 15.202L221.044 13.9364L223.452 12.6992L225.891 11.4946L228.361 10.3267L230.857 9.19992L233.378 8.11851L235.921 7.08675L238.481 6.10889L241.057 5.18915L243.643 4.33166L246.237 3.54047L248.834 2.81952L251.431 2.17263L254.022 1.60344L256.604 1.11543L259.172 0.711892L261.721 0.395884L264.247 0.170233L266.745 0.037507L269.211 0L271.639 0.0597139L274.025 0.218345L276.364 0.477269L278.652 0.837533L280.884 1.29985L283.056 1.86457L285.163 2.53172L287.202 3.30095L289.169 4.17157L291.06 5.14256L292.872 6.21253L294.602 7.37976L296.247 8.64223L297.804 9.99759L299.272 11.4432L300.648 12.9761L301.931 14.5932L303.119 16.291L304.212 18.0659L305.209 19.914L306.11 21.8314L306.914 23.8138L307.623 25.8571L308.237 27.9567L308.756 30.1083L309.182 32.3074L309.518 34.5493L309.763 36.8296L309.921 39.1437L309.994 41.4872L309.984 43.8556L309.895 46.2446L309.728 48.65L309.486 51.0675L309.174 53.4932L308.794 55.9233L308.35 58.354L307.844 60.7818L307.281 63.2032L306.664 65.6151L305.997 68.0145L305.282 70.3985L304.524 72.7644L303.727 75.1099L302.893 77.4326L302.026 79.7305L301.13 82.0017L300.208 84.2445L299.263 86.4573L298.298 88.6389L297.316 90.788L296.321 92.9036L295.315 94.9849L294.302 97.0311L293.283 99.0418L292.261 101.017L291.239 102.955L290.219 104.857L289.204 106.723L288.195 108.552L287.195 110.345L286.205 112.102L285.228 113.824L284.264 115.51L283.316 117.162L282.386 118.78L281.473 120.365L280.581 121.917L279.71 123.438L278.86 124.927L278.035 126.386L277.233 127.816L276.457 129.218L275.707 130.593L274.983 131.941L274.288 133.264L273.62 134.562L272.981 135.838L272.372 137.091L271.793 138.324L271.244 139.537L270.726 140.731L270.239 141.907L269.783 143.067L269.359 144.211L268.968 145.342L268.609 146.459L268.282 147.564L267.988 148.659L267.727 149.744L267.499 150.821L267.305 151.89L267.143 152.953L267.015 154.011L266.921 155.065L266.86 156.117L266.833 157.167L266.831 157.501Z" fill="#0F4F4C"/>
</svg>
