<svg width="46" height="46" viewBox="0 0 46 46" fill="none" xmlns="http://www.w3.org/2000/svg">
<circle cx="23" cy="23" r="23" fill="#D9D9D9"/>
<path d="M28.621 23.2469C30.4845 23.2469 31.9951 24.7576 31.9951 26.621C31.9951 29.1315 30.9627 31.1429 29.2685 32.5027C27.6011 33.8411 25.3663 34.4939 22.9976 34.4939C20.6288 34.4939 18.394 33.8411 16.7266 32.5027C15.0324 31.1429 14 29.1315 14 26.621C14 24.8673 15.3381 23.4259 17.0491 23.2624L17.374 23.2469H28.621ZM22.9976 12C25.4822 12 27.4963 14.0142 27.4963 16.4988C27.4963 18.9834 25.4822 20.9976 22.9976 20.9976C20.513 20.9976 18.4988 18.9834 18.4988 16.4988C18.4988 14.0142 20.513 12 22.9976 12Z" fill="#212121"/>
</svg>
