<svg width="39" height="31" viewBox="0 0 39 31" fill="none" xmlns="http://www.w3.org/2000/svg">
<path d="M21.4057 9.52527C27.2864 9.52527 30.6224 13.28 31.1075 17.8145L31.2559 17.8145C35.0404 17.8145 38.1083 20.7662 38.1083 24.4072C38.1083 28.0483 35.0404 31 31.2559 31H11.5555C7.77104 31 4.70315 28.0483 4.70315 24.4072C4.70315 20.7662 7.77104 17.8145 11.5555 17.8145L11.7039 17.8145C12.1919 13.2502 15.5251 9.52527 21.4057 9.52527ZM4.23363 15.9696C4.42431 16.5234 4.18385 17.1214 3.69051 17.3981L3.494 17.4861L1.58178 18.1445C0.958781 18.359 0.27984 18.0279 0.0653234 17.4049C-0.125358 16.8511 0.115098 16.2531 0.60844 15.9764L0.804949 15.8884L2.71717 15.23C3.34017 15.0155 4.01911 15.3466 4.23363 15.9696ZM16.4409 5.94671C17.2334 6.33322 17.9314 6.83584 18.5243 7.42411C14.32 8.29394 11.2956 11.0841 10.0706 14.9564L9.91473 15.4911L9.80432 15.9371L9.40994 16.0092C8.33159 16.2313 7.32398 16.6447 6.42606 17.212C4.99901 14.9909 4.73264 12.0984 5.97546 9.55026C7.87033 5.6652 12.5559 4.05184 16.4409 5.94671ZM2.1162 6.35123L2.31737 6.42797L4.13509 7.31453C4.72731 7.60337 4.97324 8.31761 4.6844 8.90982C4.42765 9.43623 3.83478 9.68904 3.29028 9.53586L3.0891 9.45912L1.27138 8.57256C0.679167 8.28372 0.433235 7.56948 0.722077 6.97727C0.978826 6.45086 1.57169 6.19805 2.1162 6.35123ZM18.9938 0.685812C19.5202 0.94256 19.773 1.53542 19.6198 2.07993L19.5431 2.2811L18.6565 4.09883C18.3677 4.69104 17.6535 4.93697 17.0612 4.64813C16.5348 4.39138 16.282 3.79852 16.4352 3.25401L16.5119 3.05284L17.3985 1.23512C17.6873 0.642902 18.4016 0.39697 18.9938 0.685812ZM9.95086 0.60844L10.0389 0.804949L10.6973 2.71717C10.9118 3.34017 10.5807 4.01911 9.95766 4.23363C9.40388 4.42431 8.8059 4.18385 8.52919 3.69051L8.4412 3.494L7.78277 1.58178C7.56825 0.958781 7.8994 0.27984 8.5224 0.0653234C9.07618 -0.125358 9.67415 0.115098 9.95086 0.60844Z" fill="#2C7A68"/>
</svg>
